%TF.GenerationSoftware,KiCad,Pcbnew,10.0.5-10.0.5~ubuntu26.04.1*%
%TF.CreationDate,2026-08-15T22:39:45+01:00*%
%TF.ProjectId,keyboard,6b657962-6f61-4726-942e-6b696361645f,1*%
%TF.SameCoordinates,Original*%
%TF.FileFunction,Soldermask,Top*%
%TF.FilePolarity,Negative*%
%FSLAX46Y46*%
G04 Gerber Fmt 4.6, Leading zero omitted, Abs format (unit mm)*
G04 Created by KiCad (PCBNEW 10.0.5-10.0.5~ubuntu26.04.1) date 2026-08-15 22:39:45*
%MOMM*%
%LPD*%
G01*
G04 APERTURE LIST*
%ADD10C,5.400000*%
%ADD11C,3.300000*%
%ADD12C,3.987800*%
%ADD13R,1.350000X1.350000*%
%ADD14C,1.350000*%
G04 APERTURE END LIST*
D10*
%TO.C,H6*%
X432775000Y-64600000D03*
%TD*%
%TO.C,H4*%
X412450000Y-121275000D03*
%TD*%
D11*
%TO.C,MX73*%
X400735000Y-97230000D03*
X407085000Y-94690000D03*
D12*
X403275000Y-92150000D03*
%TD*%
D11*
%TO.C,MX35*%
X400735000Y-59180000D03*
X407085000Y-56640000D03*
D12*
X403275000Y-54100000D03*
%TD*%
D11*
%TO.C,MX91*%
X419685000Y-116280000D03*
X426035000Y-113740000D03*
D12*
X422225000Y-111200000D03*
%TD*%
D11*
%TO.C,MX55*%
X381785000Y-78205000D03*
X388135000Y-75665000D03*
D12*
X384325000Y-73125000D03*
%TD*%
D11*
%TO.C,MX104*%
X391235000Y-135230000D03*
X397585000Y-132690000D03*
D12*
X393775000Y-130150000D03*
%TD*%
D11*
%TO.C,MX57*%
X419710000Y-78205000D03*
X426060000Y-75665000D03*
D12*
X422250000Y-73125000D03*
%TD*%
D11*
%TO.C,MX74*%
X419699824Y-97205000D03*
X426049824Y-94665000D03*
D12*
X422239824Y-92125000D03*
%TD*%
D11*
%TO.C,MX58*%
X438685000Y-87505000D03*
X445035000Y-84965000D03*
D12*
X441225000Y-82425000D03*
%TD*%
D11*
%TO.C,MX92*%
X438649824Y-125580000D03*
X444999824Y-123040000D03*
D12*
X441189824Y-120500000D03*
%TD*%
D11*
%TO.C,MX36*%
X419685000Y-59180000D03*
X426035000Y-56640000D03*
D12*
X422225000Y-54100000D03*
%TD*%
D11*
%TO.C,MX56*%
X400735000Y-78205000D03*
X407085000Y-75665000D03*
D12*
X403275000Y-73125000D03*
%TD*%
D11*
%TO.C,MX34*%
X381774824Y-59180000D03*
X388124824Y-56640000D03*
D12*
X384314824Y-54100000D03*
%TD*%
D11*
%TO.C,MX89*%
X381785000Y-116280000D03*
X388135000Y-113740000D03*
D12*
X384325000Y-111200000D03*
%TD*%
D11*
%TO.C,MX37*%
X438660000Y-59180000D03*
X445010000Y-56640000D03*
D12*
X441200000Y-54100000D03*
%TD*%
D11*
%TO.C,MX105*%
X419710000Y-135230000D03*
X426060000Y-132690000D03*
D12*
X422250000Y-130150000D03*
%TD*%
D11*
%TO.C,MX72*%
X381774824Y-97255000D03*
X388124824Y-94715000D03*
D12*
X384314824Y-92175000D03*
%TD*%
D11*
%TO.C,MX90*%
X400735000Y-116305000D03*
X407085000Y-113765000D03*
D12*
X403275000Y-111225000D03*
%TD*%
D10*
%TO.C,H2*%
X67525000Y-124575000D03*
%TD*%
%TO.C,H1*%
X46250000Y-66150000D03*
%TD*%
%TO.C,H5*%
X280025000Y-72475000D03*
%TD*%
%TO.C,H3*%
X233575000Y-124525000D03*
%TD*%
D12*
%TO.C,MX93*%
X31825000Y-130200000D03*
D11*
X35635000Y-132740000D03*
X29285000Y-135280000D03*
%TD*%
D12*
%TO.C,MX49*%
X247950000Y-73100000D03*
D11*
X251760000Y-75640000D03*
X245410000Y-78180000D03*
%TD*%
D12*
%TO.C,MX23*%
X143539824Y-54075000D03*
D11*
X147349824Y-56615000D03*
X140999824Y-59155000D03*
%TD*%
D12*
%TO.C,MX98*%
X245525000Y-130225000D03*
D11*
X249335000Y-132765000D03*
X242985000Y-135305000D03*
%TD*%
D12*
%TO.C,MX84*%
X205425000Y-111175000D03*
D11*
X209235000Y-113715000D03*
X202885000Y-116255000D03*
%TD*%
D12*
%TO.C,MX76*%
X53300000Y-111200000D03*
D11*
X57110000Y-113740000D03*
X50760000Y-116280000D03*
%TD*%
D12*
%TO.C,MX96*%
X150500000Y-130200000D03*
D11*
X154310000Y-132740000D03*
X147960000Y-135280000D03*
%TD*%
D12*
%TO.C,MX81*%
X148514824Y-111200000D03*
D11*
X152324824Y-113740000D03*
X145974824Y-116280000D03*
%TD*%
D12*
%TO.C,MX48*%
X228975000Y-73125000D03*
D11*
X232785000Y-75665000D03*
X226435000Y-78205000D03*
%TD*%
D12*
%TO.C,MX40*%
X77075000Y-73125000D03*
D11*
X80885000Y-75665000D03*
X74535000Y-78205000D03*
%TD*%
D12*
%TO.C,MX33*%
X358975000Y-54100000D03*
D11*
X362785000Y-56640000D03*
X356435000Y-59180000D03*
%TD*%
D12*
%TO.C,MX68*%
X214425000Y-92150000D03*
D11*
X218235000Y-94690000D03*
X211885000Y-97230000D03*
%TD*%
D12*
%TO.C,MX42*%
X115039824Y-73125000D03*
D11*
X118849824Y-75665000D03*
X112499824Y-78205000D03*
%TD*%
D12*
%TO.C,MX9*%
X209889824Y-28500000D03*
D11*
X213699824Y-31040000D03*
X207349824Y-33580000D03*
%TD*%
D12*
%TO.C,MX66*%
X176489824Y-92150000D03*
D11*
X180299824Y-94690000D03*
X173949824Y-97230000D03*
%TD*%
D12*
%TO.C,MX29*%
X257489824Y-54075000D03*
D11*
X261299824Y-56615000D03*
X254949824Y-59155000D03*
%TD*%
D12*
%TO.C,MX80*%
X129525000Y-111200000D03*
D11*
X133335000Y-113740000D03*
X126985000Y-116280000D03*
%TD*%
D12*
%TO.C,MX17*%
X29600000Y-54075000D03*
D11*
X33410000Y-56615000D03*
X27060000Y-59155000D03*
%TD*%
D12*
%TO.C,MX13*%
X295439824Y-28475000D03*
D11*
X299249824Y-31015000D03*
X292899824Y-33555000D03*
%TD*%
D12*
%TO.C,MX26*%
X200439824Y-54075000D03*
D11*
X204249824Y-56615000D03*
X197899824Y-59155000D03*
%TD*%
D12*
%TO.C,MX75*%
X31850000Y-111200000D03*
D11*
X35660000Y-113740000D03*
X29310000Y-116280000D03*
%TD*%
D12*
%TO.C,MX18*%
X48550000Y-54075000D03*
D11*
X52360000Y-56615000D03*
X46010000Y-59155000D03*
%TD*%
D12*
%TO.C,MX46*%
X190975000Y-73125000D03*
D11*
X194785000Y-75665000D03*
X188435000Y-78205000D03*
%TD*%
D12*
%TO.C,MX28*%
X238439824Y-54100000D03*
D11*
X242249824Y-56640000D03*
X235899824Y-59180000D03*
%TD*%
D12*
%TO.C,MX20*%
X86514824Y-54100000D03*
D11*
X90324824Y-56640000D03*
X83974824Y-59180000D03*
%TD*%
D12*
%TO.C,MX1*%
X29620878Y-28513430D03*
D11*
X33430878Y-31053430D03*
X27080878Y-33593430D03*
%TD*%
D12*
%TO.C,MX100*%
X293000000Y-130225000D03*
D11*
X296810000Y-132765000D03*
X290460000Y-135305000D03*
%TD*%
D12*
%TO.C,MX8*%
X190939824Y-28500000D03*
D11*
X194749824Y-31040000D03*
X188399824Y-33580000D03*
%TD*%
D12*
%TO.C,MX16*%
X358950000Y-28475000D03*
D11*
X362760000Y-31015000D03*
X356410000Y-33555000D03*
%TD*%
D12*
%TO.C,MX95*%
X79225000Y-130225000D03*
D11*
X83035000Y-132765000D03*
X76685000Y-135305000D03*
%TD*%
D12*
%TO.C,MX43*%
X134075000Y-73125000D03*
D11*
X137885000Y-75665000D03*
X131535000Y-78205000D03*
%TD*%
D12*
%TO.C,MX51*%
X292664824Y-82500000D03*
D11*
X296474824Y-85040000D03*
X290124824Y-87580000D03*
%TD*%
D12*
%TO.C,MX30*%
X285989824Y-54100000D03*
D11*
X289799824Y-56640000D03*
X283449824Y-59180000D03*
%TD*%
D12*
%TO.C,MX77*%
X72550000Y-111200000D03*
D11*
X76360000Y-113740000D03*
X70010000Y-116280000D03*
%TD*%
D12*
%TO.C,MX71*%
X271200000Y-92150000D03*
D11*
X275010000Y-94690000D03*
X268660000Y-97230000D03*
%TD*%
D12*
%TO.C,MX24*%
X162464824Y-54075000D03*
D11*
X166274824Y-56615000D03*
X159924824Y-59155000D03*
%TD*%
D12*
%TO.C,MX10*%
X238450000Y-28500000D03*
D11*
X242260000Y-31040000D03*
X235910000Y-33580000D03*
%TD*%
D12*
%TO.C,MX79*%
X110475000Y-111200000D03*
D11*
X114285000Y-113740000D03*
X107935000Y-116280000D03*
%TD*%
D12*
%TO.C,MX53*%
X339900000Y-73100000D03*
D11*
X343710000Y-75640000D03*
X337360000Y-78180000D03*
%TD*%
D12*
%TO.C,MX21*%
X105525000Y-54075000D03*
D11*
X109335000Y-56615000D03*
X102985000Y-59155000D03*
%TD*%
D12*
%TO.C,MX83*%
X186475000Y-111225000D03*
D11*
X190285000Y-113765000D03*
X183935000Y-116305000D03*
%TD*%
D12*
%TO.C,MX32*%
X339925000Y-54125000D03*
D11*
X343735000Y-56665000D03*
X337385000Y-59205000D03*
%TD*%
D12*
%TO.C,MX94*%
X55550000Y-130225000D03*
D11*
X59360000Y-132765000D03*
X53010000Y-135305000D03*
%TD*%
D12*
%TO.C,MX47*%
X209950000Y-73125000D03*
D11*
X213760000Y-75665000D03*
X207410000Y-78205000D03*
%TD*%
D12*
%TO.C,MX70*%
X252500000Y-92150000D03*
D11*
X256310000Y-94690000D03*
X249960000Y-97230000D03*
%TD*%
D12*
%TO.C,MX15*%
X339900000Y-28513430D03*
D11*
X343710000Y-31053430D03*
X337360000Y-33593430D03*
%TD*%
D12*
%TO.C,MX101*%
X321014824Y-130225000D03*
D11*
X324824824Y-132765000D03*
X318474824Y-135305000D03*
%TD*%
D12*
%TO.C,MX38*%
X34364824Y-73125000D03*
D11*
X38174824Y-75665000D03*
X31824824Y-78205000D03*
%TD*%
D12*
%TO.C,MX25*%
X181414824Y-54125000D03*
D11*
X185224824Y-56665000D03*
X178874824Y-59205000D03*
%TD*%
D12*
%TO.C,MX44*%
X153014824Y-73125000D03*
D11*
X156824824Y-75665000D03*
X150474824Y-78205000D03*
%TD*%
D12*
%TO.C,MX5*%
X124525000Y-28513430D03*
D11*
X128335000Y-31053430D03*
X121985000Y-33593430D03*
%TD*%
D12*
%TO.C,MX7*%
X171939824Y-28500000D03*
D11*
X175749824Y-31040000D03*
X169399824Y-33580000D03*
%TD*%
D12*
%TO.C,MX4*%
X105489824Y-28513430D03*
D11*
X109299824Y-31053430D03*
X102949824Y-33593430D03*
%TD*%
D12*
%TO.C,MX82*%
X167489824Y-111200000D03*
D11*
X171299824Y-113740000D03*
X164949824Y-116280000D03*
%TD*%
D12*
%TO.C,MX19*%
X67564824Y-54075000D03*
D11*
X71374824Y-56615000D03*
X65024824Y-59155000D03*
%TD*%
D12*
%TO.C,MX22*%
X124539824Y-54075000D03*
D11*
X128349824Y-56615000D03*
X121999824Y-59155000D03*
%TD*%
D12*
%TO.C,MX3*%
X86550000Y-28513430D03*
D11*
X90360000Y-31053430D03*
X84010000Y-33593430D03*
%TD*%
D12*
%TO.C,MX88*%
X339975000Y-111175000D03*
D11*
X343785000Y-113715000D03*
X337435000Y-116255000D03*
%TD*%
D12*
%TO.C,MX50*%
X266975000Y-73125000D03*
D11*
X270785000Y-75665000D03*
X264435000Y-78205000D03*
%TD*%
D12*
%TO.C,MX6*%
X152950000Y-28513430D03*
D11*
X156760000Y-31053430D03*
X150410000Y-33593430D03*
%TD*%
D12*
%TO.C,MX54*%
X358939824Y-73125000D03*
D11*
X362749824Y-75665000D03*
X356399824Y-78205000D03*
%TD*%
D12*
%TO.C,MX102*%
X339939824Y-130200000D03*
D11*
X343749824Y-132740000D03*
X337399824Y-135280000D03*
%TD*%
D12*
%TO.C,MX97*%
X221750000Y-130200000D03*
D11*
X225560000Y-132740000D03*
X219210000Y-135280000D03*
%TD*%
D12*
%TO.C,MX14*%
X320950000Y-28475000D03*
D11*
X324760000Y-31015000D03*
X318410000Y-33555000D03*
%TD*%
D12*
%TO.C,MX99*%
X269250000Y-130200000D03*
D11*
X273060000Y-132740000D03*
X266710000Y-135280000D03*
%TD*%
D12*
%TO.C,MX60*%
X62525000Y-92150000D03*
D11*
X66335000Y-94690000D03*
X59985000Y-97230000D03*
%TD*%
D12*
%TO.C,MX12*%
X276439824Y-28500000D03*
D11*
X280249824Y-31040000D03*
X273899824Y-33580000D03*
%TD*%
D12*
%TO.C,MX87*%
X278975000Y-111175000D03*
D11*
X282785000Y-113715000D03*
X276435000Y-116255000D03*
%TD*%
D12*
%TO.C,MX69*%
X233475000Y-92150000D03*
D11*
X237285000Y-94690000D03*
X230935000Y-97230000D03*
%TD*%
D12*
%TO.C,MX86*%
X243500000Y-111200000D03*
D11*
X247310000Y-113740000D03*
X240960000Y-116280000D03*
%TD*%
D12*
%TO.C,MX64*%
X138525000Y-92175000D03*
D11*
X142335000Y-94715000D03*
X135985000Y-97255000D03*
%TD*%
D12*
%TO.C,MX62*%
X100489824Y-92175000D03*
D11*
X104299824Y-94715000D03*
X97949824Y-97255000D03*
%TD*%
D12*
%TO.C,MX59*%
X36600000Y-92175000D03*
D11*
X40410000Y-94715000D03*
X34060000Y-97255000D03*
%TD*%
D12*
%TO.C,MX2*%
X67600000Y-28513430D03*
D11*
X71410000Y-31053430D03*
X65060000Y-33593430D03*
%TD*%
D12*
%TO.C,MX41*%
X96039824Y-73150000D03*
D11*
X99849824Y-75690000D03*
X93499824Y-78230000D03*
%TD*%
D12*
%TO.C,MX45*%
X171975000Y-73125000D03*
D11*
X175785000Y-75665000D03*
X169435000Y-78205000D03*
%TD*%
D12*
%TO.C,MX61*%
X81514824Y-92150000D03*
D11*
X85324824Y-94690000D03*
X78974824Y-97230000D03*
%TD*%
D12*
%TO.C,MX63*%
X119550000Y-92150000D03*
D11*
X123360000Y-94690000D03*
X117010000Y-97230000D03*
%TD*%
D12*
%TO.C,MX31*%
X320950000Y-54100000D03*
D11*
X324760000Y-56640000D03*
X318410000Y-59180000D03*
%TD*%
D12*
%TO.C,MX11*%
X257450000Y-28475000D03*
D11*
X261260000Y-31015000D03*
X254910000Y-33555000D03*
%TD*%
D12*
%TO.C,MX65*%
X157500000Y-92175000D03*
D11*
X161310000Y-94715000D03*
X154960000Y-97255000D03*
%TD*%
D12*
%TO.C,MX39*%
X58100000Y-73125000D03*
D11*
X61910000Y-75665000D03*
X55560000Y-78205000D03*
%TD*%
D13*
%TO.C,J1*%
X372700000Y-37100000D03*
D14*
X372700000Y-39100000D03*
X372700000Y-41100000D03*
X372700000Y-43100000D03*
X372700000Y-45100000D03*
%TD*%
D12*
%TO.C,MX103*%
X358975000Y-130225000D03*
D11*
X362785000Y-132765000D03*
X356435000Y-135305000D03*
%TD*%
D12*
%TO.C,MX52*%
X320975000Y-73175000D03*
D11*
X324785000Y-75715000D03*
X318435000Y-78255000D03*
%TD*%
D12*
%TO.C,MX78*%
X91525000Y-111200000D03*
D11*
X95335000Y-113740000D03*
X88985000Y-116280000D03*
%TD*%
D12*
%TO.C,MX27*%
X219439824Y-54075000D03*
D11*
X223249824Y-56615000D03*
X216899824Y-59155000D03*
%TD*%
D12*
%TO.C,MX85*%
X224425000Y-111200000D03*
D11*
X228235000Y-113740000D03*
X221885000Y-116280000D03*
%TD*%
D12*
%TO.C,MX67*%
X195450000Y-92175000D03*
D11*
X199260000Y-94715000D03*
X192910000Y-97255000D03*
%TD*%
M02*
