%TF.GenerationSoftware,KiCad,Pcbnew,10.0.5-10.0.5~ubuntu26.04.1*%
%TF.CreationDate,2026-07-27T21:09:03+01:00*%
%TF.ProjectId,keyboard,6b657962-6f61-4726-942e-6b696361645f,1*%
%TF.SameCoordinates,Original*%
%TF.FileFunction,Profile,NP*%
%FSLAX46Y46*%
G04 Gerber Fmt 4.6, Leading zero omitted, Abs format (unit mm)*
G04 Created by KiCad (PCBNEW 10.0.5-10.0.5~ubuntu26.04.1) date 2026-07-27 21:09:03*
%MOMM*%
%LPD*%
G01*
G04 APERTURE LIST*
%TA.AperFunction,Profile*%
%ADD10C,0.000000*%
%TD*%
%TA.AperFunction,Profile*%
%ADD11C,0.010000*%
%TD*%
%TA.AperFunction,Profile*%
%ADD12C,0.050000*%
%TD*%
G04 APERTURE END LIST*
D10*
%TA.AperFunction,Profile*%
G36*
X31384447Y-25057146D02*
G01*
X27584446Y-25057146D01*
X27584446Y-21757146D01*
X31384447Y-21757146D01*
X31384447Y-25057146D01*
G37*
%TD.AperFunction*%
%TA.AperFunction,Profile*%
G36*
X31387593Y-50640651D02*
G01*
X27587594Y-50640651D01*
X27587594Y-47340650D01*
X31387593Y-47340650D01*
X31387593Y-50640651D01*
G37*
%TD.AperFunction*%
%TA.AperFunction,Profile*%
G36*
X33617404Y-107746568D02*
G01*
X29817406Y-107746568D01*
X29817406Y-104446572D01*
X33617404Y-104446572D01*
X33617404Y-107746568D01*
G37*
%TD.AperFunction*%
%TA.AperFunction,Profile*%
G36*
X33617405Y-126758592D02*
G01*
X29817406Y-126758592D01*
X29817406Y-123458596D01*
X33617405Y-123458596D01*
X33617405Y-126758592D01*
G37*
%TD.AperFunction*%
%TA.AperFunction,Profile*%
G36*
X36133442Y-69673291D02*
G01*
X32333442Y-69673291D01*
X32333442Y-66373292D01*
X36133442Y-66373292D01*
X36133442Y-69673291D01*
G37*
%TD.AperFunction*%
%TA.AperFunction,Profile*%
G36*
X38370965Y-88731416D02*
G01*
X34570967Y-88731416D01*
X34570967Y-85431413D01*
X38370965Y-85431413D01*
X38370965Y-88731416D01*
G37*
%TD.AperFunction*%
%TA.AperFunction,Profile*%
G36*
X50335795Y-50640651D02*
G01*
X46535794Y-50640651D01*
X46535794Y-47340650D01*
X50335795Y-47340650D01*
X50335795Y-50640651D01*
G37*
%TD.AperFunction*%
%TA.AperFunction,Profile*%
G36*
X55077580Y-107746568D02*
G01*
X51277581Y-107746568D01*
X51277581Y-104446572D01*
X55077580Y-104446572D01*
X55077580Y-107746568D01*
G37*
%TD.AperFunction*%
%TA.AperFunction,Profile*%
G36*
X55868588Y-94854539D02*
G01*
X53168588Y-94854539D01*
X53168588Y-89554536D01*
X55868588Y-89554536D01*
X55868588Y-94854539D01*
G37*
%TD.AperFunction*%
%TA.AperFunction,Profile*%
G36*
X57333829Y-126758592D02*
G01*
X53533826Y-126758592D01*
X53533826Y-123458596D01*
X57333829Y-123458596D01*
X57333829Y-126758592D01*
G37*
%TD.AperFunction*%
%TA.AperFunction,Profile*%
G36*
X59873582Y-69673291D02*
G01*
X56073579Y-69673291D01*
X56073579Y-66373292D01*
X59873582Y-66373292D01*
X59873582Y-69673291D01*
G37*
%TD.AperFunction*%
%TA.AperFunction,Profile*%
G36*
X64328542Y-88705918D02*
G01*
X60528542Y-88705918D01*
X60528542Y-85405923D01*
X64328542Y-85405923D01*
X64328542Y-88705918D01*
G37*
%TD.AperFunction*%
%TA.AperFunction,Profile*%
G36*
X69333344Y-50640651D02*
G01*
X65533341Y-50640651D01*
X65533341Y-47340650D01*
X69333344Y-47340650D01*
X69333344Y-50640651D01*
G37*
%TD.AperFunction*%
%TA.AperFunction,Profile*%
G36*
X69358666Y-25057146D02*
G01*
X65558663Y-25057146D01*
X65558663Y-21757146D01*
X69358666Y-21757146D01*
X69358666Y-25057146D01*
G37*
%TD.AperFunction*%
%TA.AperFunction,Profile*%
G36*
X74312837Y-107747056D02*
G01*
X70512834Y-107747056D01*
X70512834Y-104447053D01*
X74312837Y-104447053D01*
X74312837Y-107747056D01*
G37*
%TD.AperFunction*%
%TA.AperFunction,Profile*%
G36*
X78828744Y-69673291D02*
G01*
X75028741Y-69673291D01*
X75028741Y-66373292D01*
X78828744Y-66373292D01*
X78828744Y-69673291D01*
G37*
%TD.AperFunction*%
%TA.AperFunction,Profile*%
G36*
X80993901Y-126758592D02*
G01*
X77193898Y-126758592D01*
X77193898Y-123458596D01*
X80993901Y-123458596D01*
X80993901Y-126758592D01*
G37*
%TD.AperFunction*%
%TA.AperFunction,Profile*%
G36*
X83304902Y-88705918D02*
G01*
X79504903Y-88705918D01*
X79504903Y-85405923D01*
X83304902Y-85405923D01*
X83304902Y-88705918D01*
G37*
%TD.AperFunction*%
%TA.AperFunction,Profile*%
G36*
X88283105Y-50640651D02*
G01*
X84483106Y-50640651D01*
X84483106Y-47340650D01*
X88283105Y-47340650D01*
X88283105Y-50640651D01*
G37*
%TD.AperFunction*%
%TA.AperFunction,Profile*%
G36*
X88306863Y-25057146D02*
G01*
X84506864Y-25057146D01*
X84506864Y-21757146D01*
X88306863Y-21757146D01*
X88306863Y-25057146D01*
G37*
%TD.AperFunction*%
%TA.AperFunction,Profile*%
G36*
X93289193Y-107747056D02*
G01*
X89489198Y-107747056D01*
X89489198Y-104447053D01*
X93289193Y-104447053D01*
X93289193Y-107747056D01*
G37*
%TD.AperFunction*%
%TA.AperFunction,Profile*%
G36*
X97799699Y-69673291D02*
G01*
X93999696Y-69673291D01*
X93999696Y-66373292D01*
X97799699Y-66373292D01*
X97799699Y-69673291D01*
G37*
%TD.AperFunction*%
%TA.AperFunction,Profile*%
G36*
X102275857Y-88705918D02*
G01*
X98475854Y-88705918D01*
X98475854Y-85405923D01*
X102275857Y-85405923D01*
X102275857Y-88705918D01*
G37*
%TD.AperFunction*%
%TA.AperFunction,Profile*%
G36*
X107259461Y-25057146D02*
G01*
X103459458Y-25057146D01*
X103459458Y-21757146D01*
X107259461Y-21757146D01*
X107259461Y-25057146D01*
G37*
%TD.AperFunction*%
%TA.AperFunction,Profile*%
G36*
X107298402Y-50640651D02*
G01*
X103498399Y-50640651D01*
X103498399Y-47340650D01*
X107298402Y-47340650D01*
X107298402Y-50640651D01*
G37*
%TD.AperFunction*%
%TA.AperFunction,Profile*%
G36*
X112260156Y-107747056D02*
G01*
X108460153Y-107747056D01*
X108460153Y-104447053D01*
X112260156Y-104447053D01*
X112260156Y-107747056D01*
G37*
%TD.AperFunction*%
%TA.AperFunction,Profile*%
G36*
X116814996Y-69673291D02*
G01*
X113014993Y-69673291D01*
X113014993Y-66373292D01*
X116814996Y-66373292D01*
X116814996Y-69673291D01*
G37*
%TD.AperFunction*%
%TA.AperFunction,Profile*%
G36*
X121312341Y-88705918D02*
G01*
X117512338Y-88705918D01*
X117512338Y-85405923D01*
X121312341Y-85405923D01*
X121312341Y-88705918D01*
G37*
%TD.AperFunction*%
%TA.AperFunction,Profile*%
G36*
X126299142Y-25057146D02*
G01*
X122499139Y-25057146D01*
X122499139Y-21757146D01*
X126299142Y-21757146D01*
X126299142Y-25057146D01*
G37*
%TD.AperFunction*%
%TA.AperFunction,Profile*%
G36*
X126306542Y-50640651D02*
G01*
X122506539Y-50640651D01*
X122506539Y-47340650D01*
X126306542Y-47340650D01*
X126306542Y-50640651D01*
G37*
%TD.AperFunction*%
%TA.AperFunction,Profile*%
G36*
X131296639Y-107747056D02*
G01*
X127496636Y-107747056D01*
X127496636Y-104447053D01*
X131296639Y-104447053D01*
X131296639Y-107747056D01*
G37*
%TD.AperFunction*%
%TA.AperFunction,Profile*%
G36*
X135844331Y-69673291D02*
G01*
X132044328Y-69673291D01*
X132044328Y-66373292D01*
X135844331Y-66373292D01*
X135844331Y-69673291D01*
G37*
%TD.AperFunction*%
%TA.AperFunction,Profile*%
G36*
X140299294Y-88705918D02*
G01*
X136499291Y-88705918D01*
X136499291Y-85405923D01*
X140299294Y-85405923D01*
X140299294Y-88705918D01*
G37*
%TD.AperFunction*%
%TA.AperFunction,Profile*%
G36*
X145289102Y-50640651D02*
G01*
X141489106Y-50640651D01*
X141489106Y-47340650D01*
X145289102Y-47340650D01*
X145289102Y-50640651D01*
G37*
%TD.AperFunction*%
%TA.AperFunction,Profile*%
G36*
X150283578Y-107747056D02*
G01*
X146483582Y-107747056D01*
X146483582Y-104447053D01*
X150283578Y-104447053D01*
X150283578Y-107747056D01*
G37*
%TD.AperFunction*%
%TA.AperFunction,Profile*%
G36*
X152281533Y-126758592D02*
G01*
X148481530Y-126758592D01*
X148481530Y-123458596D01*
X152281533Y-123458596D01*
X152281533Y-126758592D01*
G37*
%TD.AperFunction*%
%TA.AperFunction,Profile*%
G36*
X154724038Y-25057146D02*
G01*
X150924035Y-25057146D01*
X150924035Y-21757146D01*
X154724038Y-21757146D01*
X154724038Y-25057146D01*
G37*
%TD.AperFunction*%
%TA.AperFunction,Profile*%
G36*
X154784509Y-69673291D02*
G01*
X150984506Y-69673291D01*
X150984506Y-66373292D01*
X154784509Y-66373292D01*
X154784509Y-69673291D01*
G37*
%TD.AperFunction*%
%TA.AperFunction,Profile*%
G36*
X159281854Y-88705918D02*
G01*
X155481851Y-88705918D01*
X155481851Y-85405923D01*
X159281854Y-85405923D01*
X159281854Y-88705918D01*
G37*
%TD.AperFunction*%
%TA.AperFunction,Profile*%
G36*
X164238870Y-50640651D02*
G01*
X160438867Y-50640651D01*
X160438867Y-47340650D01*
X164238870Y-47340650D01*
X164238870Y-50640651D01*
G37*
%TD.AperFunction*%
%TA.AperFunction,Profile*%
G36*
X169266137Y-107747056D02*
G01*
X165466149Y-107747056D01*
X165466149Y-104447053D01*
X169266137Y-104447053D01*
X169266137Y-107747056D01*
G37*
%TD.AperFunction*%
%TA.AperFunction,Profile*%
G36*
X173714608Y-25057146D02*
G01*
X169914620Y-25057146D01*
X169914620Y-21757146D01*
X173714608Y-21757146D01*
X173714608Y-25057146D01*
G37*
%TD.AperFunction*%
%TA.AperFunction,Profile*%
G36*
X173755456Y-69673291D02*
G01*
X169955453Y-69673291D01*
X169955453Y-66373292D01*
X173755456Y-66373292D01*
X173755456Y-69673291D01*
G37*
%TD.AperFunction*%
%TA.AperFunction,Profile*%
G36*
X178273995Y-88705918D02*
G01*
X174473992Y-88705918D01*
X174473992Y-85405923D01*
X178273995Y-85405923D01*
X178273995Y-88705918D01*
G37*
%TD.AperFunction*%
%TA.AperFunction,Profile*%
G36*
X183188638Y-50640651D02*
G01*
X179388635Y-50640651D01*
X179388635Y-47340650D01*
X183188638Y-47340650D01*
X183188638Y-50640651D01*
G37*
%TD.AperFunction*%
%TA.AperFunction,Profile*%
G36*
X188258294Y-107747056D02*
G01*
X184458306Y-107747056D01*
X184458306Y-104447053D01*
X188258294Y-104447053D01*
X188258294Y-107747056D01*
G37*
%TD.AperFunction*%
%TA.AperFunction,Profile*%
G36*
X192709588Y-25057146D02*
G01*
X188909600Y-25057146D01*
X188909600Y-21757146D01*
X192709588Y-21757146D01*
X192709588Y-25057146D01*
G37*
%TD.AperFunction*%
%TA.AperFunction,Profile*%
G36*
X192747613Y-69673291D02*
G01*
X188947610Y-69673291D01*
X188947610Y-66373292D01*
X192747613Y-66373292D01*
X192747613Y-69673291D01*
G37*
%TD.AperFunction*%
%TA.AperFunction,Profile*%
G36*
X197223779Y-88705918D02*
G01*
X193423776Y-88705918D01*
X193423776Y-85405923D01*
X197223779Y-85405923D01*
X197223779Y-88705918D01*
G37*
%TD.AperFunction*%
%TA.AperFunction,Profile*%
G36*
X202203927Y-50640651D02*
G01*
X198403939Y-50640651D01*
X198403939Y-47340650D01*
X202203927Y-47340650D01*
X202203927Y-50640651D01*
G37*
%TD.AperFunction*%
%TA.AperFunction,Profile*%
G36*
X207229241Y-107747056D02*
G01*
X203429254Y-107747056D01*
X203429254Y-104447053D01*
X207229241Y-104447053D01*
X207229241Y-107747056D01*
G37*
%TD.AperFunction*%
%TA.AperFunction,Profile*%
G36*
X211664514Y-25057146D02*
G01*
X207864510Y-25057146D01*
X207864510Y-21757146D01*
X211664514Y-21757146D01*
X211664514Y-25057146D01*
G37*
%TD.AperFunction*%
%TA.AperFunction,Profile*%
G36*
X211720513Y-69673291D02*
G01*
X207920510Y-69673291D01*
X207920510Y-66373292D01*
X211720513Y-66373292D01*
X211720513Y-69673291D01*
G37*
%TD.AperFunction*%
%TA.AperFunction,Profile*%
G36*
X216196679Y-88705918D02*
G01*
X212396676Y-88705918D01*
X212396676Y-85405923D01*
X216196679Y-85405923D01*
X216196679Y-88705918D01*
G37*
%TD.AperFunction*%
%TA.AperFunction,Profile*%
G36*
X218159722Y-113672242D02*
G01*
X215159722Y-113672242D01*
X215159722Y-108472245D01*
X218159722Y-108472245D01*
X218159722Y-113672242D01*
G37*
%TD.AperFunction*%
%TA.AperFunction,Profile*%
G36*
X221212060Y-50640651D02*
G01*
X217412072Y-50640651D01*
X217412072Y-47340650D01*
X221212060Y-47340650D01*
X221212060Y-50640651D01*
G37*
%TD.AperFunction*%
%TA.AperFunction,Profile*%
G36*
X223500268Y-126758592D02*
G01*
X219700280Y-126758592D01*
X219700280Y-123458596D01*
X223500268Y-123458596D01*
X223500268Y-126758592D01*
G37*
%TD.AperFunction*%
%TA.AperFunction,Profile*%
G36*
X226202157Y-107747056D02*
G01*
X222402154Y-107747056D01*
X222402154Y-104447053D01*
X226202157Y-104447053D01*
X226202157Y-107747056D01*
G37*
%TD.AperFunction*%
%TA.AperFunction,Profile*%
G36*
X230749856Y-69673291D02*
G01*
X226949868Y-69673291D01*
X226949868Y-66373292D01*
X230749856Y-66373292D01*
X230749856Y-69673291D01*
G37*
%TD.AperFunction*%
%TA.AperFunction,Profile*%
G36*
X235247186Y-88705918D02*
G01*
X231447198Y-88705918D01*
X231447198Y-85405923D01*
X235247186Y-85405923D01*
X235247186Y-88705918D01*
G37*
%TD.AperFunction*%
%TA.AperFunction,Profile*%
G36*
X240194634Y-50640651D02*
G01*
X236394631Y-50640651D01*
X236394631Y-47340650D01*
X240194634Y-47340650D01*
X240194634Y-50640651D01*
G37*
%TD.AperFunction*%
%TA.AperFunction,Profile*%
G36*
X240227242Y-25057146D02*
G01*
X236427255Y-25057146D01*
X236427255Y-21757146D01*
X240227242Y-21757146D01*
X240227242Y-25057146D01*
G37*
%TD.AperFunction*%
%TA.AperFunction,Profile*%
G36*
X245273873Y-107747056D02*
G01*
X241473885Y-107747056D01*
X241473885Y-104447053D01*
X245273873Y-104447053D01*
X245273873Y-107747056D01*
G37*
%TD.AperFunction*%
%TA.AperFunction,Profile*%
G36*
X247297784Y-126758592D02*
G01*
X243497781Y-126758592D01*
X243497781Y-123458596D01*
X247297784Y-123458596D01*
X247297784Y-126758592D01*
G37*
%TD.AperFunction*%
%TA.AperFunction,Profile*%
G36*
X249732415Y-69673291D02*
G01*
X245932427Y-69673291D01*
X245932427Y-66373292D01*
X249732415Y-66373292D01*
X249732415Y-69673291D01*
G37*
%TD.AperFunction*%
%TA.AperFunction,Profile*%
G36*
X254272149Y-88705918D02*
G01*
X250472146Y-88705918D01*
X250472146Y-85405923D01*
X254272149Y-85405923D01*
X254272149Y-88705918D01*
G37*
%TD.AperFunction*%
%TA.AperFunction,Profile*%
G36*
X259220406Y-25057146D02*
G01*
X255420403Y-25057146D01*
X255420403Y-21757146D01*
X259220406Y-21757146D01*
X259220406Y-25057146D01*
G37*
%TD.AperFunction*%
%TA.AperFunction,Profile*%
G36*
X259264275Y-50640651D02*
G01*
X255464288Y-50640651D01*
X255464288Y-47340650D01*
X259264275Y-47340650D01*
X259264275Y-50640651D01*
G37*
%TD.AperFunction*%
%TA.AperFunction,Profile*%
G36*
X268759683Y-69673291D02*
G01*
X264959680Y-69673291D01*
X264959680Y-66373292D01*
X268759683Y-66373292D01*
X268759683Y-69673291D01*
G37*
%TD.AperFunction*%
%TA.AperFunction,Profile*%
G36*
X271040490Y-126758592D02*
G01*
X267240487Y-126758592D01*
X267240487Y-123458596D01*
X271040490Y-123458596D01*
X271040490Y-126758592D01*
G37*
%TD.AperFunction*%
%TA.AperFunction,Profile*%
G36*
X272980462Y-88705918D02*
G01*
X269180474Y-88705918D01*
X269180474Y-85405923D01*
X272980462Y-85405923D01*
X272980462Y-88705918D01*
G37*
%TD.AperFunction*%
%TA.AperFunction,Profile*%
G36*
X278217965Y-25057146D02*
G01*
X274417962Y-25057146D01*
X274417962Y-21757146D01*
X278217965Y-21757146D01*
X278217965Y-25057146D01*
G37*
%TD.AperFunction*%
%TA.AperFunction,Profile*%
G36*
X280748696Y-107747056D02*
G01*
X276948708Y-107747056D01*
X276948708Y-104447053D01*
X280748696Y-104447053D01*
X280748696Y-107747056D01*
G37*
%TD.AperFunction*%
%TA.AperFunction,Profile*%
G36*
X287739724Y-50640651D02*
G01*
X283939706Y-50640651D01*
X283939706Y-47340650D01*
X287739724Y-47340650D01*
X287739724Y-50640651D01*
G37*
%TD.AperFunction*%
%TA.AperFunction,Profile*%
G36*
X294442605Y-79058930D02*
G01*
X290642617Y-79058930D01*
X290642617Y-75758927D01*
X294442605Y-75758927D01*
X294442605Y-79058930D01*
G37*
%TD.AperFunction*%
%TA.AperFunction,Profile*%
G36*
X294778024Y-126758592D02*
G01*
X290978036Y-126758592D01*
X290978036Y-123458596D01*
X294778024Y-123458596D01*
X294778024Y-126758592D01*
G37*
%TD.AperFunction*%
%TA.AperFunction,Profile*%
G36*
X297227639Y-25057146D02*
G01*
X293427651Y-25057146D01*
X293427651Y-21757146D01*
X297227639Y-21757146D01*
X297227639Y-25057146D01*
G37*
%TD.AperFunction*%
%TA.AperFunction,Profile*%
G36*
X322702310Y-25057146D02*
G01*
X318902322Y-25057146D01*
X318902322Y-21757146D01*
X322702310Y-21757146D01*
X322702310Y-25057146D01*
G37*
%TD.AperFunction*%
%TA.AperFunction,Profile*%
G36*
X322722115Y-50640651D02*
G01*
X318922128Y-50640651D01*
X318922128Y-47340650D01*
X322722115Y-47340650D01*
X322722115Y-50640651D01*
G37*
%TD.AperFunction*%
%TA.AperFunction,Profile*%
G36*
X322747292Y-69673291D02*
G01*
X318947305Y-69673291D01*
X318947305Y-66373292D01*
X322747292Y-66373292D01*
X322747292Y-69673291D01*
G37*
%TD.AperFunction*%
%TA.AperFunction,Profile*%
G36*
X322789712Y-126758569D02*
G01*
X318989724Y-126758569D01*
X318989724Y-123458573D01*
X322789712Y-123458573D01*
X322789712Y-126758569D01*
G37*
%TD.AperFunction*%
%TA.AperFunction,Profile*%
G36*
X333633828Y-75621858D02*
G01*
X330633798Y-75621858D01*
X330633798Y-70421857D01*
X333633828Y-70421857D01*
X333633828Y-75621858D01*
G37*
%TD.AperFunction*%
%TA.AperFunction,Profile*%
G36*
X341650521Y-25057146D02*
G01*
X337850503Y-25057146D01*
X337850503Y-21757146D01*
X341650521Y-21757146D01*
X341650521Y-25057146D01*
G37*
%TD.AperFunction*%
%TA.AperFunction,Profile*%
G36*
X341687478Y-69673291D02*
G01*
X337887490Y-69673291D01*
X337887490Y-66373292D01*
X341687478Y-66373292D01*
X341687478Y-69673291D01*
G37*
%TD.AperFunction*%
%TA.AperFunction,Profile*%
G36*
X341704659Y-50640651D02*
G01*
X337904672Y-50640651D01*
X337904672Y-47340650D01*
X341704659Y-47340650D01*
X341704659Y-50640651D01*
G37*
%TD.AperFunction*%
%TA.AperFunction,Profile*%
G36*
X341729867Y-126758569D02*
G01*
X337929879Y-126758569D01*
X337929879Y-123458573D01*
X341729867Y-123458573D01*
X341729867Y-126758569D01*
G37*
%TD.AperFunction*%
%TA.AperFunction,Profile*%
G36*
X341747079Y-107746568D02*
G01*
X337947091Y-107746568D01*
X337947091Y-104446572D01*
X341747079Y-104446572D01*
X341747079Y-107746568D01*
G37*
%TD.AperFunction*%
%TA.AperFunction,Profile*%
G36*
X360714761Y-69673291D02*
G01*
X356914773Y-69673291D01*
X356914773Y-66373292D01*
X360714761Y-66373292D01*
X360714761Y-69673291D01*
G37*
%TD.AperFunction*%
%TA.AperFunction,Profile*%
G36*
X360723031Y-25057146D02*
G01*
X356923013Y-25057146D01*
X356923013Y-21757146D01*
X360723031Y-21757146D01*
X360723031Y-25057146D01*
G37*
%TD.AperFunction*%
%TA.AperFunction,Profile*%
G36*
X360731973Y-50640651D02*
G01*
X356931985Y-50640651D01*
X356931985Y-47340650D01*
X360731973Y-47340650D01*
X360731973Y-50640651D01*
G37*
%TD.AperFunction*%
%TA.AperFunction,Profile*%
G36*
X360757119Y-126758569D02*
G01*
X356957131Y-126758569D01*
X356957131Y-123458573D01*
X360757119Y-123458573D01*
X360757119Y-126758569D01*
G37*
%TD.AperFunction*%
%TA.AperFunction,Profile*%
G36*
X385884499Y-50640651D02*
G01*
X382084512Y-50640651D01*
X382084512Y-47340650D01*
X385884499Y-47340650D01*
X385884499Y-50640651D01*
G37*
%TD.AperFunction*%
%TA.AperFunction,Profile*%
G36*
X385884499Y-69673306D02*
G01*
X382084512Y-69673306D01*
X382084512Y-66373307D01*
X385884499Y-66373307D01*
X385884499Y-69673306D01*
G37*
%TD.AperFunction*%
%TA.AperFunction,Profile*%
G36*
X385884499Y-88705987D02*
G01*
X382084512Y-88705987D01*
X382084512Y-85405984D01*
X385884499Y-85405984D01*
X385884499Y-88705987D01*
G37*
%TD.AperFunction*%
%TA.AperFunction,Profile*%
G36*
X385884499Y-107747064D02*
G01*
X382084512Y-107747064D01*
X382084512Y-104447061D01*
X385884499Y-104447061D01*
X385884499Y-107747064D01*
G37*
%TD.AperFunction*%
%TA.AperFunction,Profile*%
G36*
X395381844Y-126699044D02*
G01*
X391581857Y-126699044D01*
X391581857Y-123399049D01*
X395381844Y-123399049D01*
X395381844Y-126699044D01*
G37*
%TD.AperFunction*%
%TA.AperFunction,Profile*%
G36*
X395928353Y-35495336D02*
G01*
X392128365Y-35495336D01*
X392128365Y-32195334D01*
X395928353Y-32195334D01*
X395928353Y-35495336D01*
G37*
%TD.AperFunction*%
%TA.AperFunction,Profile*%
G36*
X404849740Y-50640651D02*
G01*
X401049752Y-50640651D01*
X401049752Y-47340650D01*
X404849740Y-47340650D01*
X404849740Y-50640651D01*
G37*
%TD.AperFunction*%
%TA.AperFunction,Profile*%
G36*
X404849740Y-69673306D02*
G01*
X401049752Y-69673306D01*
X401049752Y-66373307D01*
X404849740Y-66373307D01*
X404849740Y-69673306D01*
G37*
%TD.AperFunction*%
%TA.AperFunction,Profile*%
G36*
X404849740Y-88705987D02*
G01*
X401049752Y-88705987D01*
X401049752Y-85405984D01*
X404849740Y-85405984D01*
X404849740Y-88705987D01*
G37*
%TD.AperFunction*%
%TA.AperFunction,Profile*%
G36*
X404849740Y-107747064D02*
G01*
X401049752Y-107747064D01*
X401049752Y-104447061D01*
X404849740Y-104447061D01*
X404849740Y-107747064D01*
G37*
%TD.AperFunction*%
%TA.AperFunction,Profile*%
G36*
X414931008Y-35495336D02*
G01*
X411131020Y-35495336D01*
X411131020Y-32195334D01*
X414931008Y-32195334D01*
X414931008Y-35495336D01*
G37*
%TD.AperFunction*%
%TA.AperFunction,Profile*%
G36*
X416111581Y-94517556D02*
G01*
X413111581Y-94517556D01*
X413111581Y-89317559D01*
X416111581Y-89317559D01*
X416111581Y-94517556D01*
G37*
%TD.AperFunction*%
%TA.AperFunction,Profile*%
G36*
X423814980Y-50640651D02*
G01*
X420014962Y-50640651D01*
X420014962Y-47340650D01*
X423814980Y-47340650D01*
X423814980Y-50640651D01*
G37*
%TD.AperFunction*%
%TA.AperFunction,Profile*%
G36*
X423814980Y-69673306D02*
G01*
X420014962Y-69673306D01*
X420014962Y-66373307D01*
X423814980Y-66373307D01*
X423814980Y-69673306D01*
G37*
%TD.AperFunction*%
%TA.AperFunction,Profile*%
G36*
X423814980Y-88705987D02*
G01*
X420014962Y-88705987D01*
X420014962Y-85405984D01*
X423814980Y-85405984D01*
X423814980Y-88705987D01*
G37*
%TD.AperFunction*%
%TA.AperFunction,Profile*%
G36*
X423814980Y-107747064D02*
G01*
X420014962Y-107747064D01*
X420014962Y-104447061D01*
X423814980Y-104447061D01*
X423814980Y-107747064D01*
G37*
%TD.AperFunction*%
%TA.AperFunction,Profile*%
G36*
X423829659Y-126699044D02*
G01*
X420029672Y-126699044D01*
X420029672Y-123399049D01*
X423829659Y-123399049D01*
X423829659Y-126699044D01*
G37*
%TD.AperFunction*%
%TA.AperFunction,Profile*%
G36*
X433798684Y-35495336D02*
G01*
X429998696Y-35495336D01*
X429998696Y-32195334D01*
X433798684Y-32195334D01*
X433798684Y-35495336D01*
G37*
%TD.AperFunction*%
%TA.AperFunction,Profile*%
G36*
X442780190Y-50640651D02*
G01*
X438980203Y-50640651D01*
X438980203Y-47340650D01*
X442780190Y-47340650D01*
X442780190Y-50640651D01*
G37*
%TD.AperFunction*%
%TA.AperFunction,Profile*%
G36*
X442780190Y-78945905D02*
G01*
X438980203Y-78945905D01*
X438980203Y-75645902D01*
X442780190Y-75645902D01*
X442780190Y-78945905D01*
G37*
%TD.AperFunction*%
%TA.AperFunction,Profile*%
G36*
X442780190Y-117024728D02*
G01*
X438980203Y-117024728D01*
X438980203Y-113724725D01*
X442780190Y-113724725D01*
X442780190Y-117024728D01*
G37*
%TD.AperFunction*%
%TA.AperFunction,Profile*%
G36*
X23891886Y-89447495D02*
G01*
X23983292Y-89454446D01*
X24073370Y-89465892D01*
X24162005Y-89481721D01*
X24249085Y-89501819D01*
X24334496Y-89526073D01*
X24418127Y-89554370D01*
X24499863Y-89586598D01*
X24579591Y-89622642D01*
X24657199Y-89662390D01*
X24732573Y-89705730D01*
X24805600Y-89752546D01*
X24876167Y-89802728D01*
X24944161Y-89856161D01*
X25009470Y-89912732D01*
X25071979Y-89972329D01*
X25131575Y-90034838D01*
X25188147Y-90100146D01*
X25241580Y-90168141D01*
X25291761Y-90238708D01*
X25338578Y-90311735D01*
X25381917Y-90387109D01*
X25421666Y-90464717D01*
X25457710Y-90544445D01*
X25489938Y-90626181D01*
X25518235Y-90709811D01*
X25542489Y-90795222D01*
X25562587Y-90882302D01*
X25578416Y-90970937D01*
X25589862Y-91061014D01*
X25596812Y-91152420D01*
X25599154Y-91245042D01*
X25596812Y-91337664D01*
X25589862Y-91429071D01*
X25578416Y-91519148D01*
X25562587Y-91607784D01*
X25542489Y-91694864D01*
X25518235Y-91780276D01*
X25489938Y-91863906D01*
X25457710Y-91945642D01*
X25421666Y-92025370D01*
X25381917Y-92102978D01*
X25338578Y-92178352D01*
X25291761Y-92251379D01*
X25241580Y-92321946D01*
X25188147Y-92389941D01*
X25131575Y-92455249D01*
X25071979Y-92517757D01*
X25009470Y-92577354D01*
X24944161Y-92633925D01*
X24876167Y-92687358D01*
X24805600Y-92737539D01*
X24732573Y-92784356D01*
X24657199Y-92827695D01*
X24579591Y-92867443D01*
X24499863Y-92903487D01*
X24418127Y-92935714D01*
X24334496Y-92964012D01*
X24249085Y-92988266D01*
X24162005Y-93008363D01*
X24073370Y-93024192D01*
X23983292Y-93035638D01*
X23891886Y-93042588D01*
X23799264Y-93044930D01*
X23706642Y-93042588D01*
X23615236Y-93035638D01*
X23525159Y-93024192D01*
X23436523Y-93008363D01*
X23349444Y-92988266D01*
X23264032Y-92964012D01*
X23180402Y-92935714D01*
X23098666Y-92903487D01*
X23018937Y-92867443D01*
X22941330Y-92827695D01*
X22865956Y-92784356D01*
X22792928Y-92737539D01*
X22722361Y-92687358D01*
X22654367Y-92633925D01*
X22589059Y-92577354D01*
X22526550Y-92517757D01*
X22466953Y-92455249D01*
X22410381Y-92389941D01*
X22356948Y-92321946D01*
X22306767Y-92251379D01*
X22259950Y-92178352D01*
X22216611Y-92102978D01*
X22176863Y-92025370D01*
X22140818Y-91945642D01*
X22108591Y-91863906D01*
X22080293Y-91780276D01*
X22056039Y-91694864D01*
X22035941Y-91607784D01*
X22020113Y-91519148D01*
X22008667Y-91429071D01*
X22001716Y-91337664D01*
X21999374Y-91245042D01*
X22001716Y-91152420D01*
X22008667Y-91061014D01*
X22020113Y-90970937D01*
X22035941Y-90882302D01*
X22056039Y-90795222D01*
X22080293Y-90709811D01*
X22108591Y-90626181D01*
X22140818Y-90544445D01*
X22176863Y-90464717D01*
X22216611Y-90387109D01*
X22259950Y-90311735D01*
X22306767Y-90238708D01*
X22356948Y-90168141D01*
X22410381Y-90100146D01*
X22466953Y-90034838D01*
X22526550Y-89972329D01*
X22589059Y-89912732D01*
X22654367Y-89856161D01*
X22722361Y-89802728D01*
X22792928Y-89752546D01*
X22865956Y-89705730D01*
X22941330Y-89662390D01*
X23018937Y-89622642D01*
X23098666Y-89586598D01*
X23180402Y-89554370D01*
X23264032Y-89526073D01*
X23349444Y-89501819D01*
X23436523Y-89481721D01*
X23525159Y-89465892D01*
X23615236Y-89454446D01*
X23706642Y-89447495D01*
X23799264Y-89445153D01*
X23891886Y-89447495D01*
G37*
%TD.AperFunction*%
%TA.AperFunction,Profile*%
G36*
X25901575Y-97799674D02*
G01*
X26072710Y-97812687D01*
X26241356Y-97834117D01*
X26407302Y-97863752D01*
X26570337Y-97901380D01*
X26730248Y-97946790D01*
X26886824Y-97999770D01*
X27039853Y-98060107D01*
X27189123Y-98127591D01*
X27334424Y-98202010D01*
X27475542Y-98283151D01*
X27612266Y-98370804D01*
X27744385Y-98464756D01*
X27871687Y-98564795D01*
X27993959Y-98670711D01*
X28110991Y-98782290D01*
X28222571Y-98899323D01*
X28328486Y-99021595D01*
X28428525Y-99148897D01*
X28522477Y-99281016D01*
X28610129Y-99417740D01*
X28691270Y-99558859D01*
X28765689Y-99704159D01*
X28833172Y-99853430D01*
X28893510Y-100006459D01*
X28946489Y-100163035D01*
X28991899Y-100322946D01*
X29029527Y-100485980D01*
X29059162Y-100651926D01*
X29080592Y-100820572D01*
X29093605Y-100991706D01*
X29097990Y-101165116D01*
X29093605Y-101338527D01*
X29080592Y-101509661D01*
X29059162Y-101678307D01*
X29029527Y-101844253D01*
X28991899Y-102007287D01*
X28946489Y-102167198D01*
X28893510Y-102323774D01*
X28833172Y-102476803D01*
X28765689Y-102626074D01*
X28691270Y-102771374D01*
X28610129Y-102912492D01*
X28522477Y-103049217D01*
X28428525Y-103181336D01*
X28328486Y-103308637D01*
X28222571Y-103430910D01*
X28110991Y-103547942D01*
X27993959Y-103659522D01*
X27871687Y-103765437D01*
X27744385Y-103865477D01*
X27612266Y-103959429D01*
X27475542Y-104047081D01*
X27334424Y-104128223D01*
X27189123Y-104202641D01*
X27039853Y-104270125D01*
X26886824Y-104330463D01*
X26730248Y-104383442D01*
X26570337Y-104428852D01*
X26407302Y-104466480D01*
X26241356Y-104496115D01*
X26072710Y-104517545D01*
X25901575Y-104530559D01*
X25728165Y-104534944D01*
X25554754Y-104530559D01*
X25383620Y-104517545D01*
X25214973Y-104496115D01*
X25049027Y-104466480D01*
X24885993Y-104428852D01*
X24726082Y-104383442D01*
X24569506Y-104330463D01*
X24416477Y-104270125D01*
X24267206Y-104202641D01*
X24121906Y-104128223D01*
X23980788Y-104047081D01*
X23844063Y-103959429D01*
X23711944Y-103865477D01*
X23584643Y-103765437D01*
X23462370Y-103659522D01*
X23345338Y-103547942D01*
X23233759Y-103430910D01*
X23127844Y-103308637D01*
X23027804Y-103181336D01*
X22933853Y-103049217D01*
X22846200Y-102912492D01*
X22765059Y-102771374D01*
X22690641Y-102626074D01*
X22623157Y-102476803D01*
X22562819Y-102323774D01*
X22509840Y-102167198D01*
X22464430Y-102007287D01*
X22426802Y-101844253D01*
X22397167Y-101678307D01*
X22375737Y-101509661D01*
X22362724Y-101338527D01*
X22358339Y-101165116D01*
X22362724Y-100991706D01*
X22375737Y-100820572D01*
X22397167Y-100651926D01*
X22426802Y-100485980D01*
X22464430Y-100322946D01*
X22509840Y-100163035D01*
X22562819Y-100006459D01*
X22623157Y-99853430D01*
X22690641Y-99704159D01*
X22765059Y-99558859D01*
X22846200Y-99417740D01*
X22933853Y-99281016D01*
X23027804Y-99148897D01*
X23127844Y-99021595D01*
X23233759Y-98899323D01*
X23345338Y-98782290D01*
X23462370Y-98670711D01*
X23584643Y-98564795D01*
X23711944Y-98464756D01*
X23844063Y-98370804D01*
X23980788Y-98283151D01*
X24121906Y-98202010D01*
X24267206Y-98127591D01*
X24416477Y-98060107D01*
X24569506Y-97999770D01*
X24726082Y-97946790D01*
X24885993Y-97901380D01*
X25049027Y-97863752D01*
X25214973Y-97834117D01*
X25383620Y-97812687D01*
X25554754Y-97799674D01*
X25728165Y-97795289D01*
X25901575Y-97799674D01*
G37*
%TD.AperFunction*%
%TA.AperFunction,Profile*%
G36*
X29713597Y-39493914D02*
G01*
X29805003Y-39500865D01*
X29895080Y-39512311D01*
X29983715Y-39528140D01*
X30070795Y-39548238D01*
X30156206Y-39572492D01*
X30239837Y-39600789D01*
X30321572Y-39633017D01*
X30401301Y-39669061D01*
X30478908Y-39708809D01*
X30554282Y-39752148D01*
X30627310Y-39798965D01*
X30697877Y-39849147D01*
X30765871Y-39902580D01*
X30831179Y-39959151D01*
X30893688Y-40018748D01*
X30953285Y-40081257D01*
X31009857Y-40146565D01*
X31063290Y-40214559D01*
X31113471Y-40285127D01*
X31160288Y-40358154D01*
X31203627Y-40433528D01*
X31243375Y-40511136D01*
X31279420Y-40590864D01*
X31311647Y-40672600D01*
X31339945Y-40756230D01*
X31364199Y-40841642D01*
X31384297Y-40928722D01*
X31400125Y-41017357D01*
X31411571Y-41107434D01*
X31418522Y-41198841D01*
X31420864Y-41291463D01*
X31418522Y-41384085D01*
X31411571Y-41475491D01*
X31400125Y-41565569D01*
X31384297Y-41654204D01*
X31364199Y-41741284D01*
X31339945Y-41826696D01*
X31311647Y-41910326D01*
X31279420Y-41992062D01*
X31243375Y-42071790D01*
X31203627Y-42149398D01*
X31160288Y-42224772D01*
X31113471Y-42297799D01*
X31063290Y-42368366D01*
X31009857Y-42436361D01*
X30953285Y-42501669D01*
X30893688Y-42564178D01*
X30831179Y-42623775D01*
X30765871Y-42680346D01*
X30697877Y-42733779D01*
X30627310Y-42783961D01*
X30554282Y-42830777D01*
X30478908Y-42874117D01*
X30401301Y-42913865D01*
X30321572Y-42949909D01*
X30239837Y-42982137D01*
X30156206Y-43010434D01*
X30070795Y-43034688D01*
X29983715Y-43054786D01*
X29895080Y-43070615D01*
X29805003Y-43082061D01*
X29713597Y-43089011D01*
X29620974Y-43091353D01*
X29528352Y-43089011D01*
X29436946Y-43082061D01*
X29346869Y-43070615D01*
X29258234Y-43054786D01*
X29171154Y-43034688D01*
X29085742Y-43010434D01*
X29002112Y-42982137D01*
X28920376Y-42949909D01*
X28840647Y-42913865D01*
X28763040Y-42874117D01*
X28687666Y-42830777D01*
X28614639Y-42783961D01*
X28544071Y-42733779D01*
X28476077Y-42680346D01*
X28410769Y-42623775D01*
X28348260Y-42564178D01*
X28288663Y-42501669D01*
X28232092Y-42436361D01*
X28178659Y-42368366D01*
X28128477Y-42297799D01*
X28081660Y-42224772D01*
X28038321Y-42149398D01*
X27998573Y-42071790D01*
X27962529Y-41992062D01*
X27930301Y-41910326D01*
X27902004Y-41826696D01*
X27877750Y-41741284D01*
X27857652Y-41654204D01*
X27841823Y-41565569D01*
X27830377Y-41475491D01*
X27823426Y-41384085D01*
X27821084Y-41291463D01*
X27823426Y-41198841D01*
X27830377Y-41107434D01*
X27841823Y-41017357D01*
X27857652Y-40928722D01*
X27877750Y-40841642D01*
X27902004Y-40756230D01*
X27930301Y-40672600D01*
X27962529Y-40590864D01*
X27998573Y-40511136D01*
X28038321Y-40433528D01*
X28081660Y-40358154D01*
X28128477Y-40285127D01*
X28178659Y-40214559D01*
X28232092Y-40146565D01*
X28288663Y-40081257D01*
X28348260Y-40018748D01*
X28410769Y-39959151D01*
X28476077Y-39902580D01*
X28544071Y-39849147D01*
X28614639Y-39798965D01*
X28687666Y-39752148D01*
X28763040Y-39708809D01*
X28840647Y-39669061D01*
X28920376Y-39633017D01*
X29002112Y-39600789D01*
X29085742Y-39572492D01*
X29171154Y-39548238D01*
X29258234Y-39528140D01*
X29346869Y-39512311D01*
X29436946Y-39500865D01*
X29528352Y-39493914D01*
X29620974Y-39491572D01*
X29713597Y-39493914D01*
G37*
%TD.AperFunction*%
%TA.AperFunction,Profile*%
G36*
X39323734Y-46656117D02*
G01*
X39494868Y-46669130D01*
X39663514Y-46690560D01*
X39829460Y-46720195D01*
X39992495Y-46757823D01*
X40152406Y-46803233D01*
X40308982Y-46856213D01*
X40462011Y-46916550D01*
X40611281Y-46984034D01*
X40756582Y-47058452D01*
X40897700Y-47139593D01*
X41034424Y-47227246D01*
X41166543Y-47321197D01*
X41293845Y-47421237D01*
X41416117Y-47527152D01*
X41533149Y-47638731D01*
X41644729Y-47755763D01*
X41750644Y-47878036D01*
X41850683Y-48005338D01*
X41944635Y-48137456D01*
X42032287Y-48274181D01*
X42113428Y-48415299D01*
X42187847Y-48560599D01*
X42255331Y-48709870D01*
X42315668Y-48862899D01*
X42368648Y-49019475D01*
X42414057Y-49179386D01*
X42451685Y-49342420D01*
X42481320Y-49508367D01*
X42502750Y-49677013D01*
X42515763Y-49848147D01*
X42520148Y-50021558D01*
X42515763Y-50194969D01*
X42502750Y-50366103D01*
X42481320Y-50534749D01*
X42451685Y-50700695D01*
X42414057Y-50863730D01*
X42368648Y-51023641D01*
X42315668Y-51180217D01*
X42255331Y-51333246D01*
X42187847Y-51482517D01*
X42113428Y-51627817D01*
X42032287Y-51768935D01*
X41944635Y-51905660D01*
X41850683Y-52037779D01*
X41750644Y-52165080D01*
X41644729Y-52287353D01*
X41533149Y-52404385D01*
X41416117Y-52515965D01*
X41293845Y-52621880D01*
X41166543Y-52721919D01*
X41034424Y-52815871D01*
X40897700Y-52903524D01*
X40756582Y-52984665D01*
X40611281Y-53059083D01*
X40462011Y-53126567D01*
X40308982Y-53186905D01*
X40152406Y-53239884D01*
X39992495Y-53285294D01*
X39829460Y-53322922D01*
X39663514Y-53352557D01*
X39494868Y-53373987D01*
X39323734Y-53387000D01*
X39150323Y-53391385D01*
X38976912Y-53387000D01*
X38805778Y-53373987D01*
X38637132Y-53352557D01*
X38471186Y-53322922D01*
X38308151Y-53285294D01*
X38148240Y-53239884D01*
X37991664Y-53186905D01*
X37838635Y-53126567D01*
X37689364Y-53059083D01*
X37544064Y-52984665D01*
X37402946Y-52903524D01*
X37266221Y-52815871D01*
X37134103Y-52721919D01*
X37006801Y-52621880D01*
X36884528Y-52515965D01*
X36767497Y-52404385D01*
X36655917Y-52287353D01*
X36550002Y-52165080D01*
X36449962Y-52037779D01*
X36356011Y-51905660D01*
X36268358Y-51768935D01*
X36187217Y-51627817D01*
X36112799Y-51482517D01*
X36045315Y-51333246D01*
X35984978Y-51180217D01*
X35931998Y-51023641D01*
X35886589Y-50863730D01*
X35848960Y-50700695D01*
X35819325Y-50534749D01*
X35797896Y-50366103D01*
X35784882Y-50194969D01*
X35780497Y-50021558D01*
X35784882Y-49848147D01*
X35797896Y-49677013D01*
X35819325Y-49508367D01*
X35848960Y-49342420D01*
X35886589Y-49179386D01*
X35931998Y-49019475D01*
X35984978Y-48862899D01*
X36045315Y-48709870D01*
X36112799Y-48560599D01*
X36187217Y-48415299D01*
X36268358Y-48274181D01*
X36356011Y-48137456D01*
X36449962Y-48005338D01*
X36550002Y-47878036D01*
X36655917Y-47755763D01*
X36767497Y-47638731D01*
X36884528Y-47527152D01*
X37006801Y-47421237D01*
X37134103Y-47321197D01*
X37266221Y-47227246D01*
X37402946Y-47139593D01*
X37544064Y-47058452D01*
X37689364Y-46984034D01*
X37838635Y-46916550D01*
X37991664Y-46856213D01*
X38148240Y-46803233D01*
X38308151Y-46757823D01*
X38471186Y-46720195D01*
X38637132Y-46690560D01*
X38805778Y-46669130D01*
X38976912Y-46656117D01*
X39150323Y-46651732D01*
X39323734Y-46656117D01*
G37*
%TD.AperFunction*%
%TA.AperFunction,Profile*%
G36*
X43066528Y-123529689D02*
G01*
X43226499Y-123541853D01*
X43384144Y-123561885D01*
X43539265Y-123589587D01*
X43691664Y-123624760D01*
X43841144Y-123667208D01*
X43987506Y-123716731D01*
X44130552Y-123773132D01*
X44270085Y-123836214D01*
X44405907Y-123905778D01*
X44537819Y-123981626D01*
X44665625Y-124063560D01*
X44789125Y-124151383D01*
X44908122Y-124244896D01*
X45022419Y-124343902D01*
X45131816Y-124448203D01*
X45236117Y-124557601D01*
X45335123Y-124671897D01*
X45428636Y-124790894D01*
X45516459Y-124914395D01*
X45598393Y-125042200D01*
X45674241Y-125174113D01*
X45743805Y-125309934D01*
X45806887Y-125449468D01*
X45863288Y-125592514D01*
X45912811Y-125738876D01*
X45955259Y-125888356D01*
X45990432Y-126040756D01*
X46018134Y-126195877D01*
X46038166Y-126353522D01*
X46050330Y-126513493D01*
X46054429Y-126675591D01*
X46050330Y-126837690D01*
X46038166Y-126997660D01*
X46018134Y-127155304D01*
X45990432Y-127310425D01*
X45955259Y-127462824D01*
X45912811Y-127612304D01*
X45863288Y-127758666D01*
X45806887Y-127901712D01*
X45743805Y-128041245D01*
X45674241Y-128177067D01*
X45598393Y-128308980D01*
X45516459Y-128436785D01*
X45428636Y-128560285D01*
X45335123Y-128679283D01*
X45236117Y-128793579D01*
X45131816Y-128902977D01*
X45022419Y-129007278D01*
X44908122Y-129106284D01*
X44789125Y-129199798D01*
X44665625Y-129287621D01*
X44537819Y-129369556D01*
X44405907Y-129445404D01*
X44270085Y-129514968D01*
X44130552Y-129578050D01*
X43987506Y-129634451D01*
X43841144Y-129683975D01*
X43691664Y-129726422D01*
X43539265Y-129761596D01*
X43384144Y-129789298D01*
X43226499Y-129809330D01*
X43066528Y-129821494D01*
X42904429Y-129825593D01*
X42742331Y-129821494D01*
X42582360Y-129809330D01*
X42424716Y-129789298D01*
X42269595Y-129761596D01*
X42117195Y-129726422D01*
X41967716Y-129683975D01*
X41821354Y-129634451D01*
X41678307Y-129578050D01*
X41538774Y-129514968D01*
X41402953Y-129445404D01*
X41271040Y-129369556D01*
X41143235Y-129287621D01*
X41019734Y-129199798D01*
X40900737Y-129106284D01*
X40786441Y-129007278D01*
X40677043Y-128902977D01*
X40572743Y-128793579D01*
X40473737Y-128679283D01*
X40380223Y-128560285D01*
X40292400Y-128436785D01*
X40210466Y-128308980D01*
X40134618Y-128177067D01*
X40065054Y-128041245D01*
X40001972Y-127901712D01*
X39945571Y-127758666D01*
X39896048Y-127612304D01*
X39853600Y-127462824D01*
X39818427Y-127310425D01*
X39790725Y-127155304D01*
X39770693Y-126997660D01*
X39758529Y-126837690D01*
X39754430Y-126675591D01*
X39758529Y-126513493D01*
X39770693Y-126353522D01*
X39790725Y-126195877D01*
X39818427Y-126040756D01*
X39853600Y-125888356D01*
X39896048Y-125738876D01*
X39945571Y-125592514D01*
X40001972Y-125449468D01*
X40065054Y-125309934D01*
X40134618Y-125174113D01*
X40210466Y-125042200D01*
X40292400Y-124914395D01*
X40380223Y-124790894D01*
X40473737Y-124671897D01*
X40572743Y-124557601D01*
X40677043Y-124448203D01*
X40786441Y-124343902D01*
X40900737Y-124244896D01*
X41019734Y-124151383D01*
X41143235Y-124063560D01*
X41271040Y-123981626D01*
X41402953Y-123905778D01*
X41538774Y-123836214D01*
X41678307Y-123773132D01*
X41821354Y-123716731D01*
X41967716Y-123667208D01*
X42117195Y-123624760D01*
X42269595Y-123589587D01*
X42424716Y-123561885D01*
X42582360Y-123541853D01*
X42742331Y-123529689D01*
X42904429Y-123525590D01*
X43066528Y-123529689D01*
G37*
%TD.AperFunction*%
%TA.AperFunction,Profile*%
G36*
X43780156Y-134940148D02*
G01*
X43871562Y-134947099D01*
X43961639Y-134958545D01*
X44050274Y-134974373D01*
X44137354Y-134994471D01*
X44222766Y-135018725D01*
X44306396Y-135047022D01*
X44388132Y-135079250D01*
X44467861Y-135115294D01*
X44545468Y-135155042D01*
X44620842Y-135198381D01*
X44693870Y-135245197D01*
X44764437Y-135295379D01*
X44832431Y-135348811D01*
X44897739Y-135405383D01*
X44960248Y-135464979D01*
X45019845Y-135527488D01*
X45076417Y-135592796D01*
X45129850Y-135660790D01*
X45180031Y-135731357D01*
X45226848Y-135804385D01*
X45270187Y-135879758D01*
X45309935Y-135957366D01*
X45345980Y-136037094D01*
X45378207Y-136118830D01*
X45406504Y-136202461D01*
X45430759Y-136287873D01*
X45450856Y-136374953D01*
X45466685Y-136463588D01*
X45478131Y-136553666D01*
X45485082Y-136645072D01*
X45487424Y-136737695D01*
X45485082Y-136830317D01*
X45478131Y-136921723D01*
X45466685Y-137011800D01*
X45450856Y-137100435D01*
X45430759Y-137187514D01*
X45406504Y-137272926D01*
X45378207Y-137356556D01*
X45345980Y-137438292D01*
X45309935Y-137518020D01*
X45270187Y-137595628D01*
X45226848Y-137671002D01*
X45180031Y-137744029D01*
X45129850Y-137814596D01*
X45076417Y-137882590D01*
X45019845Y-137947898D01*
X44960248Y-138010407D01*
X44897739Y-138070004D01*
X44832431Y-138126576D01*
X44764437Y-138180009D01*
X44693870Y-138230190D01*
X44620842Y-138277007D01*
X44545468Y-138320346D01*
X44467861Y-138360094D01*
X44388132Y-138396139D01*
X44306396Y-138428366D01*
X44222766Y-138456664D01*
X44137354Y-138480918D01*
X44050274Y-138501016D01*
X43961639Y-138516845D01*
X43871562Y-138528291D01*
X43780156Y-138535241D01*
X43687533Y-138537583D01*
X43594911Y-138535241D01*
X43503505Y-138528291D01*
X43413428Y-138516845D01*
X43324792Y-138501016D01*
X43237712Y-138480918D01*
X43152301Y-138456664D01*
X43068670Y-138428366D01*
X42986934Y-138396139D01*
X42907206Y-138360094D01*
X42829598Y-138320346D01*
X42754224Y-138277007D01*
X42681197Y-138230190D01*
X42610630Y-138180009D01*
X42542635Y-138126576D01*
X42477327Y-138070004D01*
X42414818Y-138010407D01*
X42355221Y-137947898D01*
X42298650Y-137882590D01*
X42245217Y-137814596D01*
X42195036Y-137744029D01*
X42148219Y-137671002D01*
X42104880Y-137595628D01*
X42065131Y-137518020D01*
X42029087Y-137438292D01*
X41996860Y-137356556D01*
X41968562Y-137272926D01*
X41944308Y-137187514D01*
X41924210Y-137100435D01*
X41908382Y-137011800D01*
X41896935Y-136921723D01*
X41889985Y-136830317D01*
X41887643Y-136737695D01*
X41889985Y-136645072D01*
X41896935Y-136553666D01*
X41908382Y-136463588D01*
X41924210Y-136374953D01*
X41944308Y-136287873D01*
X41968562Y-136202461D01*
X41996860Y-136118830D01*
X42029087Y-136037094D01*
X42065131Y-135957366D01*
X42104880Y-135879758D01*
X42148219Y-135804385D01*
X42195036Y-135731357D01*
X42245217Y-135660790D01*
X42298650Y-135592796D01*
X42355221Y-135527488D01*
X42414818Y-135464979D01*
X42477327Y-135405383D01*
X42542635Y-135348811D01*
X42610630Y-135295379D01*
X42681197Y-135245197D01*
X42754224Y-135198381D01*
X42829598Y-135155042D01*
X42907206Y-135115294D01*
X42986934Y-135079250D01*
X43068670Y-135047022D01*
X43152301Y-135018725D01*
X43237712Y-134994471D01*
X43324792Y-134974373D01*
X43413428Y-134958545D01*
X43503505Y-134947099D01*
X43594911Y-134940148D01*
X43687533Y-134937806D01*
X43780156Y-134940148D01*
G37*
%TD.AperFunction*%
%TA.AperFunction,Profile*%
G36*
X47474482Y-26747280D02*
G01*
X47565888Y-26754231D01*
X47655965Y-26765677D01*
X47744601Y-26781505D01*
X47831681Y-26801603D01*
X47917092Y-26825857D01*
X48000723Y-26854155D01*
X48082459Y-26886382D01*
X48162187Y-26922427D01*
X48239795Y-26962175D01*
X48315169Y-27005514D01*
X48388196Y-27052331D01*
X48458763Y-27102512D01*
X48526758Y-27155945D01*
X48592066Y-27212517D01*
X48654575Y-27272114D01*
X48714172Y-27334623D01*
X48770743Y-27399931D01*
X48824176Y-27467925D01*
X48874357Y-27538492D01*
X48921174Y-27611520D01*
X48964513Y-27686893D01*
X49004262Y-27764501D01*
X49040306Y-27844229D01*
X49072533Y-27925965D01*
X49100831Y-28009596D01*
X49125085Y-28095007D01*
X49145183Y-28182087D01*
X49161011Y-28270722D01*
X49172458Y-28360799D01*
X49179408Y-28452205D01*
X49181750Y-28544827D01*
X49179408Y-28637450D01*
X49172458Y-28728856D01*
X49161011Y-28818933D01*
X49145183Y-28907568D01*
X49125085Y-28994648D01*
X49100831Y-29080060D01*
X49072533Y-29163690D01*
X49040306Y-29245426D01*
X49004262Y-29325154D01*
X48964513Y-29402762D01*
X48921174Y-29478136D01*
X48874357Y-29551163D01*
X48824176Y-29621731D01*
X48770743Y-29689725D01*
X48714172Y-29755033D01*
X48654575Y-29817542D01*
X48592066Y-29877139D01*
X48526758Y-29933710D01*
X48458763Y-29987143D01*
X48388196Y-30037325D01*
X48315169Y-30084142D01*
X48239795Y-30127481D01*
X48162187Y-30167229D01*
X48082459Y-30203274D01*
X48000723Y-30235501D01*
X47917092Y-30263798D01*
X47831681Y-30288053D01*
X47744601Y-30308151D01*
X47655965Y-30323979D01*
X47565888Y-30335425D01*
X47474482Y-30342376D01*
X47381860Y-30344718D01*
X47289238Y-30342376D01*
X47197831Y-30335425D01*
X47107754Y-30323979D01*
X47019119Y-30308151D01*
X46932039Y-30288053D01*
X46846627Y-30263798D01*
X46762997Y-30235501D01*
X46681261Y-30203274D01*
X46601532Y-30167229D01*
X46523925Y-30127481D01*
X46448551Y-30084142D01*
X46375523Y-30037325D01*
X46304956Y-29987143D01*
X46236962Y-29933710D01*
X46171654Y-29877139D01*
X46109145Y-29817542D01*
X46049548Y-29755033D01*
X45992976Y-29689725D01*
X45939543Y-29621731D01*
X45889362Y-29551163D01*
X45842545Y-29478136D01*
X45799206Y-29402762D01*
X45759458Y-29325154D01*
X45723413Y-29245426D01*
X45691186Y-29163690D01*
X45662889Y-29080060D01*
X45638634Y-28994648D01*
X45618537Y-28907568D01*
X45602708Y-28818933D01*
X45591262Y-28728856D01*
X45584311Y-28637450D01*
X45581969Y-28544827D01*
X45584311Y-28452205D01*
X45591262Y-28360799D01*
X45602708Y-28270722D01*
X45618537Y-28182087D01*
X45638634Y-28095007D01*
X45662889Y-28009596D01*
X45691186Y-27925965D01*
X45723413Y-27844229D01*
X45759458Y-27764501D01*
X45799206Y-27686893D01*
X45842545Y-27611520D01*
X45889362Y-27538492D01*
X45939543Y-27467925D01*
X45992976Y-27399931D01*
X46049548Y-27334623D01*
X46109145Y-27272114D01*
X46171654Y-27212517D01*
X46236962Y-27155945D01*
X46304956Y-27102512D01*
X46375523Y-27052331D01*
X46448551Y-27005514D01*
X46523925Y-26962175D01*
X46601532Y-26922427D01*
X46681261Y-26886382D01*
X46762997Y-26854155D01*
X46846627Y-26825857D01*
X46932039Y-26801603D01*
X47019119Y-26781505D01*
X47107754Y-26765677D01*
X47197831Y-26754231D01*
X47289238Y-26747280D01*
X47381860Y-26744938D01*
X47474482Y-26747280D01*
G37*
%TD.AperFunction*%
%TA.AperFunction,Profile*%
G36*
X49364802Y-89432336D02*
G01*
X49456208Y-89439286D01*
X49546285Y-89450732D01*
X49634920Y-89466561D01*
X49722000Y-89486659D01*
X49807412Y-89510913D01*
X49891043Y-89539211D01*
X49972778Y-89571438D01*
X50052507Y-89607483D01*
X50130115Y-89647231D01*
X50205489Y-89690570D01*
X50278516Y-89737387D01*
X50349083Y-89787569D01*
X50417077Y-89841002D01*
X50482386Y-89897574D01*
X50544895Y-89957170D01*
X50604491Y-90019680D01*
X50661063Y-90084988D01*
X50714496Y-90152983D01*
X50764677Y-90223550D01*
X50811494Y-90296578D01*
X50854833Y-90371952D01*
X50894581Y-90449560D01*
X50930626Y-90529288D01*
X50962853Y-90611025D01*
X50991151Y-90694655D01*
X51015405Y-90780067D01*
X51035503Y-90867148D01*
X51051331Y-90955783D01*
X51062777Y-91045861D01*
X51069728Y-91137267D01*
X51072070Y-91229890D01*
X51069728Y-91322512D01*
X51062777Y-91413918D01*
X51051331Y-91503995D01*
X51035503Y-91592630D01*
X51015405Y-91679709D01*
X50991151Y-91765121D01*
X50962853Y-91848751D01*
X50930626Y-91930487D01*
X50894581Y-92010215D01*
X50854833Y-92087823D01*
X50811494Y-92163197D01*
X50764677Y-92236224D01*
X50714496Y-92306791D01*
X50661063Y-92374785D01*
X50604491Y-92440094D01*
X50544895Y-92502603D01*
X50482386Y-92562199D01*
X50417077Y-92618771D01*
X50349083Y-92672204D01*
X50278516Y-92722385D01*
X50205489Y-92769202D01*
X50130115Y-92812541D01*
X50052507Y-92852290D01*
X49972778Y-92888334D01*
X49891043Y-92920562D01*
X49807412Y-92948859D01*
X49722000Y-92973113D01*
X49634920Y-92993211D01*
X49546285Y-93009040D01*
X49456208Y-93020486D01*
X49364802Y-93027436D01*
X49272180Y-93029778D01*
X49179557Y-93027436D01*
X49088151Y-93020486D01*
X48998074Y-93009040D01*
X48909439Y-92993211D01*
X48822359Y-92973113D01*
X48736947Y-92948859D01*
X48653317Y-92920562D01*
X48571581Y-92888334D01*
X48491852Y-92852290D01*
X48414244Y-92812541D01*
X48338870Y-92769202D01*
X48265843Y-92722385D01*
X48195276Y-92672204D01*
X48127282Y-92618771D01*
X48061973Y-92562199D01*
X47999464Y-92502603D01*
X47939868Y-92440094D01*
X47883296Y-92374785D01*
X47829863Y-92306791D01*
X47779682Y-92236224D01*
X47732865Y-92163197D01*
X47689526Y-92087823D01*
X47649778Y-92010215D01*
X47613733Y-91930487D01*
X47581506Y-91848751D01*
X47553208Y-91765121D01*
X47528954Y-91679709D01*
X47508856Y-91592630D01*
X47493028Y-91503995D01*
X47481582Y-91413918D01*
X47474631Y-91322512D01*
X47472289Y-91229890D01*
X47474631Y-91137267D01*
X47481582Y-91045861D01*
X47493028Y-90955783D01*
X47508856Y-90867148D01*
X47528954Y-90780067D01*
X47553208Y-90694655D01*
X47581506Y-90611025D01*
X47613733Y-90529288D01*
X47649778Y-90449560D01*
X47689526Y-90371952D01*
X47732865Y-90296578D01*
X47779682Y-90223550D01*
X47829863Y-90152983D01*
X47883296Y-90084988D01*
X47939868Y-90019680D01*
X47999464Y-89957170D01*
X48061973Y-89897574D01*
X48127282Y-89841002D01*
X48195276Y-89787569D01*
X48265843Y-89737387D01*
X48338870Y-89690570D01*
X48414244Y-89647231D01*
X48491852Y-89607483D01*
X48571581Y-89571438D01*
X48653317Y-89539211D01*
X48736947Y-89510913D01*
X48822359Y-89486659D01*
X48909439Y-89466561D01*
X48998074Y-89450732D01*
X49088151Y-89439286D01*
X49179557Y-89432336D01*
X49272180Y-89429994D01*
X49364802Y-89432336D01*
G37*
%TD.AperFunction*%
%TA.AperFunction,Profile*%
G36*
X77096964Y-39506190D02*
G01*
X77188371Y-39513141D01*
X77278448Y-39524587D01*
X77367083Y-39540415D01*
X77454163Y-39560513D01*
X77539575Y-39584768D01*
X77623205Y-39613065D01*
X77704941Y-39645292D01*
X77784670Y-39681337D01*
X77862278Y-39721085D01*
X77937652Y-39764424D01*
X78010679Y-39811241D01*
X78081246Y-39861422D01*
X78149241Y-39914855D01*
X78214549Y-39971427D01*
X78277058Y-40031024D01*
X78336655Y-40093533D01*
X78393226Y-40158841D01*
X78446659Y-40226835D01*
X78496841Y-40297402D01*
X78543658Y-40370430D01*
X78586997Y-40445804D01*
X78626745Y-40523411D01*
X78662790Y-40603140D01*
X78695017Y-40684876D01*
X78723315Y-40768506D01*
X78747569Y-40853918D01*
X78767667Y-40940998D01*
X78783496Y-41029633D01*
X78794942Y-41119710D01*
X78801892Y-41211116D01*
X78804234Y-41303739D01*
X78801892Y-41396361D01*
X78794942Y-41487767D01*
X78783496Y-41577844D01*
X78767667Y-41666480D01*
X78747569Y-41753560D01*
X78723315Y-41838971D01*
X78695017Y-41922602D01*
X78662790Y-42004338D01*
X78626745Y-42084066D01*
X78586997Y-42161674D01*
X78543658Y-42237048D01*
X78496841Y-42310075D01*
X78446659Y-42380642D01*
X78393226Y-42448636D01*
X78336655Y-42513945D01*
X78277058Y-42576454D01*
X78214549Y-42636050D01*
X78149241Y-42692622D01*
X78081246Y-42746055D01*
X78010679Y-42796236D01*
X77937652Y-42843053D01*
X77862278Y-42886392D01*
X77784670Y-42926141D01*
X77704941Y-42962185D01*
X77623205Y-42994412D01*
X77539575Y-43022710D01*
X77454163Y-43046964D01*
X77367083Y-43067062D01*
X77278448Y-43082890D01*
X77188371Y-43094336D01*
X77096964Y-43101287D01*
X77004342Y-43103629D01*
X76911720Y-43101287D01*
X76820314Y-43094336D01*
X76730236Y-43082890D01*
X76641601Y-43067062D01*
X76554521Y-43046964D01*
X76469110Y-43022710D01*
X76385479Y-42994412D01*
X76303743Y-42962185D01*
X76224015Y-42926141D01*
X76146407Y-42886392D01*
X76071033Y-42843053D01*
X75998006Y-42796236D01*
X75927439Y-42746055D01*
X75859445Y-42692622D01*
X75794137Y-42636050D01*
X75731628Y-42576454D01*
X75672031Y-42513945D01*
X75615460Y-42448636D01*
X75562027Y-42380642D01*
X75511846Y-42310075D01*
X75465029Y-42237048D01*
X75421690Y-42161674D01*
X75381942Y-42084066D01*
X75345897Y-42004338D01*
X75313670Y-41922602D01*
X75285373Y-41838971D01*
X75261119Y-41753560D01*
X75241021Y-41666480D01*
X75225192Y-41577844D01*
X75213746Y-41487767D01*
X75206795Y-41396361D01*
X75204453Y-41303739D01*
X75206795Y-41211116D01*
X75213746Y-41119710D01*
X75225192Y-41029633D01*
X75241021Y-40940998D01*
X75261119Y-40853918D01*
X75285373Y-40768506D01*
X75313670Y-40684876D01*
X75345897Y-40603140D01*
X75381942Y-40523411D01*
X75421690Y-40445804D01*
X75465029Y-40370430D01*
X75511846Y-40297402D01*
X75562027Y-40226835D01*
X75615460Y-40158841D01*
X75672031Y-40093533D01*
X75731628Y-40031024D01*
X75794137Y-39971427D01*
X75859445Y-39914855D01*
X75927439Y-39861422D01*
X75998006Y-39811241D01*
X76071033Y-39764424D01*
X76146407Y-39721085D01*
X76224015Y-39681337D01*
X76303743Y-39645292D01*
X76385479Y-39613065D01*
X76469110Y-39584768D01*
X76554521Y-39560513D01*
X76641601Y-39540415D01*
X76730236Y-39524587D01*
X76820314Y-39513141D01*
X76911720Y-39506190D01*
X77004342Y-39503848D01*
X77096964Y-39506190D01*
G37*
%TD.AperFunction*%
%TA.AperFunction,Profile*%
G36*
X77181163Y-22112414D02*
G01*
X77352297Y-22125428D01*
X77520943Y-22146858D01*
X77686889Y-22176492D01*
X77849923Y-22214121D01*
X78009834Y-22259530D01*
X78166410Y-22312510D01*
X78319439Y-22372847D01*
X78468709Y-22440331D01*
X78614009Y-22514749D01*
X78755127Y-22595890D01*
X78891851Y-22683543D01*
X79023970Y-22777494D01*
X79151272Y-22877534D01*
X79273544Y-22983449D01*
X79390576Y-23095028D01*
X79502156Y-23212060D01*
X79608071Y-23334333D01*
X79708110Y-23461634D01*
X79802062Y-23593753D01*
X79889714Y-23730478D01*
X79970856Y-23871596D01*
X80045274Y-24016896D01*
X80112758Y-24166167D01*
X80173095Y-24319196D01*
X80226075Y-24475772D01*
X80271485Y-24635683D01*
X80309113Y-24798717D01*
X80338748Y-24964663D01*
X80360178Y-25133310D01*
X80373191Y-25304444D01*
X80377576Y-25477855D01*
X80373191Y-25651265D01*
X80360178Y-25822400D01*
X80338748Y-25991046D01*
X80309113Y-26156992D01*
X80271485Y-26320027D01*
X80226075Y-26479938D01*
X80173095Y-26636514D01*
X80112758Y-26789543D01*
X80045274Y-26938813D01*
X79970856Y-27084114D01*
X79889714Y-27225232D01*
X79802062Y-27361956D01*
X79708110Y-27494075D01*
X79608071Y-27621377D01*
X79502156Y-27743649D01*
X79390576Y-27860681D01*
X79273544Y-27972261D01*
X79151272Y-28078176D01*
X79023970Y-28178215D01*
X78891851Y-28272167D01*
X78755127Y-28359819D01*
X78614009Y-28440960D01*
X78468709Y-28515379D01*
X78319439Y-28582863D01*
X78166410Y-28643200D01*
X78009834Y-28696179D01*
X77849923Y-28741589D01*
X77686889Y-28779217D01*
X77520943Y-28808852D01*
X77352297Y-28830282D01*
X77181163Y-28843295D01*
X77007752Y-28847680D01*
X76834342Y-28843295D01*
X76663207Y-28830282D01*
X76494561Y-28808852D01*
X76328615Y-28779217D01*
X76165580Y-28741589D01*
X76005669Y-28696179D01*
X75849093Y-28643200D01*
X75696064Y-28582863D01*
X75546793Y-28515379D01*
X75401493Y-28440960D01*
X75260375Y-28359819D01*
X75123650Y-28272167D01*
X74991531Y-28178215D01*
X74864230Y-28078176D01*
X74741957Y-27972261D01*
X74624925Y-27860681D01*
X74513346Y-27743649D01*
X74407430Y-27621377D01*
X74307391Y-27494075D01*
X74213439Y-27361956D01*
X74125787Y-27225232D01*
X74044645Y-27084114D01*
X73970227Y-26938813D01*
X73902743Y-26789543D01*
X73842405Y-26636514D01*
X73789426Y-26479938D01*
X73744016Y-26320027D01*
X73706388Y-26156992D01*
X73676753Y-25991046D01*
X73655323Y-25822400D01*
X73642310Y-25651265D01*
X73637925Y-25477855D01*
X73642310Y-25304444D01*
X73655323Y-25133310D01*
X73676753Y-24964663D01*
X73706388Y-24798717D01*
X73744016Y-24635683D01*
X73789426Y-24475772D01*
X73842405Y-24319196D01*
X73902743Y-24166167D01*
X73970227Y-24016896D01*
X74044645Y-23871596D01*
X74125787Y-23730478D01*
X74213439Y-23593753D01*
X74307391Y-23461634D01*
X74407430Y-23334333D01*
X74513346Y-23212060D01*
X74624925Y-23095028D01*
X74741957Y-22983449D01*
X74864230Y-22877534D01*
X74991531Y-22777494D01*
X75123650Y-22683543D01*
X75260375Y-22595890D01*
X75401493Y-22514749D01*
X75546793Y-22440331D01*
X75696064Y-22372847D01*
X75849093Y-22312510D01*
X76005669Y-22259530D01*
X76165580Y-22214121D01*
X76328615Y-22176492D01*
X76494561Y-22146858D01*
X76663207Y-22125428D01*
X76834342Y-22112414D01*
X77007752Y-22108030D01*
X77181163Y-22112414D01*
G37*
%TD.AperFunction*%
%TA.AperFunction,Profile*%
G36*
X96121239Y-61362218D02*
G01*
X96212650Y-61369169D01*
X96302733Y-61380616D01*
X96391373Y-61396445D01*
X96478459Y-61416545D01*
X96563875Y-61440800D01*
X96647511Y-61469099D01*
X96729252Y-61501329D01*
X96808985Y-61537375D01*
X96886598Y-61577126D01*
X96961976Y-61620468D01*
X97035008Y-61667288D01*
X97105580Y-61717472D01*
X97173578Y-61770909D01*
X97238891Y-61827484D01*
X97301404Y-61887084D01*
X97361005Y-61949597D01*
X97417580Y-62014909D01*
X97471016Y-62082908D01*
X97521201Y-62153479D01*
X97568021Y-62226511D01*
X97611363Y-62301889D01*
X97651114Y-62379502D01*
X97687160Y-62459235D01*
X97719390Y-62540976D01*
X97747689Y-62624611D01*
X97771945Y-62710028D01*
X97792044Y-62797113D01*
X97807874Y-62885753D01*
X97819321Y-62975836D01*
X97826272Y-63067247D01*
X97828614Y-63159875D01*
X97826272Y-63252503D01*
X97819321Y-63343915D01*
X97807874Y-63433997D01*
X97792044Y-63522638D01*
X97771945Y-63609723D01*
X97747689Y-63695140D01*
X97719390Y-63778776D01*
X97687160Y-63860517D01*
X97651114Y-63940250D01*
X97611363Y-64017862D01*
X97568021Y-64093241D01*
X97521201Y-64166272D01*
X97471016Y-64236844D01*
X97417580Y-64304842D01*
X97361005Y-64370154D01*
X97301404Y-64432667D01*
X97238891Y-64492268D01*
X97173578Y-64548842D01*
X97105580Y-64602279D01*
X97035008Y-64652463D01*
X96961976Y-64699283D01*
X96886598Y-64742624D01*
X96808985Y-64782375D01*
X96729252Y-64818422D01*
X96647511Y-64850651D01*
X96563875Y-64878950D01*
X96478459Y-64903206D01*
X96391373Y-64923305D01*
X96302733Y-64939134D01*
X96212650Y-64950581D01*
X96121239Y-64957532D01*
X96028611Y-64959874D01*
X95935984Y-64957532D01*
X95844572Y-64950581D01*
X95754489Y-64939134D01*
X95665849Y-64923305D01*
X95578764Y-64903206D01*
X95493347Y-64878950D01*
X95409711Y-64850651D01*
X95327970Y-64818422D01*
X95248237Y-64782375D01*
X95170625Y-64742624D01*
X95095246Y-64699283D01*
X95022214Y-64652463D01*
X94951642Y-64602279D01*
X94883644Y-64548842D01*
X94818331Y-64492268D01*
X94755818Y-64432667D01*
X94696218Y-64370154D01*
X94639643Y-64304842D01*
X94586206Y-64236844D01*
X94536021Y-64166272D01*
X94489202Y-64093241D01*
X94445860Y-64017862D01*
X94406109Y-63940250D01*
X94370062Y-63860517D01*
X94337832Y-63778776D01*
X94309533Y-63695140D01*
X94285277Y-63609723D01*
X94265178Y-63522638D01*
X94249348Y-63433997D01*
X94237901Y-63343915D01*
X94230950Y-63252503D01*
X94228608Y-63159875D01*
X94230950Y-63067247D01*
X94237901Y-62975836D01*
X94249348Y-62885753D01*
X94265178Y-62797113D01*
X94285277Y-62710028D01*
X94309533Y-62624611D01*
X94337832Y-62540976D01*
X94370062Y-62459235D01*
X94406109Y-62379502D01*
X94445860Y-62301889D01*
X94489202Y-62226511D01*
X94536021Y-62153479D01*
X94586206Y-62082908D01*
X94639643Y-62014909D01*
X94696218Y-61949597D01*
X94755818Y-61887084D01*
X94818331Y-61827484D01*
X94883644Y-61770909D01*
X94951642Y-61717472D01*
X95022214Y-61667288D01*
X95095246Y-61620468D01*
X95170625Y-61577126D01*
X95248237Y-61537375D01*
X95327970Y-61501329D01*
X95409711Y-61469099D01*
X95493347Y-61440800D01*
X95578764Y-61416545D01*
X95665849Y-61396445D01*
X95754489Y-61380616D01*
X95844572Y-61369169D01*
X95935984Y-61362218D01*
X96028611Y-61359876D01*
X96121239Y-61362218D01*
G37*
%TD.AperFunction*%
%TA.AperFunction,Profile*%
G36*
X110074275Y-99945908D02*
G01*
X110165681Y-99952859D01*
X110255759Y-99964305D01*
X110344394Y-99980134D01*
X110431474Y-100000232D01*
X110516886Y-100024486D01*
X110600517Y-100052783D01*
X110682252Y-100085011D01*
X110761981Y-100121055D01*
X110839589Y-100160804D01*
X110914962Y-100204143D01*
X110987990Y-100250960D01*
X111058557Y-100301141D01*
X111126551Y-100354574D01*
X111191859Y-100411145D01*
X111254368Y-100470742D01*
X111313964Y-100533251D01*
X111370536Y-100598559D01*
X111423968Y-100666554D01*
X111474150Y-100737121D01*
X111520966Y-100810148D01*
X111564305Y-100885522D01*
X111604053Y-100963130D01*
X111640097Y-101042858D01*
X111672325Y-101124594D01*
X111700622Y-101208224D01*
X111724876Y-101293635D01*
X111744974Y-101380715D01*
X111760802Y-101469350D01*
X111772248Y-101559427D01*
X111779199Y-101650833D01*
X111781541Y-101743455D01*
X111779199Y-101836077D01*
X111772248Y-101927484D01*
X111760802Y-102017562D01*
X111744974Y-102106197D01*
X111724876Y-102193277D01*
X111700622Y-102278689D01*
X111672325Y-102362319D01*
X111640097Y-102444055D01*
X111604053Y-102523784D01*
X111564305Y-102601391D01*
X111520966Y-102676765D01*
X111474150Y-102749792D01*
X111423968Y-102820359D01*
X111370536Y-102888354D01*
X111313964Y-102953662D01*
X111254368Y-103016171D01*
X111191859Y-103075767D01*
X111126551Y-103132338D01*
X111058557Y-103185771D01*
X110987990Y-103235952D01*
X110914962Y-103282769D01*
X110839589Y-103326108D01*
X110761981Y-103365856D01*
X110682252Y-103401900D01*
X110600517Y-103434127D01*
X110516886Y-103462425D01*
X110431474Y-103486679D01*
X110344394Y-103506776D01*
X110255759Y-103522605D01*
X110165681Y-103534051D01*
X110074275Y-103541002D01*
X109981652Y-103543344D01*
X109889030Y-103541002D01*
X109797624Y-103534051D01*
X109707547Y-103522605D01*
X109618912Y-103506776D01*
X109531833Y-103486679D01*
X109446421Y-103462425D01*
X109362791Y-103434127D01*
X109281055Y-103401900D01*
X109201327Y-103365856D01*
X109123719Y-103326108D01*
X109048345Y-103282769D01*
X108975318Y-103235952D01*
X108904751Y-103185771D01*
X108836757Y-103132338D01*
X108771449Y-103075767D01*
X108708939Y-103016171D01*
X108649343Y-102953662D01*
X108592771Y-102888354D01*
X108539338Y-102820359D01*
X108489157Y-102749792D01*
X108442340Y-102676765D01*
X108399001Y-102601391D01*
X108359252Y-102523784D01*
X108323208Y-102444055D01*
X108290981Y-102362319D01*
X108262683Y-102278689D01*
X108238429Y-102193277D01*
X108218331Y-102106197D01*
X108202502Y-102017562D01*
X108191056Y-101927484D01*
X108184106Y-101836077D01*
X108181764Y-101743455D01*
X108184106Y-101650833D01*
X108191056Y-101559427D01*
X108202502Y-101469350D01*
X108218331Y-101380715D01*
X108238429Y-101293635D01*
X108262683Y-101208224D01*
X108290981Y-101124594D01*
X108323208Y-101042858D01*
X108359252Y-100963130D01*
X108399001Y-100885522D01*
X108442340Y-100810148D01*
X108489157Y-100737121D01*
X108539338Y-100666554D01*
X108592771Y-100598559D01*
X108649343Y-100533251D01*
X108708939Y-100470742D01*
X108771449Y-100411145D01*
X108836757Y-100354574D01*
X108904751Y-100301141D01*
X108975318Y-100250960D01*
X109048345Y-100204143D01*
X109123719Y-100160804D01*
X109201327Y-100121055D01*
X109281055Y-100085011D01*
X109362791Y-100052783D01*
X109446421Y-100024486D01*
X109531833Y-100000232D01*
X109618912Y-99980134D01*
X109707547Y-99964305D01*
X109797624Y-99952859D01*
X109889030Y-99945908D01*
X109981652Y-99943566D01*
X110074275Y-99945908D01*
G37*
%TD.AperFunction*%
%TA.AperFunction,Profile*%
G36*
X124597653Y-80599097D02*
G01*
X124663673Y-80604117D01*
X124728733Y-80612384D01*
X124792751Y-80623817D01*
X124855646Y-80638333D01*
X124917336Y-80655851D01*
X124977740Y-80676289D01*
X125036775Y-80699566D01*
X125094360Y-80725600D01*
X125150414Y-80754309D01*
X125204854Y-80785611D01*
X125257599Y-80819425D01*
X125308568Y-80855670D01*
X125357678Y-80894263D01*
X125404848Y-80935122D01*
X125449996Y-80978167D01*
X125493041Y-81023315D01*
X125533901Y-81070485D01*
X125572493Y-81119595D01*
X125608738Y-81170564D01*
X125642552Y-81223309D01*
X125673855Y-81277749D01*
X125702564Y-81333802D01*
X125728597Y-81391387D01*
X125751874Y-81450422D01*
X125772312Y-81510825D01*
X125789830Y-81572515D01*
X125804347Y-81635410D01*
X125815779Y-81699428D01*
X125824046Y-81764488D01*
X125829066Y-81830507D01*
X125830758Y-81897405D01*
X125829066Y-81964303D01*
X125824046Y-82030322D01*
X125815779Y-82095382D01*
X125804347Y-82159401D01*
X125789830Y-82222296D01*
X125772312Y-82283986D01*
X125751874Y-82344390D01*
X125728597Y-82403425D01*
X125702564Y-82461010D01*
X125673855Y-82517064D01*
X125642552Y-82571505D01*
X125608738Y-82624250D01*
X125572493Y-82675219D01*
X125533901Y-82724329D01*
X125493041Y-82771499D01*
X125449996Y-82816648D01*
X125404848Y-82859693D01*
X125357678Y-82900552D01*
X125308568Y-82939146D01*
X125257599Y-82975390D01*
X125204854Y-83009205D01*
X125150414Y-83040507D01*
X125094360Y-83069216D01*
X125036775Y-83095250D01*
X124977740Y-83118527D01*
X124917336Y-83138966D01*
X124855646Y-83156484D01*
X124792751Y-83171000D01*
X124728733Y-83182432D01*
X124663673Y-83190700D01*
X124597653Y-83195720D01*
X124530755Y-83197412D01*
X124463857Y-83195720D01*
X124397837Y-83190700D01*
X124332777Y-83182432D01*
X124268759Y-83171000D01*
X124205864Y-83156484D01*
X124144174Y-83138966D01*
X124083770Y-83118527D01*
X124024735Y-83095250D01*
X123967150Y-83069216D01*
X123911096Y-83040507D01*
X123856656Y-83009205D01*
X123803911Y-82975390D01*
X123752942Y-82939146D01*
X123703832Y-82900552D01*
X123656662Y-82859693D01*
X123611514Y-82816648D01*
X123568469Y-82771499D01*
X123527609Y-82724329D01*
X123489017Y-82675219D01*
X123452772Y-82624250D01*
X123418958Y-82571505D01*
X123387655Y-82517064D01*
X123358946Y-82461010D01*
X123332913Y-82403425D01*
X123309636Y-82344390D01*
X123289198Y-82283986D01*
X123271679Y-82222296D01*
X123257163Y-82159401D01*
X123245731Y-82095382D01*
X123237464Y-82030322D01*
X123232443Y-81964303D01*
X123230752Y-81897405D01*
X123232443Y-81830507D01*
X123237464Y-81764488D01*
X123245731Y-81699428D01*
X123257163Y-81635410D01*
X123271679Y-81572515D01*
X123289198Y-81510825D01*
X123309636Y-81450422D01*
X123332913Y-81391387D01*
X123358946Y-81333802D01*
X123387655Y-81277749D01*
X123418958Y-81223309D01*
X123452772Y-81170564D01*
X123489017Y-81119595D01*
X123527609Y-81070485D01*
X123568469Y-81023315D01*
X123611514Y-80978167D01*
X123656662Y-80935122D01*
X123703832Y-80894263D01*
X123752942Y-80855670D01*
X123803911Y-80819425D01*
X123856656Y-80785611D01*
X123911096Y-80754309D01*
X123967150Y-80725600D01*
X124024735Y-80699566D01*
X124083770Y-80676289D01*
X124144174Y-80655851D01*
X124205864Y-80638333D01*
X124268759Y-80623817D01*
X124332777Y-80612384D01*
X124397837Y-80604117D01*
X124463857Y-80599097D01*
X124530755Y-80597405D01*
X124597653Y-80599097D01*
G37*
%TD.AperFunction*%
%TA.AperFunction,Profile*%
G36*
X128050570Y-121654563D02*
G01*
X128221704Y-121667576D01*
X128390350Y-121689006D01*
X128556296Y-121718641D01*
X128719331Y-121756269D01*
X128879242Y-121801679D01*
X129035818Y-121854659D01*
X129188847Y-121914996D01*
X129338117Y-121982480D01*
X129483418Y-122056899D01*
X129624536Y-122138040D01*
X129761260Y-122225693D01*
X129893379Y-122319645D01*
X130020681Y-122419684D01*
X130142954Y-122525600D01*
X130259986Y-122637179D01*
X130371565Y-122754211D01*
X130477481Y-122876484D01*
X130577521Y-123003786D01*
X130671472Y-123135905D01*
X130759125Y-123272629D01*
X130840266Y-123413748D01*
X130914685Y-123559048D01*
X130982169Y-123708318D01*
X131042507Y-123861348D01*
X131095486Y-124017924D01*
X131140896Y-124177835D01*
X131178524Y-124340869D01*
X131208159Y-124506815D01*
X131229589Y-124675461D01*
X131242602Y-124846595D01*
X131246987Y-125020005D01*
X131242602Y-125193416D01*
X131229589Y-125364551D01*
X131208159Y-125533197D01*
X131178524Y-125699144D01*
X131140896Y-125862178D01*
X131095486Y-126022090D01*
X131042507Y-126178666D01*
X130982169Y-126331695D01*
X130914685Y-126480966D01*
X130840266Y-126626266D01*
X130759125Y-126767384D01*
X130671472Y-126904109D01*
X130577521Y-127036228D01*
X130477481Y-127163529D01*
X130371565Y-127285802D01*
X130259986Y-127402834D01*
X130142954Y-127514413D01*
X130020681Y-127620329D01*
X129893379Y-127720368D01*
X129761260Y-127814320D01*
X129624536Y-127901972D01*
X129483418Y-127983113D01*
X129338117Y-128057531D01*
X129188847Y-128125015D01*
X129035818Y-128185353D01*
X128879242Y-128238332D01*
X128719331Y-128283742D01*
X128556296Y-128321370D01*
X128390350Y-128351005D01*
X128221704Y-128372434D01*
X128050570Y-128385448D01*
X127877160Y-128389833D01*
X127703750Y-128385448D01*
X127532616Y-128372434D01*
X127363970Y-128351005D01*
X127198024Y-128321370D01*
X127034989Y-128283742D01*
X126875078Y-128238332D01*
X126718502Y-128185353D01*
X126565473Y-128125015D01*
X126416203Y-128057531D01*
X126270902Y-127983113D01*
X126129784Y-127901972D01*
X125993060Y-127814320D01*
X125860941Y-127720368D01*
X125733639Y-127620329D01*
X125611366Y-127514413D01*
X125494334Y-127402834D01*
X125382755Y-127285802D01*
X125276839Y-127163529D01*
X125176800Y-127036228D01*
X125082848Y-126904109D01*
X124995195Y-126767384D01*
X124914054Y-126626266D01*
X124839635Y-126480966D01*
X124772151Y-126331695D01*
X124711814Y-126178666D01*
X124658834Y-126022090D01*
X124613424Y-125862178D01*
X124575796Y-125699144D01*
X124546161Y-125533197D01*
X124524731Y-125364551D01*
X124511718Y-125193416D01*
X124507333Y-125020005D01*
X124511718Y-124846595D01*
X124524731Y-124675461D01*
X124546161Y-124506815D01*
X124575796Y-124340869D01*
X124613424Y-124177835D01*
X124658834Y-124017924D01*
X124711814Y-123861348D01*
X124772151Y-123708318D01*
X124839635Y-123559048D01*
X124914054Y-123413748D01*
X124995195Y-123272629D01*
X125082848Y-123135905D01*
X125176800Y-123003786D01*
X125276839Y-122876484D01*
X125382755Y-122754211D01*
X125494334Y-122637179D01*
X125611366Y-122525600D01*
X125733639Y-122419684D01*
X125860941Y-122319645D01*
X125993060Y-122225693D01*
X126129784Y-122138040D01*
X126270902Y-122056899D01*
X126416203Y-121982480D01*
X126565473Y-121914996D01*
X126718502Y-121854659D01*
X126875078Y-121801679D01*
X127034989Y-121756269D01*
X127198024Y-121718641D01*
X127363970Y-121689006D01*
X127532616Y-121667576D01*
X127703750Y-121654563D01*
X127877160Y-121650178D01*
X128050570Y-121654563D01*
G37*
%TD.AperFunction*%
%TA.AperFunction,Profile*%
G36*
X138799654Y-26635646D02*
G01*
X138891060Y-26642596D01*
X138981137Y-26654042D01*
X139069772Y-26669871D01*
X139156852Y-26689969D01*
X139242263Y-26714223D01*
X139325893Y-26742521D01*
X139407629Y-26774748D01*
X139487357Y-26810792D01*
X139564965Y-26850541D01*
X139640339Y-26893880D01*
X139713366Y-26940697D01*
X139783933Y-26990878D01*
X139851928Y-27044311D01*
X139917236Y-27100883D01*
X139979745Y-27160479D01*
X140039342Y-27222988D01*
X140095913Y-27288297D01*
X140149346Y-27356291D01*
X140199528Y-27426858D01*
X140246344Y-27499885D01*
X140289684Y-27575259D01*
X140329432Y-27652867D01*
X140365476Y-27732595D01*
X140397704Y-27814331D01*
X140426001Y-27897961D01*
X140450255Y-27983373D01*
X140470353Y-28070453D01*
X140486182Y-28159088D01*
X140497628Y-28249165D01*
X140504579Y-28340571D01*
X140506921Y-28433193D01*
X140504579Y-28525815D01*
X140497628Y-28617222D01*
X140486182Y-28707299D01*
X140470353Y-28795934D01*
X140450255Y-28883014D01*
X140426001Y-28968426D01*
X140397704Y-29052056D01*
X140365476Y-29133792D01*
X140329432Y-29213520D01*
X140289684Y-29291128D01*
X140246344Y-29366502D01*
X140199528Y-29439529D01*
X140149346Y-29510096D01*
X140095913Y-29578091D01*
X140039342Y-29643399D01*
X139979745Y-29705908D01*
X139917236Y-29765505D01*
X139851928Y-29822076D01*
X139783933Y-29875509D01*
X139713366Y-29925691D01*
X139640339Y-29972508D01*
X139564965Y-30015847D01*
X139487357Y-30055595D01*
X139407629Y-30091639D01*
X139325893Y-30123867D01*
X139242263Y-30152164D01*
X139156852Y-30176418D01*
X139069772Y-30196516D01*
X138981137Y-30212345D01*
X138891060Y-30223791D01*
X138799654Y-30230742D01*
X138707032Y-30233084D01*
X138614410Y-30230742D01*
X138523003Y-30223791D01*
X138432925Y-30212345D01*
X138344290Y-30196516D01*
X138257210Y-30176418D01*
X138171798Y-30152164D01*
X138088167Y-30123867D01*
X138006431Y-30091639D01*
X137926702Y-30055595D01*
X137849094Y-30015847D01*
X137773720Y-29972508D01*
X137700692Y-29925691D01*
X137630125Y-29875509D01*
X137562130Y-29822076D01*
X137496822Y-29765505D01*
X137434313Y-29705908D01*
X137374716Y-29643399D01*
X137318144Y-29578091D01*
X137264711Y-29510096D01*
X137214530Y-29439529D01*
X137167713Y-29366502D01*
X137124373Y-29291128D01*
X137084625Y-29213520D01*
X137048580Y-29133792D01*
X137016353Y-29052056D01*
X136988056Y-28968426D01*
X136963801Y-28883014D01*
X136943703Y-28795934D01*
X136927875Y-28707299D01*
X136916429Y-28617222D01*
X136909478Y-28525815D01*
X136907136Y-28433193D01*
X136909478Y-28340571D01*
X136916429Y-28249165D01*
X136927875Y-28159088D01*
X136943703Y-28070453D01*
X136963801Y-27983373D01*
X136988056Y-27897961D01*
X137016353Y-27814331D01*
X137048580Y-27732595D01*
X137084625Y-27652867D01*
X137124373Y-27575259D01*
X137167713Y-27499885D01*
X137214530Y-27426858D01*
X137264711Y-27356291D01*
X137318144Y-27288297D01*
X137374716Y-27222988D01*
X137434313Y-27160479D01*
X137496822Y-27100883D01*
X137562130Y-27044311D01*
X137630125Y-26990878D01*
X137700692Y-26940697D01*
X137773720Y-26893880D01*
X137849094Y-26850541D01*
X137926702Y-26810792D01*
X138006431Y-26774748D01*
X138088167Y-26742521D01*
X138171798Y-26714223D01*
X138257210Y-26689969D01*
X138344290Y-26669871D01*
X138432925Y-26654042D01*
X138523003Y-26642596D01*
X138614410Y-26635646D01*
X138707032Y-26633304D01*
X138799654Y-26635646D01*
G37*
%TD.AperFunction*%
%TA.AperFunction,Profile*%
G36*
X143576097Y-80766206D02*
G01*
X143667503Y-80773156D01*
X143757580Y-80784602D01*
X143846215Y-80800431D01*
X143933295Y-80820529D01*
X144018707Y-80844783D01*
X144102337Y-80873081D01*
X144184073Y-80905308D01*
X144263801Y-80941352D01*
X144341409Y-80981101D01*
X144416782Y-81024440D01*
X144489810Y-81071257D01*
X144560377Y-81121438D01*
X144628371Y-81174871D01*
X144693679Y-81231443D01*
X144756188Y-81291039D01*
X144815785Y-81353549D01*
X144872357Y-81418857D01*
X144925790Y-81486851D01*
X144975971Y-81557418D01*
X145022788Y-81630445D01*
X145066127Y-81705819D01*
X145105875Y-81783427D01*
X145141920Y-81863155D01*
X145174147Y-81944891D01*
X145202445Y-82028521D01*
X145226699Y-82113933D01*
X145246797Y-82201012D01*
X145262625Y-82289647D01*
X145274072Y-82379724D01*
X145281022Y-82471130D01*
X145283364Y-82563752D01*
X145281022Y-82656375D01*
X145274072Y-82747781D01*
X145262625Y-82837859D01*
X145246797Y-82926494D01*
X145226699Y-83013574D01*
X145202445Y-83098986D01*
X145174147Y-83182617D01*
X145141920Y-83264352D01*
X145105875Y-83344081D01*
X145066127Y-83421688D01*
X145022788Y-83497062D01*
X144975971Y-83570090D01*
X144925790Y-83640657D01*
X144872357Y-83708651D01*
X144815785Y-83773959D01*
X144756188Y-83836468D01*
X144693679Y-83896064D01*
X144628371Y-83952636D01*
X144560377Y-84006068D01*
X144489810Y-84056250D01*
X144416782Y-84103066D01*
X144341409Y-84146405D01*
X144263801Y-84186153D01*
X144184073Y-84222197D01*
X144102337Y-84254425D01*
X144018707Y-84282722D01*
X143933295Y-84306976D01*
X143846215Y-84327074D01*
X143757580Y-84342902D01*
X143667503Y-84354348D01*
X143576097Y-84361299D01*
X143483476Y-84363641D01*
X143390853Y-84361299D01*
X143299447Y-84354348D01*
X143209369Y-84342902D01*
X143120734Y-84327074D01*
X143033654Y-84306976D01*
X142948242Y-84282722D01*
X142864611Y-84254425D01*
X142782875Y-84222197D01*
X142703147Y-84186153D01*
X142625539Y-84146405D01*
X142550165Y-84103066D01*
X142477138Y-84056250D01*
X142406571Y-84006068D01*
X142338577Y-83952636D01*
X142273269Y-83896064D01*
X142210760Y-83836468D01*
X142151163Y-83773959D01*
X142094592Y-83708651D01*
X142041159Y-83640657D01*
X141990978Y-83570090D01*
X141944162Y-83497062D01*
X141900823Y-83421688D01*
X141861075Y-83344081D01*
X141825030Y-83264352D01*
X141792803Y-83182617D01*
X141764506Y-83098986D01*
X141740252Y-83013574D01*
X141720154Y-82926494D01*
X141704326Y-82837859D01*
X141692880Y-82747781D01*
X141685929Y-82656375D01*
X141683587Y-82563752D01*
X141685929Y-82471130D01*
X141692880Y-82379724D01*
X141704326Y-82289647D01*
X141720154Y-82201012D01*
X141740252Y-82113933D01*
X141764506Y-82028521D01*
X141792803Y-81944891D01*
X141825030Y-81863155D01*
X141861075Y-81783427D01*
X141900823Y-81705819D01*
X141944162Y-81630445D01*
X141990978Y-81557418D01*
X142041159Y-81486851D01*
X142094592Y-81418857D01*
X142151163Y-81353549D01*
X142210760Y-81291039D01*
X142273269Y-81231443D01*
X142338577Y-81174871D01*
X142406571Y-81121438D01*
X142477138Y-81071257D01*
X142550165Y-81024440D01*
X142625539Y-80981101D01*
X142703147Y-80941352D01*
X142782875Y-80905308D01*
X142864611Y-80873081D01*
X142948242Y-80844783D01*
X143033654Y-80820529D01*
X143120734Y-80800431D01*
X143209369Y-80784602D01*
X143299447Y-80773156D01*
X143390853Y-80766206D01*
X143483476Y-80763864D01*
X143576097Y-80766206D01*
G37*
%TD.AperFunction*%
%TA.AperFunction,Profile*%
G36*
X162495859Y-39485507D02*
G01*
X162587265Y-39492457D01*
X162677342Y-39503904D01*
X162765977Y-39519732D01*
X162853057Y-39539830D01*
X162938469Y-39564084D01*
X163022100Y-39592382D01*
X163103836Y-39624609D01*
X163183564Y-39660653D01*
X163261172Y-39700402D01*
X163336546Y-39743741D01*
X163409574Y-39790558D01*
X163480141Y-39840739D01*
X163548136Y-39894172D01*
X163613444Y-39950743D01*
X163675954Y-40010340D01*
X163735551Y-40072849D01*
X163792123Y-40138157D01*
X163845556Y-40206152D01*
X163895738Y-40276719D01*
X163942555Y-40349746D01*
X163985895Y-40425120D01*
X164025643Y-40502728D01*
X164061688Y-40582456D01*
X164093916Y-40664192D01*
X164122213Y-40747823D01*
X164146468Y-40833234D01*
X164166566Y-40920314D01*
X164182395Y-41008950D01*
X164193841Y-41099027D01*
X164200791Y-41190433D01*
X164203134Y-41283055D01*
X164200791Y-41375678D01*
X164193841Y-41467084D01*
X164182395Y-41557161D01*
X164166566Y-41645796D01*
X164146468Y-41732876D01*
X164122213Y-41818288D01*
X164093916Y-41901918D01*
X164061688Y-41983654D01*
X164025643Y-42063383D01*
X163985895Y-42140990D01*
X163942555Y-42216364D01*
X163895738Y-42289392D01*
X163845556Y-42359959D01*
X163792123Y-42427953D01*
X163735551Y-42493261D01*
X163675954Y-42555770D01*
X163613444Y-42615367D01*
X163548136Y-42671939D01*
X163480141Y-42725372D01*
X163409574Y-42775553D01*
X163336546Y-42822370D01*
X163261172Y-42865709D01*
X163183564Y-42905457D01*
X163103836Y-42941502D01*
X163022100Y-42973729D01*
X162938469Y-43002026D01*
X162853057Y-43026281D01*
X162765977Y-43046378D01*
X162677342Y-43062207D01*
X162587265Y-43073653D01*
X162495859Y-43080604D01*
X162403237Y-43082946D01*
X162310615Y-43080604D01*
X162219210Y-43073653D01*
X162129133Y-43062207D01*
X162040498Y-43046378D01*
X161953418Y-43026281D01*
X161868007Y-43002026D01*
X161784377Y-42973729D01*
X161702641Y-42941502D01*
X161622913Y-42905457D01*
X161545306Y-42865709D01*
X161469933Y-42822370D01*
X161396906Y-42775553D01*
X161326339Y-42725372D01*
X161258345Y-42671939D01*
X161193037Y-42615367D01*
X161130528Y-42555770D01*
X161070932Y-42493261D01*
X161014361Y-42427953D01*
X160960928Y-42359959D01*
X160910747Y-42289392D01*
X160863931Y-42216364D01*
X160820592Y-42140990D01*
X160780844Y-42063383D01*
X160744800Y-41983654D01*
X160712572Y-41901918D01*
X160684275Y-41818288D01*
X160660021Y-41732876D01*
X160639923Y-41645796D01*
X160624095Y-41557161D01*
X160612649Y-41467084D01*
X160605698Y-41375678D01*
X160603356Y-41283055D01*
X160605698Y-41190433D01*
X160612649Y-41099027D01*
X160624095Y-41008950D01*
X160639923Y-40920314D01*
X160660021Y-40833234D01*
X160684275Y-40747823D01*
X160712572Y-40664192D01*
X160744800Y-40582456D01*
X160780844Y-40502728D01*
X160820592Y-40425120D01*
X160863931Y-40349746D01*
X160910747Y-40276719D01*
X160960928Y-40206152D01*
X161014361Y-40138157D01*
X161070932Y-40072849D01*
X161130528Y-40010340D01*
X161193037Y-39950743D01*
X161258345Y-39894172D01*
X161326339Y-39840739D01*
X161396906Y-39790558D01*
X161469933Y-39743741D01*
X161545306Y-39700402D01*
X161622913Y-39660653D01*
X161702641Y-39624609D01*
X161784377Y-39592382D01*
X161868007Y-39564084D01*
X161953418Y-39539830D01*
X162040498Y-39519732D01*
X162129133Y-39503904D01*
X162219210Y-39492457D01*
X162310615Y-39485507D01*
X162403237Y-39483165D01*
X162495859Y-39485507D01*
G37*
%TD.AperFunction*%
%TA.AperFunction,Profile*%
G36*
X162589588Y-22074669D02*
G01*
X162760724Y-22087683D01*
X162929370Y-22109113D01*
X163095317Y-22138747D01*
X163258352Y-22176376D01*
X163418263Y-22221785D01*
X163574839Y-22274765D01*
X163727868Y-22335102D01*
X163877138Y-22402586D01*
X164022438Y-22477004D01*
X164163555Y-22558145D01*
X164300279Y-22645798D01*
X164432397Y-22739750D01*
X164559698Y-22839789D01*
X164681970Y-22945704D01*
X164799001Y-23057284D01*
X164910579Y-23174315D01*
X165016494Y-23296588D01*
X165116532Y-23423890D01*
X165210483Y-23556008D01*
X165298134Y-23692733D01*
X165379274Y-23833851D01*
X165453692Y-23979151D01*
X165521175Y-24128422D01*
X165581512Y-24281451D01*
X165634490Y-24438027D01*
X165679899Y-24597938D01*
X165717527Y-24760972D01*
X165747161Y-24926919D01*
X165768591Y-25095565D01*
X165781604Y-25266699D01*
X165785989Y-25440110D01*
X165781604Y-25613521D01*
X165768591Y-25784655D01*
X165747161Y-25953301D01*
X165717527Y-26119247D01*
X165679899Y-26282282D01*
X165634490Y-26442193D01*
X165581512Y-26598769D01*
X165521175Y-26751798D01*
X165453692Y-26901068D01*
X165379274Y-27046369D01*
X165298134Y-27187487D01*
X165210483Y-27324211D01*
X165116532Y-27456330D01*
X165016494Y-27583632D01*
X164910579Y-27705904D01*
X164799001Y-27822936D01*
X164681970Y-27934515D01*
X164559698Y-28040431D01*
X164432397Y-28140470D01*
X164300279Y-28234422D01*
X164163555Y-28322074D01*
X164022438Y-28403215D01*
X163877138Y-28477633D01*
X163727868Y-28545117D01*
X163574839Y-28605455D01*
X163418263Y-28658434D01*
X163258352Y-28703844D01*
X163095317Y-28741472D01*
X162929370Y-28771107D01*
X162760724Y-28792537D01*
X162589588Y-28805550D01*
X162416177Y-28809935D01*
X162242765Y-28805550D01*
X162071630Y-28792537D01*
X161902983Y-28771107D01*
X161737036Y-28741472D01*
X161574001Y-28703844D01*
X161414089Y-28658434D01*
X161257513Y-28605455D01*
X161104484Y-28545117D01*
X160955213Y-28477633D01*
X160809912Y-28403215D01*
X160668794Y-28322074D01*
X160532070Y-28234422D01*
X160399951Y-28140470D01*
X160272649Y-28040431D01*
X160150377Y-27934515D01*
X160033345Y-27822936D01*
X159921766Y-27705904D01*
X159815851Y-27583632D01*
X159715812Y-27456330D01*
X159621860Y-27324211D01*
X159534208Y-27187487D01*
X159453067Y-27046369D01*
X159378649Y-26901068D01*
X159311166Y-26751798D01*
X159250829Y-26598769D01*
X159197849Y-26442193D01*
X159152440Y-26282282D01*
X159114812Y-26119247D01*
X159085177Y-25953301D01*
X159063747Y-25784655D01*
X159050734Y-25613521D01*
X159046349Y-25440110D01*
X159050734Y-25266699D01*
X159063747Y-25095565D01*
X159085177Y-24926919D01*
X159114812Y-24760972D01*
X159152440Y-24597938D01*
X159197849Y-24438027D01*
X159250829Y-24281451D01*
X159311166Y-24128422D01*
X159378649Y-23979151D01*
X159453067Y-23833851D01*
X159534208Y-23692733D01*
X159621860Y-23556008D01*
X159715812Y-23423890D01*
X159815851Y-23296588D01*
X159921766Y-23174315D01*
X160033345Y-23057284D01*
X160150377Y-22945704D01*
X160272649Y-22839789D01*
X160399951Y-22739750D01*
X160532070Y-22645798D01*
X160668794Y-22558145D01*
X160809912Y-22477004D01*
X160955213Y-22402586D01*
X161104484Y-22335102D01*
X161257513Y-22274765D01*
X161414089Y-22221785D01*
X161574001Y-22176376D01*
X161737036Y-22138747D01*
X161902983Y-22109113D01*
X162071630Y-22087683D01*
X162242765Y-22074669D01*
X162416177Y-22070285D01*
X162589588Y-22074669D01*
G37*
%TD.AperFunction*%
%TA.AperFunction,Profile*%
G36*
X172040131Y-61329148D02*
G01*
X172131542Y-61336099D01*
X172221625Y-61347546D01*
X172310265Y-61363376D01*
X172397350Y-61383475D01*
X172482767Y-61407730D01*
X172566403Y-61436029D01*
X172648144Y-61468259D01*
X172727877Y-61504305D01*
X172805490Y-61544056D01*
X172880868Y-61587397D01*
X172953900Y-61634217D01*
X173024472Y-61684401D01*
X173092470Y-61737837D01*
X173157783Y-61794412D01*
X173220296Y-61854012D01*
X173279896Y-61916525D01*
X173336472Y-61981837D01*
X173389908Y-62049835D01*
X173440093Y-62120407D01*
X173486913Y-62193438D01*
X173530255Y-62268817D01*
X173570006Y-62346429D01*
X173606052Y-62426162D01*
X173638282Y-62507903D01*
X173666581Y-62591538D01*
X173690837Y-62676955D01*
X173710936Y-62764040D01*
X173726766Y-62852680D01*
X173738213Y-62942762D01*
X173745164Y-63034174D01*
X173747506Y-63126801D01*
X173745164Y-63219429D01*
X173738213Y-63310841D01*
X173726766Y-63400924D01*
X173710936Y-63489565D01*
X173690837Y-63576650D01*
X173666581Y-63662067D01*
X173638282Y-63745702D01*
X173606052Y-63827443D01*
X173570006Y-63907176D01*
X173530255Y-63984789D01*
X173486913Y-64060167D01*
X173440093Y-64133199D01*
X173389908Y-64203771D01*
X173336472Y-64271769D01*
X173279896Y-64337081D01*
X173220296Y-64399594D01*
X173157783Y-64459194D01*
X173092470Y-64515769D01*
X173024472Y-64569205D01*
X172953900Y-64619390D01*
X172880868Y-64666209D01*
X172805490Y-64709551D01*
X172727877Y-64749302D01*
X172648144Y-64785348D01*
X172566403Y-64817577D01*
X172482767Y-64845876D01*
X172397350Y-64870132D01*
X172310265Y-64890231D01*
X172221625Y-64906061D01*
X172131542Y-64917508D01*
X172040131Y-64924459D01*
X171947503Y-64926801D01*
X171854875Y-64924459D01*
X171763464Y-64917508D01*
X171673381Y-64906061D01*
X171584741Y-64890231D01*
X171497656Y-64870132D01*
X171412239Y-64845876D01*
X171328603Y-64817577D01*
X171246862Y-64785348D01*
X171167129Y-64749302D01*
X171089517Y-64709551D01*
X171014138Y-64666209D01*
X170941106Y-64619390D01*
X170870534Y-64569205D01*
X170802536Y-64515769D01*
X170737223Y-64459194D01*
X170674710Y-64399594D01*
X170615110Y-64337081D01*
X170558535Y-64271769D01*
X170505098Y-64203771D01*
X170454913Y-64133199D01*
X170408093Y-64060167D01*
X170364751Y-63984789D01*
X170325001Y-63907176D01*
X170288954Y-63827443D01*
X170256724Y-63745702D01*
X170228425Y-63662067D01*
X170204169Y-63576650D01*
X170184070Y-63489565D01*
X170168240Y-63400924D01*
X170156793Y-63310841D01*
X170149842Y-63219429D01*
X170147500Y-63126801D01*
X170149842Y-63034174D01*
X170156793Y-62942762D01*
X170168240Y-62852680D01*
X170184070Y-62764040D01*
X170204169Y-62676955D01*
X170228425Y-62591538D01*
X170256724Y-62507903D01*
X170288954Y-62426162D01*
X170325001Y-62346429D01*
X170364751Y-62268817D01*
X170408093Y-62193438D01*
X170454913Y-62120407D01*
X170505098Y-62049835D01*
X170558535Y-61981837D01*
X170615110Y-61916525D01*
X170674710Y-61854012D01*
X170737223Y-61794412D01*
X170802536Y-61737837D01*
X170870534Y-61684401D01*
X170941106Y-61634217D01*
X171014138Y-61587397D01*
X171089517Y-61544056D01*
X171167129Y-61504305D01*
X171246862Y-61468259D01*
X171328603Y-61436029D01*
X171412239Y-61407730D01*
X171497656Y-61383475D01*
X171584741Y-61363376D01*
X171673381Y-61347546D01*
X171763464Y-61336099D01*
X171854875Y-61329148D01*
X171947503Y-61326806D01*
X172040131Y-61329148D01*
G37*
%TD.AperFunction*%
%TA.AperFunction,Profile*%
G36*
X181945720Y-78987970D02*
G01*
X182092995Y-78999169D01*
X182238128Y-79017611D01*
X182380937Y-79043114D01*
X182521241Y-79075496D01*
X182658857Y-79114575D01*
X182793602Y-79160168D01*
X182925296Y-79212093D01*
X183053755Y-79270168D01*
X183178797Y-79334211D01*
X183300240Y-79404039D01*
X183417901Y-79479471D01*
X183531600Y-79560324D01*
X183641153Y-79646416D01*
X183746378Y-79737564D01*
X183847093Y-79833587D01*
X183943115Y-79934302D01*
X184034263Y-80039528D01*
X184120355Y-80149081D01*
X184201208Y-80262779D01*
X184276639Y-80380442D01*
X184346467Y-80501885D01*
X184410510Y-80626927D01*
X184468585Y-80755386D01*
X184520510Y-80887080D01*
X184566103Y-81021826D01*
X184605181Y-81159442D01*
X184637563Y-81299747D01*
X184663066Y-81442556D01*
X184681508Y-81587690D01*
X184692707Y-81734964D01*
X184696481Y-81884198D01*
X184692707Y-82033432D01*
X184681508Y-82180707D01*
X184663066Y-82325840D01*
X184637563Y-82468650D01*
X184605181Y-82608954D01*
X184566103Y-82746570D01*
X184520510Y-82881316D01*
X184468585Y-83013009D01*
X184410510Y-83141468D01*
X184346467Y-83266511D01*
X184276639Y-83387954D01*
X184201208Y-83505616D01*
X184120355Y-83619314D01*
X184034263Y-83728867D01*
X183943115Y-83834092D01*
X183847093Y-83934807D01*
X183746378Y-84030830D01*
X183641153Y-84121978D01*
X183531600Y-84208070D01*
X183417901Y-84288923D01*
X183300240Y-84364354D01*
X183178797Y-84434182D01*
X183053755Y-84498225D01*
X182925296Y-84556300D01*
X182793602Y-84608225D01*
X182658857Y-84653818D01*
X182521241Y-84692896D01*
X182380937Y-84725278D01*
X182238128Y-84750781D01*
X182092995Y-84769224D01*
X181945720Y-84780422D01*
X181796487Y-84784196D01*
X181647252Y-84780422D01*
X181499976Y-84769224D01*
X181354842Y-84750781D01*
X181212032Y-84725278D01*
X181071727Y-84692896D01*
X180934110Y-84653818D01*
X180799363Y-84608225D01*
X180667669Y-84556300D01*
X180539209Y-84498225D01*
X180414167Y-84434182D01*
X180292723Y-84364354D01*
X180175061Y-84288923D01*
X180061362Y-84208070D01*
X179951808Y-84121978D01*
X179846583Y-84030830D01*
X179745868Y-83934807D01*
X179649845Y-83834092D01*
X179558696Y-83728867D01*
X179472604Y-83619314D01*
X179391752Y-83505616D01*
X179316320Y-83387954D01*
X179246491Y-83266511D01*
X179182449Y-83141468D01*
X179124374Y-83013009D01*
X179072449Y-82881316D01*
X179026856Y-82746570D01*
X178987777Y-82608954D01*
X178955395Y-82468650D01*
X178929892Y-82325840D01*
X178911450Y-82180707D01*
X178900251Y-82033432D01*
X178896478Y-81884198D01*
X178900251Y-81734964D01*
X178911450Y-81587690D01*
X178929892Y-81442556D01*
X178955395Y-81299747D01*
X178987777Y-81159442D01*
X179026856Y-81021826D01*
X179072449Y-80887080D01*
X179124374Y-80755386D01*
X179182449Y-80626927D01*
X179246491Y-80501885D01*
X179316320Y-80380442D01*
X179391752Y-80262779D01*
X179472604Y-80149081D01*
X179558696Y-80039528D01*
X179649845Y-79934302D01*
X179745868Y-79833587D01*
X179846583Y-79737564D01*
X179951808Y-79646416D01*
X180061362Y-79560324D01*
X180175061Y-79479471D01*
X180292723Y-79404039D01*
X180414167Y-79334211D01*
X180539209Y-79270168D01*
X180667669Y-79212093D01*
X180799363Y-79160168D01*
X180934110Y-79114575D01*
X181071727Y-79075496D01*
X181212032Y-79043114D01*
X181354842Y-79017611D01*
X181499976Y-78999169D01*
X181647252Y-78987970D01*
X181796487Y-78984197D01*
X181945720Y-78987970D01*
G37*
%TD.AperFunction*%
%TA.AperFunction,Profile*%
G36*
X183707483Y-122829781D02*
G01*
X183798889Y-122836732D01*
X183888966Y-122848178D01*
X183977602Y-122864007D01*
X184064681Y-122884105D01*
X184150093Y-122908359D01*
X184233724Y-122936656D01*
X184315460Y-122968884D01*
X184395188Y-123004928D01*
X184472796Y-123044677D01*
X184548170Y-123088016D01*
X184621198Y-123134833D01*
X184691765Y-123185014D01*
X184759760Y-123238447D01*
X184825069Y-123295018D01*
X184887578Y-123354615D01*
X184947175Y-123417124D01*
X185003747Y-123482432D01*
X185057180Y-123550427D01*
X185107362Y-123620994D01*
X185154179Y-123694021D01*
X185197519Y-123769395D01*
X185237267Y-123847003D01*
X185273312Y-123926731D01*
X185305540Y-124008467D01*
X185333837Y-124092097D01*
X185358092Y-124177508D01*
X185378190Y-124264588D01*
X185394019Y-124353223D01*
X185405465Y-124443300D01*
X185412416Y-124534706D01*
X185414758Y-124627328D01*
X185412416Y-124719950D01*
X185405465Y-124811357D01*
X185394019Y-124901435D01*
X185378190Y-124990070D01*
X185358092Y-125077150D01*
X185333837Y-125162562D01*
X185305540Y-125246192D01*
X185273312Y-125327928D01*
X185237267Y-125407657D01*
X185197519Y-125485264D01*
X185154179Y-125560638D01*
X185107362Y-125633665D01*
X185057180Y-125704232D01*
X185003747Y-125772227D01*
X184947175Y-125837535D01*
X184887578Y-125900043D01*
X184825069Y-125959640D01*
X184759760Y-126016211D01*
X184691765Y-126069644D01*
X184621198Y-126119825D01*
X184548170Y-126166642D01*
X184472796Y-126209981D01*
X184395188Y-126249729D01*
X184315460Y-126285773D01*
X184233724Y-126318000D01*
X184150093Y-126346298D01*
X184064681Y-126370552D01*
X183977602Y-126390649D01*
X183888966Y-126406478D01*
X183798889Y-126417924D01*
X183707483Y-126424875D01*
X183614861Y-126427217D01*
X183522240Y-126424875D01*
X183430834Y-126417924D01*
X183340757Y-126406478D01*
X183252122Y-126390649D01*
X183165042Y-126370552D01*
X183079631Y-126346298D01*
X182996001Y-126318000D01*
X182914266Y-126285773D01*
X182834538Y-126249729D01*
X182756930Y-126209981D01*
X182681557Y-126166642D01*
X182608530Y-126119825D01*
X182537963Y-126069644D01*
X182469969Y-126016211D01*
X182404661Y-125959640D01*
X182342153Y-125900043D01*
X182282556Y-125837535D01*
X182225985Y-125772227D01*
X182172552Y-125704232D01*
X182122371Y-125633665D01*
X182075555Y-125560638D01*
X182032216Y-125485264D01*
X181992468Y-125407657D01*
X181956424Y-125327928D01*
X181924196Y-125246192D01*
X181895899Y-125162562D01*
X181871645Y-125077150D01*
X181851548Y-124990070D01*
X181835719Y-124901435D01*
X181824273Y-124811357D01*
X181817322Y-124719950D01*
X181814980Y-124627328D01*
X181817322Y-124534706D01*
X181824273Y-124443300D01*
X181835719Y-124353223D01*
X181851548Y-124264588D01*
X181871645Y-124177508D01*
X181895899Y-124092097D01*
X181924196Y-124008467D01*
X181956424Y-123926731D01*
X181992468Y-123847003D01*
X182032216Y-123769395D01*
X182075555Y-123694021D01*
X182122371Y-123620994D01*
X182172552Y-123550427D01*
X182225985Y-123482432D01*
X182282556Y-123417124D01*
X182342153Y-123354615D01*
X182404661Y-123295018D01*
X182469969Y-123238447D01*
X182537963Y-123185014D01*
X182608530Y-123134833D01*
X182681557Y-123088016D01*
X182756930Y-123044677D01*
X182834538Y-123004928D01*
X182914266Y-122968884D01*
X182996001Y-122936656D01*
X183079631Y-122908359D01*
X183165042Y-122884105D01*
X183252122Y-122864007D01*
X183340757Y-122848178D01*
X183430834Y-122836732D01*
X183522240Y-122829781D01*
X183614861Y-122827439D01*
X183707483Y-122829781D01*
G37*
%TD.AperFunction*%
%TA.AperFunction,Profile*%
G36*
X209031712Y-130763640D02*
G01*
X209202847Y-130776654D01*
X209371494Y-130798084D01*
X209537440Y-130827719D01*
X209700475Y-130865347D01*
X209860386Y-130910757D01*
X210016962Y-130963736D01*
X210169991Y-131024074D01*
X210319261Y-131091558D01*
X210464561Y-131165976D01*
X210605679Y-131247118D01*
X210742402Y-131334770D01*
X210874520Y-131428722D01*
X211001821Y-131528762D01*
X211124093Y-131634677D01*
X211241124Y-131746257D01*
X211352703Y-131863289D01*
X211458617Y-131985562D01*
X211558655Y-132112863D01*
X211652606Y-132244982D01*
X211740258Y-132381707D01*
X211821398Y-132522825D01*
X211895815Y-132668125D01*
X211963298Y-132817396D01*
X212023635Y-132970425D01*
X212076614Y-133127001D01*
X212122023Y-133286912D01*
X212159650Y-133449946D01*
X212189285Y-133615892D01*
X212210714Y-133784538D01*
X212223727Y-133955672D01*
X212228112Y-134129083D01*
X212223727Y-134302493D01*
X212210714Y-134473627D01*
X212189285Y-134642273D01*
X212159650Y-134808219D01*
X212122023Y-134971253D01*
X212076614Y-135131164D01*
X212023635Y-135287740D01*
X211963298Y-135440769D01*
X211895815Y-135590040D01*
X211821398Y-135735340D01*
X211740258Y-135876459D01*
X211652606Y-136013183D01*
X211558655Y-136145302D01*
X211458617Y-136272604D01*
X211352703Y-136394876D01*
X211241124Y-136511909D01*
X211124093Y-136623488D01*
X211001821Y-136729404D01*
X210874520Y-136829443D01*
X210742402Y-136923395D01*
X210605679Y-137011048D01*
X210464561Y-137092189D01*
X210319261Y-137166608D01*
X210169991Y-137234092D01*
X210016962Y-137294429D01*
X209860386Y-137347409D01*
X209700475Y-137392819D01*
X209537440Y-137430447D01*
X209371494Y-137460082D01*
X209202847Y-137481512D01*
X209031712Y-137494525D01*
X208858300Y-137498910D01*
X208684888Y-137494525D01*
X208513753Y-137481512D01*
X208345106Y-137460082D01*
X208179159Y-137430447D01*
X208016124Y-137392819D01*
X207856213Y-137347409D01*
X207699636Y-137294429D01*
X207546607Y-137234092D01*
X207397336Y-137166608D01*
X207252036Y-137092189D01*
X207110918Y-137011048D01*
X206974193Y-136923395D01*
X206842074Y-136829443D01*
X206714773Y-136729404D01*
X206592500Y-136623488D01*
X206475469Y-136511909D01*
X206363889Y-136394876D01*
X206257974Y-136272604D01*
X206157935Y-136145302D01*
X206063984Y-136013183D01*
X205976332Y-135876459D01*
X205895191Y-135735340D01*
X205820773Y-135590040D01*
X205753289Y-135440769D01*
X205692952Y-135287740D01*
X205639973Y-135131164D01*
X205594563Y-134971253D01*
X205556935Y-134808219D01*
X205527301Y-134642273D01*
X205505871Y-134473627D01*
X205492858Y-134302493D01*
X205488473Y-134129083D01*
X205492858Y-133955672D01*
X205505871Y-133784538D01*
X205527301Y-133615892D01*
X205556935Y-133449946D01*
X205594563Y-133286912D01*
X205639973Y-133127001D01*
X205692952Y-132970425D01*
X205753289Y-132817396D01*
X205820773Y-132668125D01*
X205895191Y-132522825D01*
X205976332Y-132381707D01*
X206063984Y-132244982D01*
X206157935Y-132112863D01*
X206257974Y-131985562D01*
X206363889Y-131863289D01*
X206475469Y-131746257D01*
X206592500Y-131634677D01*
X206714773Y-131528762D01*
X206842074Y-131428722D01*
X206974193Y-131334770D01*
X207110918Y-131247118D01*
X207252036Y-131165976D01*
X207397336Y-131091558D01*
X207546607Y-131024074D01*
X207699636Y-130963736D01*
X207856213Y-130910757D01*
X208016124Y-130865347D01*
X208179159Y-130827719D01*
X208345106Y-130798084D01*
X208513753Y-130776654D01*
X208684888Y-130763640D01*
X208858300Y-130759255D01*
X209031712Y-130763640D01*
G37*
%TD.AperFunction*%
%TA.AperFunction,Profile*%
G36*
X219522882Y-80409959D02*
G01*
X219614289Y-80416909D01*
X219704366Y-80428355D01*
X219793001Y-80444184D01*
X219880081Y-80464282D01*
X219965492Y-80488536D01*
X220049123Y-80516833D01*
X220130859Y-80549061D01*
X220210587Y-80585105D01*
X220288195Y-80624853D01*
X220363570Y-80668192D01*
X220436597Y-80715009D01*
X220507165Y-80765190D01*
X220575159Y-80818623D01*
X220640468Y-80875194D01*
X220702977Y-80934791D01*
X220762574Y-80997300D01*
X220819146Y-81062608D01*
X220872579Y-81130602D01*
X220922761Y-81201170D01*
X220969578Y-81274197D01*
X221012918Y-81349571D01*
X221052666Y-81427178D01*
X221088711Y-81506907D01*
X221120939Y-81588642D01*
X221149237Y-81672273D01*
X221173491Y-81757684D01*
X221193589Y-81844764D01*
X221209418Y-81933400D01*
X221220864Y-82023477D01*
X221227815Y-82114883D01*
X221230157Y-82207505D01*
X221227815Y-82300127D01*
X221220864Y-82391533D01*
X221209418Y-82481610D01*
X221193589Y-82570245D01*
X221173491Y-82657325D01*
X221149237Y-82742736D01*
X221120939Y-82826367D01*
X221088711Y-82908102D01*
X221052666Y-82987831D01*
X221012918Y-83065438D01*
X220969578Y-83140812D01*
X220922761Y-83213839D01*
X220872579Y-83284406D01*
X220819146Y-83352401D01*
X220762574Y-83417709D01*
X220702977Y-83480218D01*
X220640468Y-83539815D01*
X220575159Y-83596386D01*
X220507165Y-83649819D01*
X220436597Y-83700001D01*
X220363570Y-83746817D01*
X220288195Y-83790157D01*
X220210587Y-83829905D01*
X220130859Y-83865949D01*
X220049123Y-83898177D01*
X219965492Y-83926474D01*
X219880081Y-83950728D01*
X219793001Y-83970826D01*
X219704366Y-83986655D01*
X219614289Y-83998101D01*
X219522882Y-84005052D01*
X219430261Y-84007394D01*
X219337639Y-84005052D01*
X219246233Y-83998101D01*
X219156156Y-83986655D01*
X219067521Y-83970826D01*
X218980442Y-83950728D01*
X218895030Y-83926474D01*
X218811400Y-83898177D01*
X218729665Y-83865949D01*
X218649937Y-83829905D01*
X218572329Y-83790157D01*
X218496956Y-83746817D01*
X218423929Y-83700001D01*
X218353362Y-83649819D01*
X218285368Y-83596386D01*
X218220060Y-83539815D01*
X218157552Y-83480218D01*
X218097955Y-83417709D01*
X218041384Y-83352401D01*
X217987952Y-83284406D01*
X217937770Y-83213839D01*
X217890954Y-83140812D01*
X217847615Y-83065438D01*
X217807867Y-82987831D01*
X217771823Y-82908102D01*
X217739596Y-82826367D01*
X217711299Y-82742736D01*
X217687044Y-82657325D01*
X217666947Y-82570245D01*
X217651118Y-82481610D01*
X217639672Y-82391533D01*
X217632722Y-82300127D01*
X217630380Y-82207505D01*
X217632722Y-82114883D01*
X217639672Y-82023477D01*
X217651118Y-81933400D01*
X217666947Y-81844764D01*
X217687044Y-81757684D01*
X217711299Y-81672273D01*
X217739596Y-81588642D01*
X217771823Y-81506907D01*
X217807867Y-81427178D01*
X217847615Y-81349571D01*
X217890954Y-81274197D01*
X217937770Y-81201170D01*
X217987952Y-81130602D01*
X218041384Y-81062608D01*
X218097955Y-80997300D01*
X218157552Y-80934791D01*
X218220060Y-80875194D01*
X218285368Y-80818623D01*
X218353362Y-80765190D01*
X218423929Y-80715009D01*
X218496956Y-80668192D01*
X218572329Y-80624853D01*
X218649937Y-80585105D01*
X218729665Y-80549061D01*
X218811400Y-80516833D01*
X218895030Y-80488536D01*
X218980442Y-80464282D01*
X219067521Y-80444184D01*
X219156156Y-80428355D01*
X219246233Y-80416909D01*
X219337639Y-80409959D01*
X219430261Y-80407617D01*
X219522882Y-80409959D01*
G37*
%TD.AperFunction*%
%TA.AperFunction,Profile*%
G36*
X224385125Y-34316581D02*
G01*
X224476529Y-34323531D01*
X224566605Y-34334977D01*
X224655239Y-34350806D01*
X224742318Y-34370904D01*
X224827729Y-34395158D01*
X224911358Y-34423455D01*
X224993094Y-34455683D01*
X225072821Y-34491727D01*
X225150429Y-34531475D01*
X225225802Y-34574815D01*
X225298829Y-34621631D01*
X225369396Y-34671813D01*
X225437390Y-34725246D01*
X225502698Y-34781817D01*
X225565207Y-34841414D01*
X225624804Y-34903923D01*
X225681376Y-34969231D01*
X225734809Y-35037226D01*
X225784990Y-35107793D01*
X225831807Y-35180820D01*
X225875147Y-35256194D01*
X225914895Y-35333802D01*
X225950940Y-35413530D01*
X225983167Y-35495266D01*
X226011465Y-35578896D01*
X226035719Y-35664308D01*
X226055818Y-35751388D01*
X226071646Y-35840023D01*
X226083093Y-35930101D01*
X226090043Y-36021507D01*
X226092385Y-36114129D01*
X226090043Y-36206751D01*
X226083093Y-36298158D01*
X226071646Y-36388235D01*
X226055818Y-36476870D01*
X226035719Y-36563950D01*
X226011465Y-36649362D01*
X225983167Y-36732992D01*
X225950940Y-36814728D01*
X225914895Y-36894456D01*
X225875147Y-36972064D01*
X225831807Y-37047438D01*
X225784990Y-37120465D01*
X225734809Y-37191033D01*
X225681376Y-37259027D01*
X225624804Y-37324335D01*
X225565207Y-37386844D01*
X225502698Y-37446441D01*
X225437390Y-37503012D01*
X225369396Y-37556445D01*
X225298829Y-37606627D01*
X225225802Y-37653444D01*
X225150429Y-37696783D01*
X225072821Y-37736531D01*
X224993094Y-37772575D01*
X224911358Y-37804803D01*
X224827729Y-37833100D01*
X224742318Y-37857354D01*
X224655239Y-37877452D01*
X224566605Y-37893281D01*
X224476529Y-37904727D01*
X224385125Y-37911678D01*
X224292504Y-37914020D01*
X224199882Y-37911678D01*
X224108476Y-37904727D01*
X224018399Y-37893281D01*
X223929764Y-37877452D01*
X223842684Y-37857354D01*
X223757272Y-37833100D01*
X223673642Y-37804803D01*
X223591906Y-37772575D01*
X223512177Y-37736531D01*
X223434570Y-37696783D01*
X223359195Y-37653444D01*
X223286168Y-37606627D01*
X223215600Y-37556445D01*
X223147606Y-37503012D01*
X223082297Y-37446441D01*
X223019788Y-37386844D01*
X222960191Y-37324335D01*
X222903619Y-37259027D01*
X222850185Y-37191033D01*
X222800004Y-37120465D01*
X222753186Y-37047438D01*
X222709847Y-36972064D01*
X222670098Y-36894456D01*
X222634054Y-36814728D01*
X222601826Y-36732992D01*
X222573528Y-36649362D01*
X222549274Y-36563950D01*
X222529176Y-36476870D01*
X222513347Y-36388235D01*
X222501901Y-36298158D01*
X222494950Y-36206751D01*
X222492608Y-36114129D01*
X222494950Y-36021507D01*
X222501901Y-35930101D01*
X222513347Y-35840023D01*
X222529176Y-35751388D01*
X222549274Y-35664308D01*
X222573528Y-35578896D01*
X222601826Y-35495266D01*
X222634054Y-35413530D01*
X222670098Y-35333802D01*
X222709847Y-35256194D01*
X222753186Y-35180820D01*
X222800004Y-35107793D01*
X222850185Y-35037226D01*
X222903619Y-34969231D01*
X222960191Y-34903923D01*
X223019788Y-34841414D01*
X223082297Y-34781817D01*
X223147606Y-34725246D01*
X223215600Y-34671813D01*
X223286168Y-34621631D01*
X223359195Y-34574815D01*
X223434570Y-34531475D01*
X223512177Y-34491727D01*
X223591906Y-34455683D01*
X223673642Y-34423455D01*
X223757272Y-34395158D01*
X223842684Y-34370904D01*
X223929764Y-34350806D01*
X224018399Y-34334977D01*
X224108476Y-34323531D01*
X224199882Y-34316581D01*
X224292504Y-34314239D01*
X224385125Y-34316581D01*
G37*
%TD.AperFunction*%
%TA.AperFunction,Profile*%
G36*
X233983826Y-101216058D02*
G01*
X234075237Y-101223009D01*
X234165320Y-101234456D01*
X234253960Y-101250285D01*
X234341046Y-101270385D01*
X234426462Y-101294640D01*
X234510098Y-101322940D01*
X234591839Y-101355169D01*
X234671572Y-101391216D01*
X234749185Y-101430967D01*
X234824563Y-101474309D01*
X234897595Y-101521129D01*
X234968167Y-101571314D01*
X235036165Y-101624750D01*
X235101478Y-101681325D01*
X235163991Y-101740926D01*
X235223592Y-101803439D01*
X235280167Y-101868751D01*
X235333603Y-101936750D01*
X235383788Y-102007322D01*
X235430608Y-102080353D01*
X235473950Y-102155732D01*
X235513701Y-102233345D01*
X235549747Y-102313078D01*
X235581977Y-102394819D01*
X235610276Y-102478454D01*
X235634532Y-102563871D01*
X235654631Y-102650956D01*
X235670461Y-102739597D01*
X235681908Y-102829679D01*
X235688859Y-102921091D01*
X235691201Y-103013719D01*
X235688859Y-103106346D01*
X235681908Y-103197758D01*
X235670461Y-103287840D01*
X235654631Y-103376481D01*
X235634532Y-103463566D01*
X235610276Y-103548983D01*
X235581977Y-103632618D01*
X235549747Y-103714359D01*
X235513701Y-103794093D01*
X235473950Y-103871705D01*
X235430608Y-103947084D01*
X235383788Y-104020116D01*
X235333603Y-104090687D01*
X235280167Y-104158686D01*
X235223592Y-104223998D01*
X235163991Y-104286511D01*
X235101478Y-104346112D01*
X235036165Y-104402687D01*
X234968167Y-104456124D01*
X234897595Y-104506308D01*
X234824563Y-104553128D01*
X234749185Y-104596470D01*
X234671572Y-104636221D01*
X234591839Y-104672268D01*
X234510098Y-104704497D01*
X234426462Y-104732797D01*
X234341046Y-104757053D01*
X234253960Y-104777152D01*
X234165320Y-104792981D01*
X234075237Y-104804428D01*
X233983826Y-104811379D01*
X233891198Y-104813722D01*
X233798571Y-104811379D01*
X233707159Y-104804428D01*
X233617076Y-104792981D01*
X233528436Y-104777152D01*
X233441351Y-104757053D01*
X233355934Y-104732797D01*
X233272298Y-104704497D01*
X233190557Y-104672268D01*
X233110824Y-104636221D01*
X233033212Y-104596470D01*
X232957833Y-104553128D01*
X232884801Y-104506308D01*
X232814229Y-104456124D01*
X232746231Y-104402687D01*
X232680918Y-104346112D01*
X232618405Y-104286511D01*
X232558805Y-104223998D01*
X232502230Y-104158686D01*
X232448793Y-104090687D01*
X232398608Y-104020116D01*
X232351788Y-103947084D01*
X232308447Y-103871705D01*
X232268696Y-103794093D01*
X232232649Y-103714359D01*
X232200419Y-103632618D01*
X232172120Y-103548983D01*
X232147864Y-103463566D01*
X232127765Y-103376481D01*
X232111935Y-103287840D01*
X232100488Y-103197758D01*
X232093537Y-103106346D01*
X232091195Y-103013719D01*
X232093537Y-102921091D01*
X232100488Y-102829679D01*
X232111935Y-102739597D01*
X232127765Y-102650956D01*
X232147864Y-102563871D01*
X232172120Y-102478454D01*
X232200419Y-102394819D01*
X232232649Y-102313078D01*
X232268696Y-102233345D01*
X232308447Y-102155732D01*
X232351788Y-102080353D01*
X232398608Y-102007322D01*
X232448793Y-101936750D01*
X232502230Y-101868751D01*
X232558805Y-101803439D01*
X232618405Y-101740926D01*
X232680918Y-101681325D01*
X232746231Y-101624750D01*
X232814229Y-101571314D01*
X232884801Y-101521129D01*
X232957833Y-101474309D01*
X233033212Y-101430967D01*
X233110824Y-101391216D01*
X233190557Y-101355169D01*
X233272298Y-101322940D01*
X233355934Y-101294640D01*
X233441351Y-101270385D01*
X233528436Y-101250285D01*
X233617076Y-101234456D01*
X233707159Y-101223009D01*
X233798571Y-101216058D01*
X233891198Y-101213716D01*
X233983826Y-101216058D01*
G37*
%TD.AperFunction*%
%TA.AperFunction,Profile*%
G36*
X247916483Y-39471045D02*
G01*
X248007889Y-39477996D01*
X248097966Y-39489442D01*
X248186601Y-39505271D01*
X248273681Y-39525369D01*
X248359093Y-39549623D01*
X248442723Y-39577920D01*
X248524459Y-39610147D01*
X248604188Y-39646192D01*
X248681796Y-39685940D01*
X248757170Y-39729279D01*
X248830197Y-39776096D01*
X248900765Y-39826278D01*
X248968760Y-39879711D01*
X249034068Y-39936282D01*
X249096578Y-39995879D01*
X249156175Y-40058388D01*
X249212747Y-40123696D01*
X249266180Y-40191690D01*
X249316362Y-40262258D01*
X249363179Y-40335285D01*
X249406518Y-40410659D01*
X249446267Y-40488266D01*
X249482312Y-40567995D01*
X249514539Y-40649731D01*
X249542837Y-40733361D01*
X249567091Y-40818773D01*
X249587190Y-40905853D01*
X249603018Y-40994488D01*
X249614465Y-41084565D01*
X249621415Y-41175972D01*
X249623757Y-41268594D01*
X249621415Y-41361216D01*
X249614465Y-41452622D01*
X249603018Y-41542700D01*
X249587190Y-41631335D01*
X249567091Y-41718415D01*
X249542837Y-41803826D01*
X249514539Y-41887457D01*
X249482312Y-41969193D01*
X249446267Y-42048921D01*
X249406518Y-42126529D01*
X249363179Y-42201903D01*
X249316362Y-42274930D01*
X249266180Y-42345497D01*
X249212747Y-42413492D01*
X249156175Y-42478800D01*
X249096578Y-42541309D01*
X249034068Y-42600906D01*
X248968760Y-42657477D01*
X248900765Y-42710910D01*
X248830197Y-42761091D01*
X248757170Y-42807908D01*
X248681796Y-42851247D01*
X248604188Y-42890996D01*
X248524459Y-42927040D01*
X248442723Y-42959268D01*
X248359093Y-42987565D01*
X248273681Y-43011819D01*
X248186601Y-43031917D01*
X248097966Y-43047746D01*
X248007889Y-43059192D01*
X247916483Y-43066142D01*
X247823861Y-43068484D01*
X247731239Y-43066142D01*
X247639833Y-43059192D01*
X247549756Y-43047746D01*
X247461121Y-43031917D01*
X247374041Y-43011819D01*
X247288629Y-42987565D01*
X247204999Y-42959268D01*
X247123263Y-42927040D01*
X247043534Y-42890996D01*
X246965926Y-42851247D01*
X246890552Y-42807908D01*
X246817525Y-42761091D01*
X246746957Y-42710910D01*
X246678962Y-42657477D01*
X246613654Y-42600906D01*
X246551145Y-42541309D01*
X246491547Y-42478800D01*
X246434976Y-42413492D01*
X246381542Y-42345497D01*
X246331360Y-42274930D01*
X246284543Y-42201903D01*
X246241204Y-42126529D01*
X246201455Y-42048921D01*
X246165410Y-41969193D01*
X246133183Y-41887457D01*
X246104885Y-41803826D01*
X246080631Y-41718415D01*
X246060533Y-41631335D01*
X246044704Y-41542700D01*
X246033258Y-41452622D01*
X246026307Y-41361216D01*
X246023965Y-41268594D01*
X246026307Y-41175972D01*
X246033258Y-41084565D01*
X246044704Y-40994488D01*
X246060533Y-40905853D01*
X246080631Y-40818773D01*
X246104885Y-40733361D01*
X246133183Y-40649731D01*
X246165410Y-40567995D01*
X246201455Y-40488266D01*
X246241204Y-40410659D01*
X246284543Y-40335285D01*
X246331360Y-40262258D01*
X246381542Y-40191690D01*
X246434976Y-40123696D01*
X246491547Y-40058388D01*
X246551145Y-39995879D01*
X246613654Y-39936282D01*
X246678962Y-39879711D01*
X246746957Y-39826278D01*
X246817525Y-39776096D01*
X246890552Y-39729279D01*
X246965926Y-39685940D01*
X247043534Y-39646192D01*
X247123263Y-39610147D01*
X247204999Y-39577920D01*
X247288629Y-39549623D01*
X247374041Y-39525369D01*
X247461121Y-39505271D01*
X247549756Y-39489442D01*
X247639833Y-39477996D01*
X247731239Y-39471045D01*
X247823861Y-39468703D01*
X247916483Y-39471045D01*
G37*
%TD.AperFunction*%
%TA.AperFunction,Profile*%
G36*
X248115115Y-22094826D02*
G01*
X248286249Y-22107839D01*
X248454895Y-22129269D01*
X248620840Y-22158904D01*
X248783874Y-22196532D01*
X248943785Y-22241942D01*
X249100360Y-22294921D01*
X249253389Y-22355259D01*
X249402659Y-22422742D01*
X249547959Y-22497161D01*
X249689076Y-22578302D01*
X249825800Y-22665954D01*
X249957918Y-22759906D01*
X250085219Y-22859945D01*
X250207492Y-22965860D01*
X250324523Y-23077440D01*
X250436102Y-23194472D01*
X250542017Y-23316744D01*
X250642055Y-23444046D01*
X250736007Y-23576165D01*
X250823659Y-23712889D01*
X250904799Y-23854007D01*
X250979217Y-23999308D01*
X251046701Y-24148578D01*
X251107038Y-24301607D01*
X251160017Y-24458183D01*
X251205426Y-24618094D01*
X251243054Y-24781129D01*
X251272689Y-24947075D01*
X251294119Y-25115721D01*
X251307132Y-25286855D01*
X251311517Y-25460266D01*
X251307132Y-25633677D01*
X251294119Y-25804811D01*
X251272689Y-25973457D01*
X251243054Y-26139403D01*
X251205426Y-26302438D01*
X251160017Y-26462349D01*
X251107038Y-26618925D01*
X251046701Y-26771954D01*
X250979217Y-26921225D01*
X250904799Y-27066525D01*
X250823659Y-27207643D01*
X250736007Y-27344367D01*
X250642055Y-27476486D01*
X250542017Y-27603788D01*
X250436102Y-27726061D01*
X250324523Y-27843092D01*
X250207492Y-27954672D01*
X250085219Y-28060587D01*
X249957918Y-28160627D01*
X249825800Y-28254578D01*
X249689076Y-28342231D01*
X249547959Y-28423372D01*
X249402659Y-28497790D01*
X249253389Y-28565274D01*
X249100360Y-28625611D01*
X248943785Y-28678591D01*
X248783874Y-28724000D01*
X248620840Y-28761629D01*
X248454895Y-28791264D01*
X248286249Y-28812693D01*
X248115115Y-28825707D01*
X247941705Y-28830091D01*
X247768293Y-28825707D01*
X247597158Y-28812693D01*
X247428511Y-28791264D01*
X247262564Y-28761629D01*
X247099529Y-28724000D01*
X246939617Y-28678591D01*
X246783041Y-28625611D01*
X246630011Y-28565274D01*
X246480741Y-28497790D01*
X246335440Y-28423372D01*
X246194322Y-28342231D01*
X246057598Y-28254578D01*
X245925479Y-28160627D01*
X245798177Y-28060587D01*
X245675905Y-27954672D01*
X245558873Y-27843092D01*
X245447294Y-27726061D01*
X245341379Y-27603788D01*
X245241340Y-27476486D01*
X245147388Y-27344367D01*
X245059736Y-27207643D01*
X244978595Y-27066525D01*
X244904177Y-26921225D01*
X244836694Y-26771954D01*
X244776356Y-26618925D01*
X244723377Y-26462349D01*
X244677968Y-26302438D01*
X244640340Y-26139403D01*
X244610705Y-25973457D01*
X244589275Y-25804811D01*
X244576262Y-25633677D01*
X244571877Y-25460266D01*
X244576262Y-25286855D01*
X244589275Y-25115721D01*
X244610705Y-24947075D01*
X244640340Y-24781129D01*
X244677968Y-24618094D01*
X244723377Y-24458183D01*
X244776356Y-24301607D01*
X244836694Y-24148578D01*
X244904177Y-23999308D01*
X244978595Y-23854007D01*
X245059736Y-23712889D01*
X245147388Y-23576165D01*
X245241340Y-23444046D01*
X245341379Y-23316744D01*
X245447294Y-23194472D01*
X245558873Y-23077440D01*
X245675905Y-22965860D01*
X245798177Y-22859945D01*
X245925479Y-22759906D01*
X246057598Y-22665954D01*
X246194322Y-22578302D01*
X246335440Y-22497161D01*
X246480741Y-22422742D01*
X246630011Y-22355259D01*
X246783041Y-22294921D01*
X246939617Y-22241942D01*
X247099529Y-22196532D01*
X247262564Y-22158904D01*
X247428511Y-22129269D01*
X247597158Y-22107839D01*
X247768293Y-22094826D01*
X247941705Y-22090441D01*
X248115115Y-22094826D01*
G37*
%TD.AperFunction*%
%TA.AperFunction,Profile*%
G36*
X256888041Y-109281258D02*
G01*
X256979447Y-109288209D01*
X257069524Y-109299655D01*
X257158159Y-109315483D01*
X257245239Y-109335581D01*
X257330650Y-109359835D01*
X257414281Y-109388132D01*
X257496017Y-109420360D01*
X257575745Y-109456404D01*
X257653353Y-109496152D01*
X257728728Y-109539491D01*
X257801755Y-109586308D01*
X257872323Y-109636489D01*
X257940317Y-109689922D01*
X258005626Y-109746493D01*
X258068135Y-109806089D01*
X258127732Y-109868598D01*
X258184304Y-109933906D01*
X258237737Y-110001900D01*
X258287919Y-110072468D01*
X258334736Y-110145495D01*
X258378076Y-110220869D01*
X258417825Y-110298476D01*
X258453869Y-110378205D01*
X258486097Y-110459941D01*
X258514395Y-110543571D01*
X258538649Y-110628983D01*
X258558747Y-110716063D01*
X258574576Y-110804698D01*
X258586022Y-110894776D01*
X258592973Y-110986182D01*
X258595315Y-111078805D01*
X258592973Y-111171427D01*
X258586022Y-111262833D01*
X258574576Y-111352910D01*
X258558747Y-111441545D01*
X258538649Y-111528625D01*
X258514395Y-111614036D01*
X258486097Y-111697666D01*
X258453869Y-111779402D01*
X258417825Y-111859130D01*
X258378076Y-111936738D01*
X258334736Y-112012112D01*
X258287919Y-112085139D01*
X258237737Y-112155706D01*
X258184304Y-112223700D01*
X258127732Y-112289009D01*
X258068135Y-112351518D01*
X258005626Y-112411114D01*
X257940317Y-112467686D01*
X257872323Y-112521119D01*
X257801755Y-112571300D01*
X257728728Y-112618117D01*
X257653353Y-112661456D01*
X257575745Y-112701205D01*
X257496017Y-112737249D01*
X257414281Y-112769477D01*
X257330650Y-112797774D01*
X257245239Y-112822028D01*
X257158159Y-112842126D01*
X257069524Y-112857955D01*
X256979447Y-112869401D01*
X256888041Y-112876352D01*
X256795419Y-112878694D01*
X256702798Y-112876352D01*
X256611393Y-112869401D01*
X256521318Y-112857955D01*
X256432684Y-112842126D01*
X256345605Y-112822028D01*
X256260194Y-112797774D01*
X256176564Y-112769477D01*
X256094829Y-112737249D01*
X256015102Y-112701205D01*
X255937494Y-112661456D01*
X255862121Y-112618117D01*
X255789094Y-112571300D01*
X255718527Y-112521119D01*
X255650533Y-112467686D01*
X255585225Y-112411114D01*
X255522716Y-112351518D01*
X255463119Y-112289009D01*
X255406547Y-112223700D01*
X255353114Y-112155706D01*
X255302933Y-112085139D01*
X255256116Y-112012112D01*
X255212776Y-111936738D01*
X255173028Y-111859130D01*
X255136983Y-111779402D01*
X255104755Y-111697666D01*
X255076458Y-111614036D01*
X255052204Y-111528625D01*
X255032105Y-111441545D01*
X255016277Y-111352910D01*
X255004830Y-111262833D01*
X254997880Y-111171427D01*
X254995538Y-111078805D01*
X254997880Y-110986182D01*
X255004830Y-110894776D01*
X255016277Y-110804698D01*
X255032105Y-110716063D01*
X255052204Y-110628983D01*
X255076458Y-110543571D01*
X255104755Y-110459941D01*
X255136983Y-110378205D01*
X255173028Y-110298476D01*
X255212776Y-110220869D01*
X255256116Y-110145495D01*
X255302933Y-110072468D01*
X255353114Y-110001900D01*
X255406547Y-109933906D01*
X255463119Y-109868598D01*
X255522716Y-109806089D01*
X255585225Y-109746493D01*
X255650533Y-109689922D01*
X255718527Y-109636489D01*
X255789094Y-109586308D01*
X255862121Y-109539491D01*
X255937494Y-109496152D01*
X256015102Y-109456404D01*
X256094829Y-109420360D01*
X256176564Y-109388132D01*
X256260194Y-109359835D01*
X256345605Y-109335581D01*
X256432684Y-109315483D01*
X256521318Y-109299655D01*
X256611393Y-109288209D01*
X256702798Y-109281258D01*
X256795419Y-109278916D01*
X256888041Y-109281258D01*
G37*
%TD.AperFunction*%
%TA.AperFunction,Profile*%
G36*
X304063425Y-104763711D02*
G01*
X304154831Y-104770661D01*
X304244908Y-104782108D01*
X304333543Y-104797936D01*
X304420623Y-104818034D01*
X304506035Y-104842288D01*
X304589665Y-104870586D01*
X304671401Y-104902813D01*
X304751130Y-104938858D01*
X304828738Y-104978606D01*
X304904112Y-105021945D01*
X304977140Y-105068762D01*
X305047707Y-105118943D01*
X305115702Y-105172376D01*
X305181010Y-105228948D01*
X305243520Y-105288545D01*
X305303117Y-105351054D01*
X305359689Y-105416362D01*
X305413122Y-105484356D01*
X305463304Y-105554923D01*
X305510121Y-105627951D01*
X305553460Y-105703324D01*
X305593209Y-105780932D01*
X305629254Y-105860660D01*
X305661482Y-105942396D01*
X305689779Y-106026026D01*
X305714034Y-106111438D01*
X305734132Y-106198518D01*
X305749960Y-106287153D01*
X305761407Y-106377230D01*
X305768357Y-106468636D01*
X305770699Y-106561257D01*
X305768357Y-106653880D01*
X305761407Y-106745286D01*
X305749960Y-106835364D01*
X305734132Y-106923999D01*
X305714034Y-107011079D01*
X305689779Y-107096491D01*
X305661482Y-107180122D01*
X305629254Y-107261858D01*
X305593209Y-107341586D01*
X305553460Y-107419194D01*
X305510121Y-107494568D01*
X305463304Y-107567595D01*
X305413122Y-107638162D01*
X305359689Y-107706156D01*
X305303117Y-107771464D01*
X305243520Y-107833973D01*
X305181010Y-107893570D01*
X305115702Y-107950141D01*
X305047707Y-108003574D01*
X304977140Y-108053755D01*
X304904112Y-108100571D01*
X304828738Y-108143910D01*
X304751130Y-108183658D01*
X304671401Y-108219703D01*
X304589665Y-108251930D01*
X304506035Y-108280227D01*
X304420623Y-108304481D01*
X304333543Y-108324579D01*
X304244908Y-108340407D01*
X304154831Y-108351853D01*
X304063425Y-108358804D01*
X303970803Y-108361146D01*
X303878181Y-108358804D01*
X303786775Y-108351853D01*
X303696698Y-108340407D01*
X303608063Y-108324579D01*
X303520983Y-108304481D01*
X303435571Y-108280227D01*
X303351941Y-108251930D01*
X303270205Y-108219703D01*
X303190476Y-108183658D01*
X303112869Y-108143910D01*
X303037494Y-108100571D01*
X302964467Y-108053755D01*
X302893899Y-108003574D01*
X302825905Y-107950141D01*
X302760596Y-107893570D01*
X302698087Y-107833973D01*
X302638490Y-107771464D01*
X302581918Y-107706156D01*
X302528484Y-107638162D01*
X302478303Y-107567595D01*
X302431485Y-107494568D01*
X302388146Y-107419194D01*
X302348397Y-107341586D01*
X302312353Y-107261858D01*
X302280125Y-107180122D01*
X302251827Y-107096491D01*
X302227573Y-107011079D01*
X302207475Y-106923999D01*
X302191646Y-106835364D01*
X302180200Y-106745286D01*
X302173249Y-106653880D01*
X302170907Y-106561257D01*
X302173249Y-106468636D01*
X302180200Y-106377230D01*
X302191646Y-106287153D01*
X302207475Y-106198518D01*
X302227573Y-106111438D01*
X302251827Y-106026026D01*
X302280125Y-105942396D01*
X302312353Y-105860660D01*
X302348397Y-105780932D01*
X302388146Y-105703324D01*
X302431485Y-105627951D01*
X302478303Y-105554923D01*
X302528484Y-105484356D01*
X302581918Y-105416362D01*
X302638490Y-105351054D01*
X302698087Y-105288545D01*
X302760596Y-105228948D01*
X302825905Y-105172376D01*
X302893899Y-105118943D01*
X302964467Y-105068762D01*
X303037494Y-105021945D01*
X303112869Y-104978606D01*
X303190476Y-104938858D01*
X303270205Y-104902813D01*
X303351941Y-104870586D01*
X303435571Y-104842288D01*
X303520983Y-104818034D01*
X303608063Y-104797936D01*
X303696698Y-104782108D01*
X303786775Y-104770661D01*
X303878181Y-104763711D01*
X303970803Y-104761369D01*
X304063425Y-104763711D01*
G37*
%TD.AperFunction*%
%TA.AperFunction,Profile*%
G36*
X307044659Y-63652512D02*
G01*
X307136068Y-63659463D01*
X307226147Y-63670909D01*
X307314784Y-63686738D01*
X307401865Y-63706835D01*
X307487278Y-63731090D01*
X307570909Y-63759387D01*
X307652646Y-63791614D01*
X307732375Y-63827659D01*
X307809983Y-63867407D01*
X307885357Y-63910746D01*
X307958385Y-63957563D01*
X308028952Y-64007744D01*
X308096946Y-64061177D01*
X308162254Y-64117748D01*
X308224763Y-64177345D01*
X308284359Y-64239854D01*
X308340930Y-64305162D01*
X308394363Y-64373156D01*
X308444544Y-64443723D01*
X308491360Y-64516750D01*
X308534698Y-64592124D01*
X308574446Y-64669732D01*
X308610490Y-64749460D01*
X308642717Y-64831196D01*
X308671013Y-64914826D01*
X308695267Y-65000238D01*
X308715365Y-65087318D01*
X308731193Y-65175953D01*
X308742639Y-65266030D01*
X308749589Y-65357437D01*
X308751931Y-65450059D01*
X308749589Y-65542681D01*
X308742639Y-65634087D01*
X308731193Y-65724165D01*
X308715365Y-65812800D01*
X308695267Y-65899880D01*
X308671013Y-65985291D01*
X308642717Y-66068922D01*
X308610490Y-66150658D01*
X308574446Y-66230386D01*
X308534698Y-66307994D01*
X308491360Y-66383367D01*
X308444544Y-66456395D01*
X308394363Y-66526962D01*
X308340930Y-66594956D01*
X308284359Y-66660264D01*
X308224763Y-66722773D01*
X308162254Y-66782370D01*
X308096946Y-66838941D01*
X308028952Y-66892374D01*
X307958385Y-66942555D01*
X307885357Y-66989372D01*
X307809983Y-67032711D01*
X307732375Y-67072459D01*
X307652646Y-67108504D01*
X307570909Y-67140731D01*
X307487278Y-67169028D01*
X307401865Y-67193282D01*
X307314784Y-67213380D01*
X307226147Y-67229209D01*
X307136068Y-67240655D01*
X307044659Y-67247606D01*
X306952035Y-67249948D01*
X306859413Y-67247606D01*
X306768007Y-67240655D01*
X306677931Y-67229209D01*
X306589296Y-67213380D01*
X306502217Y-67193282D01*
X306416806Y-67169028D01*
X306333176Y-67140731D01*
X306251441Y-67108504D01*
X306171714Y-67072459D01*
X306094107Y-67032711D01*
X306018734Y-66989372D01*
X305945708Y-66942555D01*
X305875142Y-66892374D01*
X305807149Y-66838941D01*
X305741842Y-66782370D01*
X305679334Y-66722773D01*
X305619738Y-66660264D01*
X305563168Y-66594956D01*
X305509736Y-66526962D01*
X305459555Y-66456395D01*
X305412739Y-66383367D01*
X305369401Y-66307994D01*
X305329654Y-66230386D01*
X305293610Y-66150658D01*
X305261383Y-66068922D01*
X305233087Y-65985291D01*
X305208833Y-65899880D01*
X305188736Y-65812800D01*
X305172907Y-65724165D01*
X305161462Y-65634087D01*
X305154511Y-65542681D01*
X305152169Y-65450059D01*
X305154511Y-65357437D01*
X305161462Y-65266030D01*
X305172907Y-65175953D01*
X305188736Y-65087318D01*
X305208833Y-65000238D01*
X305233087Y-64914826D01*
X305261383Y-64831196D01*
X305293610Y-64749460D01*
X305329654Y-64669732D01*
X305369401Y-64592124D01*
X305412739Y-64516750D01*
X305459555Y-64443723D01*
X305509736Y-64373156D01*
X305563168Y-64305162D01*
X305619738Y-64239854D01*
X305679334Y-64177345D01*
X305741842Y-64117748D01*
X305807149Y-64061177D01*
X305875142Y-64007744D01*
X305945708Y-63957563D01*
X306018734Y-63910746D01*
X306094107Y-63867407D01*
X306171714Y-63827659D01*
X306251441Y-63791614D01*
X306333176Y-63759387D01*
X306416806Y-63731090D01*
X306502217Y-63706835D01*
X306589296Y-63686738D01*
X306677931Y-63670909D01*
X306768007Y-63659463D01*
X306859413Y-63652512D01*
X306952035Y-63650170D01*
X307044659Y-63652512D01*
G37*
%TD.AperFunction*%
%TA.AperFunction,Profile*%
G36*
X307121503Y-128341592D02*
G01*
X307212911Y-128348542D01*
X307302990Y-128359988D01*
X307391627Y-128375817D01*
X307478708Y-128395915D01*
X307564121Y-128420169D01*
X307647753Y-128448466D01*
X307729489Y-128480693D01*
X307809218Y-128516737D01*
X307886826Y-128556485D01*
X307962201Y-128599824D01*
X308035228Y-128646641D01*
X308105795Y-128696822D01*
X308173789Y-128750255D01*
X308239097Y-128806826D01*
X308301606Y-128866423D01*
X308361202Y-128928932D01*
X308417773Y-128994240D01*
X308471206Y-129062234D01*
X308521387Y-129132801D01*
X308568203Y-129205828D01*
X308611542Y-129281202D01*
X308651289Y-129358810D01*
X308687333Y-129438538D01*
X308719560Y-129520274D01*
X308747857Y-129603904D01*
X308772110Y-129689316D01*
X308792208Y-129776396D01*
X308808036Y-129865032D01*
X308819482Y-129955109D01*
X308826432Y-130046516D01*
X308828774Y-130139138D01*
X308826432Y-130231760D01*
X308819482Y-130323166D01*
X308808036Y-130413243D01*
X308792208Y-130501878D01*
X308772110Y-130588958D01*
X308747857Y-130674369D01*
X308719560Y-130758000D01*
X308687333Y-130839735D01*
X308651289Y-130919464D01*
X308611542Y-130997071D01*
X308568203Y-131072445D01*
X308521387Y-131145472D01*
X308471206Y-131216039D01*
X308417773Y-131284034D01*
X308361202Y-131349342D01*
X308301606Y-131411851D01*
X308239097Y-131471448D01*
X308173789Y-131528019D01*
X308105795Y-131581452D01*
X308035228Y-131631634D01*
X307962201Y-131678450D01*
X307886826Y-131721790D01*
X307809218Y-131761538D01*
X307729489Y-131797582D01*
X307647753Y-131829810D01*
X307564121Y-131858107D01*
X307478708Y-131882361D01*
X307391627Y-131902459D01*
X307302990Y-131918288D01*
X307212911Y-131929734D01*
X307121503Y-131936685D01*
X307028878Y-131939027D01*
X306936256Y-131936685D01*
X306844850Y-131929734D01*
X306754773Y-131918288D01*
X306666138Y-131902459D01*
X306579058Y-131882361D01*
X306493646Y-131858107D01*
X306410016Y-131829810D01*
X306328280Y-131797582D01*
X306248551Y-131761538D01*
X306170943Y-131721790D01*
X306095569Y-131678450D01*
X306022542Y-131631634D01*
X305951974Y-131581452D01*
X305883980Y-131528019D01*
X305818671Y-131471448D01*
X305756162Y-131411851D01*
X305696564Y-131349342D01*
X305639993Y-131284034D01*
X305586559Y-131216039D01*
X305536378Y-131145472D01*
X305489560Y-131072445D01*
X305446221Y-130997071D01*
X305406472Y-130919464D01*
X305370428Y-130839735D01*
X305338200Y-130758000D01*
X305309902Y-130674369D01*
X305285648Y-130588958D01*
X305265550Y-130501878D01*
X305249721Y-130413243D01*
X305238275Y-130323166D01*
X305231324Y-130231760D01*
X305228982Y-130139138D01*
X305231324Y-130046516D01*
X305238275Y-129955109D01*
X305249721Y-129865032D01*
X305265550Y-129776396D01*
X305285648Y-129689316D01*
X305309902Y-129603904D01*
X305338200Y-129520274D01*
X305370428Y-129438538D01*
X305406472Y-129358810D01*
X305446221Y-129281202D01*
X305489560Y-129205828D01*
X305536378Y-129132801D01*
X305586559Y-129062234D01*
X305639993Y-128994240D01*
X305696564Y-128928932D01*
X305756162Y-128866423D01*
X305818671Y-128806826D01*
X305883980Y-128750255D01*
X305951974Y-128696822D01*
X306022542Y-128646641D01*
X306095569Y-128599824D01*
X306170943Y-128556485D01*
X306248551Y-128516737D01*
X306328280Y-128480693D01*
X306410016Y-128448466D01*
X306493646Y-128420169D01*
X306579058Y-128395915D01*
X306666138Y-128375817D01*
X306754773Y-128359988D01*
X306844850Y-128348542D01*
X306936256Y-128341592D01*
X307028878Y-128339250D01*
X307121503Y-128341592D01*
G37*
%TD.AperFunction*%
%TA.AperFunction,Profile*%
G36*
X330488934Y-39537301D02*
G01*
X330580343Y-39544251D01*
X330670422Y-39555698D01*
X330759059Y-39571526D01*
X330846140Y-39591624D01*
X330931553Y-39615878D01*
X331015184Y-39644176D01*
X331096921Y-39676403D01*
X331176650Y-39712447D01*
X331254258Y-39752196D01*
X331329632Y-39795535D01*
X331402660Y-39842352D01*
X331473227Y-39892533D01*
X331541221Y-39945966D01*
X331606529Y-40002538D01*
X331669038Y-40062134D01*
X331728634Y-40124643D01*
X331785205Y-40189952D01*
X331838638Y-40257946D01*
X331888818Y-40328513D01*
X331935635Y-40401540D01*
X331978973Y-40476914D01*
X332018721Y-40554522D01*
X332054765Y-40634250D01*
X332086992Y-40715986D01*
X332115288Y-40799617D01*
X332139542Y-40885028D01*
X332159640Y-40972108D01*
X332175468Y-41060744D01*
X332186914Y-41150821D01*
X332193864Y-41242227D01*
X332196206Y-41334849D01*
X332193864Y-41427472D01*
X332186914Y-41518878D01*
X332175468Y-41608955D01*
X332159640Y-41697590D01*
X332139542Y-41784670D01*
X332115288Y-41870082D01*
X332086992Y-41953712D01*
X332054765Y-42035448D01*
X332018721Y-42115177D01*
X331978973Y-42192784D01*
X331935635Y-42268158D01*
X331888818Y-42341186D01*
X331838638Y-42411753D01*
X331785205Y-42479747D01*
X331728634Y-42545055D01*
X331669038Y-42607564D01*
X331606529Y-42667161D01*
X331541221Y-42723733D01*
X331473227Y-42777166D01*
X331402660Y-42827347D01*
X331329632Y-42874164D01*
X331254258Y-42917503D01*
X331176650Y-42957251D01*
X331096921Y-42993296D01*
X331015184Y-43025523D01*
X330931553Y-43053820D01*
X330846140Y-43078075D01*
X330759059Y-43098173D01*
X330670422Y-43114001D01*
X330580343Y-43125447D01*
X330488934Y-43132398D01*
X330396310Y-43134740D01*
X330303688Y-43132398D01*
X330212282Y-43125447D01*
X330122206Y-43114001D01*
X330033571Y-43098173D01*
X329946492Y-43078075D01*
X329861081Y-43053820D01*
X329777451Y-43025523D01*
X329695716Y-42993296D01*
X329615989Y-42957251D01*
X329538382Y-42917503D01*
X329463009Y-42874164D01*
X329389983Y-42827347D01*
X329319417Y-42777166D01*
X329251424Y-42723733D01*
X329186116Y-42667161D01*
X329123609Y-42607564D01*
X329064013Y-42545055D01*
X329007442Y-42479747D01*
X328954011Y-42411753D01*
X328903830Y-42341186D01*
X328857014Y-42268158D01*
X328813676Y-42192784D01*
X328773929Y-42115177D01*
X328737885Y-42035448D01*
X328705658Y-41953712D01*
X328677362Y-41870082D01*
X328653108Y-41784670D01*
X328633011Y-41697590D01*
X328617182Y-41608955D01*
X328605736Y-41518878D01*
X328598786Y-41427472D01*
X328596444Y-41334849D01*
X328598786Y-41242227D01*
X328605736Y-41150821D01*
X328617182Y-41060744D01*
X328633011Y-40972108D01*
X328653108Y-40885028D01*
X328677362Y-40799617D01*
X328705658Y-40715986D01*
X328737885Y-40634250D01*
X328773929Y-40554522D01*
X328813676Y-40476914D01*
X328857014Y-40401540D01*
X328903830Y-40328513D01*
X328954011Y-40257946D01*
X329007442Y-40189952D01*
X329064013Y-40124643D01*
X329123609Y-40062134D01*
X329186116Y-40002538D01*
X329251424Y-39945966D01*
X329319417Y-39892533D01*
X329389983Y-39842352D01*
X329463009Y-39795535D01*
X329538382Y-39752196D01*
X329615989Y-39712447D01*
X329695716Y-39676403D01*
X329777451Y-39644176D01*
X329861081Y-39615878D01*
X329946492Y-39591624D01*
X330033571Y-39571526D01*
X330122206Y-39555698D01*
X330212282Y-39544251D01*
X330303688Y-39537301D01*
X330396310Y-39534959D01*
X330488934Y-39537301D01*
G37*
%TD.AperFunction*%
%TA.AperFunction,Profile*%
G36*
X330490921Y-61790162D02*
G01*
X330582332Y-61797113D01*
X330672415Y-61808560D01*
X330761055Y-61824389D01*
X330848140Y-61844488D01*
X330933556Y-61868744D01*
X331017191Y-61897043D01*
X331098932Y-61929272D01*
X331178664Y-61965319D01*
X331256276Y-62005070D01*
X331331654Y-62048411D01*
X331404686Y-62095231D01*
X331475257Y-62145415D01*
X331543255Y-62198852D01*
X331608566Y-62255426D01*
X331671079Y-62315027D01*
X331730679Y-62377540D01*
X331787253Y-62442852D01*
X331840689Y-62510850D01*
X331890873Y-62581422D01*
X331937692Y-62654453D01*
X331981033Y-62729832D01*
X332020784Y-62807444D01*
X332056830Y-62887177D01*
X332089059Y-62968918D01*
X332117358Y-63052554D01*
X332141613Y-63137971D01*
X332161712Y-63225056D01*
X332177541Y-63313697D01*
X332188988Y-63403779D01*
X332195939Y-63495191D01*
X332198281Y-63587819D01*
X332195939Y-63680447D01*
X332188988Y-63771858D01*
X332177541Y-63861941D01*
X332161712Y-63950581D01*
X332141613Y-64037666D01*
X332117358Y-64123083D01*
X332089059Y-64206718D01*
X332056830Y-64288459D01*
X332020784Y-64368192D01*
X331981033Y-64445805D01*
X331937692Y-64521183D01*
X331890873Y-64594215D01*
X331840689Y-64664786D01*
X331787253Y-64732785D01*
X331730679Y-64798097D01*
X331671079Y-64860610D01*
X331608566Y-64920210D01*
X331543255Y-64976785D01*
X331475257Y-65030222D01*
X331404686Y-65080406D01*
X331331654Y-65127226D01*
X331256276Y-65170568D01*
X331178664Y-65210319D01*
X331098932Y-65246365D01*
X331017191Y-65278595D01*
X330933556Y-65306894D01*
X330848140Y-65331149D01*
X330761055Y-65351249D01*
X330672415Y-65367078D01*
X330582332Y-65378525D01*
X330490921Y-65385476D01*
X330398293Y-65387818D01*
X330305663Y-65385476D01*
X330214249Y-65378525D01*
X330124165Y-65367078D01*
X330035523Y-65351249D01*
X329948437Y-65331149D01*
X329863019Y-65306894D01*
X329779383Y-65278595D01*
X329697642Y-65246365D01*
X329617909Y-65210319D01*
X329540297Y-65170568D01*
X329464919Y-65127226D01*
X329391888Y-65080406D01*
X329321317Y-65030222D01*
X329253320Y-64976785D01*
X329188008Y-64920210D01*
X329125497Y-64860610D01*
X329065898Y-64798097D01*
X329009324Y-64732785D01*
X328955889Y-64664786D01*
X328905706Y-64594215D01*
X328858888Y-64521183D01*
X328815547Y-64445805D01*
X328775798Y-64368192D01*
X328739753Y-64288459D01*
X328707525Y-64206718D01*
X328679227Y-64123083D01*
X328654972Y-64037666D01*
X328634874Y-63950581D01*
X328619045Y-63861941D01*
X328607598Y-63771858D01*
X328600648Y-63680447D01*
X328598306Y-63587819D01*
X328600648Y-63495191D01*
X328607598Y-63403779D01*
X328619045Y-63313697D01*
X328634874Y-63225056D01*
X328654972Y-63137971D01*
X328679227Y-63052554D01*
X328707525Y-62968918D01*
X328739753Y-62887177D01*
X328775798Y-62807444D01*
X328815547Y-62729832D01*
X328858888Y-62654453D01*
X328905706Y-62581422D01*
X328955889Y-62510850D01*
X329009324Y-62442852D01*
X329065898Y-62377540D01*
X329125497Y-62315027D01*
X329188008Y-62255426D01*
X329253320Y-62198852D01*
X329321317Y-62145415D01*
X329391888Y-62095231D01*
X329464919Y-62048411D01*
X329540297Y-62005070D01*
X329617909Y-61965319D01*
X329697642Y-61929272D01*
X329779383Y-61897043D01*
X329863019Y-61868744D01*
X329948437Y-61844488D01*
X330035523Y-61824389D01*
X330124165Y-61808560D01*
X330214249Y-61797113D01*
X330305663Y-61790162D01*
X330398293Y-61787820D01*
X330490921Y-61790162D01*
G37*
%TD.AperFunction*%
%TA.AperFunction,Profile*%
G36*
X340012980Y-83858529D02*
G01*
X340104386Y-83865480D01*
X340194463Y-83876926D01*
X340283098Y-83892754D01*
X340370178Y-83912852D01*
X340455589Y-83937107D01*
X340539220Y-83965404D01*
X340620956Y-83997631D01*
X340700684Y-84033676D01*
X340778292Y-84073424D01*
X340853667Y-84116764D01*
X340926694Y-84163581D01*
X340997262Y-84213762D01*
X341065256Y-84267195D01*
X341130565Y-84323767D01*
X341193074Y-84383364D01*
X341252671Y-84445873D01*
X341309243Y-84511181D01*
X341362676Y-84579176D01*
X341412858Y-84649743D01*
X341459675Y-84722771D01*
X341503015Y-84798145D01*
X341542764Y-84875753D01*
X341578808Y-84955482D01*
X341611036Y-85037218D01*
X341639334Y-85120848D01*
X341663588Y-85206261D01*
X341683686Y-85293341D01*
X341699515Y-85381976D01*
X341710961Y-85472054D01*
X341717912Y-85563461D01*
X341720254Y-85656083D01*
X341717912Y-85748704D01*
X341710961Y-85840110D01*
X341699515Y-85930186D01*
X341683686Y-86018821D01*
X341663588Y-86105900D01*
X341639334Y-86191311D01*
X341611036Y-86274941D01*
X341578808Y-86356677D01*
X341542764Y-86436405D01*
X341503015Y-86514013D01*
X341459675Y-86589387D01*
X341412858Y-86662414D01*
X341362676Y-86732981D01*
X341309243Y-86800975D01*
X341252671Y-86866284D01*
X341193074Y-86928793D01*
X341130565Y-86988390D01*
X341065256Y-87044962D01*
X340997262Y-87098395D01*
X340926694Y-87148576D01*
X340853667Y-87195394D01*
X340778292Y-87238733D01*
X340700684Y-87278482D01*
X340620956Y-87314526D01*
X340539220Y-87346754D01*
X340455589Y-87375051D01*
X340370178Y-87399306D01*
X340283098Y-87419404D01*
X340194463Y-87435233D01*
X340104386Y-87446679D01*
X340012980Y-87453630D01*
X339920358Y-87455972D01*
X339827733Y-87453630D01*
X339736325Y-87446679D01*
X339646246Y-87435233D01*
X339557609Y-87419404D01*
X339470527Y-87399306D01*
X339385115Y-87375051D01*
X339301483Y-87346754D01*
X339219747Y-87314526D01*
X339140018Y-87278482D01*
X339062409Y-87238733D01*
X338987035Y-87195394D01*
X338914008Y-87148576D01*
X338843441Y-87098395D01*
X338775446Y-87044962D01*
X338710138Y-86988390D01*
X338647630Y-86928793D01*
X338588033Y-86866284D01*
X338531462Y-86800975D01*
X338478030Y-86732981D01*
X338427849Y-86662414D01*
X338381033Y-86589387D01*
X338337694Y-86514013D01*
X338297947Y-86436405D01*
X338261903Y-86356677D01*
X338229676Y-86274941D01*
X338201379Y-86191311D01*
X338177125Y-86105900D01*
X338157028Y-86018821D01*
X338141200Y-85930186D01*
X338129754Y-85840110D01*
X338122803Y-85748704D01*
X338120461Y-85656083D01*
X338122803Y-85563461D01*
X338129754Y-85472054D01*
X338141200Y-85381976D01*
X338157028Y-85293341D01*
X338177125Y-85206261D01*
X338201379Y-85120848D01*
X338229676Y-85037218D01*
X338261903Y-84955482D01*
X338297947Y-84875753D01*
X338337694Y-84798145D01*
X338381033Y-84722771D01*
X338427849Y-84649743D01*
X338478030Y-84579176D01*
X338531462Y-84511181D01*
X338588033Y-84445873D01*
X338647630Y-84383364D01*
X338710138Y-84323767D01*
X338775446Y-84267195D01*
X338843441Y-84213762D01*
X338914008Y-84163581D01*
X338987035Y-84116764D01*
X339062409Y-84073424D01*
X339140018Y-84033676D01*
X339219747Y-83997631D01*
X339301483Y-83965404D01*
X339385115Y-83937107D01*
X339470527Y-83912852D01*
X339557609Y-83892754D01*
X339646246Y-83876926D01*
X339736325Y-83865480D01*
X339827733Y-83858529D01*
X339920358Y-83856187D01*
X340012980Y-83858529D01*
G37*
%TD.AperFunction*%
%TA.AperFunction,Profile*%
G36*
X349640184Y-22110338D02*
G01*
X349811317Y-22123351D01*
X349979961Y-22144781D01*
X350145906Y-22174416D01*
X350308939Y-22212044D01*
X350468850Y-22257454D01*
X350625425Y-22310433D01*
X350778453Y-22370771D01*
X350927723Y-22438254D01*
X351073022Y-22512673D01*
X351214140Y-22593814D01*
X351350864Y-22681466D01*
X351482982Y-22775418D01*
X351610283Y-22875457D01*
X351732556Y-22981373D01*
X351849587Y-23092952D01*
X351961167Y-23209984D01*
X352067082Y-23332257D01*
X352167121Y-23459558D01*
X352261073Y-23591677D01*
X352348725Y-23728401D01*
X352429866Y-23869520D01*
X352504285Y-24014820D01*
X352571769Y-24164090D01*
X352632106Y-24317119D01*
X352685086Y-24473695D01*
X352730496Y-24633606D01*
X352768124Y-24796641D01*
X352797759Y-24962587D01*
X352819189Y-25131233D01*
X352832202Y-25302367D01*
X352836587Y-25475778D01*
X352832202Y-25649189D01*
X352819189Y-25820323D01*
X352797759Y-25988969D01*
X352768124Y-26154915D01*
X352730496Y-26317950D01*
X352685086Y-26477861D01*
X352632106Y-26634437D01*
X352571769Y-26787466D01*
X352504285Y-26936737D01*
X352429866Y-27082037D01*
X352348725Y-27223155D01*
X352261073Y-27359879D01*
X352167121Y-27491998D01*
X352067082Y-27619300D01*
X351961167Y-27741573D01*
X351849587Y-27858604D01*
X351732556Y-27970184D01*
X351610283Y-28076099D01*
X351482982Y-28176139D01*
X351350864Y-28270090D01*
X351214140Y-28357743D01*
X351073022Y-28438884D01*
X350927723Y-28513302D01*
X350778453Y-28580786D01*
X350625425Y-28641124D01*
X350468850Y-28694103D01*
X350308939Y-28739513D01*
X350145906Y-28777141D01*
X349979961Y-28806776D01*
X349811317Y-28828206D01*
X349640184Y-28841219D01*
X349466775Y-28845604D01*
X349293363Y-28841219D01*
X349122228Y-28828206D01*
X348953581Y-28806776D01*
X348787634Y-28777141D01*
X348624598Y-28739513D01*
X348464686Y-28694103D01*
X348308109Y-28641124D01*
X348155079Y-28580786D01*
X348005808Y-28513302D01*
X347860507Y-28438884D01*
X347719388Y-28357743D01*
X347582663Y-28270090D01*
X347450544Y-28176139D01*
X347323241Y-28076099D01*
X347200968Y-27970184D01*
X347083936Y-27858604D01*
X346972356Y-27741573D01*
X346866440Y-27619300D01*
X346766400Y-27491998D01*
X346672448Y-27359879D01*
X346584795Y-27223155D01*
X346503654Y-27082037D01*
X346429235Y-26936737D01*
X346361751Y-26787466D01*
X346301413Y-26634437D01*
X346248434Y-26477861D01*
X346203024Y-26317950D01*
X346165396Y-26154915D01*
X346135760Y-25988969D01*
X346114330Y-25820323D01*
X346101317Y-25649189D01*
X346096932Y-25475778D01*
X346101317Y-25302367D01*
X346114330Y-25131233D01*
X346135760Y-24962587D01*
X346165396Y-24796641D01*
X346203024Y-24633606D01*
X346248434Y-24473695D01*
X346301413Y-24317119D01*
X346361751Y-24164090D01*
X346429235Y-24014820D01*
X346503654Y-23869520D01*
X346584795Y-23728401D01*
X346672448Y-23591677D01*
X346766400Y-23459558D01*
X346866440Y-23332257D01*
X346972356Y-23209984D01*
X347083936Y-23092952D01*
X347200968Y-22981373D01*
X347323241Y-22875457D01*
X347450544Y-22775418D01*
X347582663Y-22681466D01*
X347719388Y-22593814D01*
X347860507Y-22512673D01*
X348005808Y-22438254D01*
X348155079Y-22370771D01*
X348308109Y-22310433D01*
X348464686Y-22257454D01*
X348624598Y-22212044D01*
X348787634Y-22174416D01*
X348953581Y-22144781D01*
X349122228Y-22123351D01*
X349293363Y-22110338D01*
X349466775Y-22105953D01*
X349640184Y-22110338D01*
G37*
%TD.AperFunction*%
%TA.AperFunction,Profile*%
G36*
X371785135Y-26689964D02*
G01*
X371876541Y-26696915D01*
X371966618Y-26708361D01*
X372055254Y-26724189D01*
X372142333Y-26744287D01*
X372227745Y-26768542D01*
X372311376Y-26796839D01*
X372393112Y-26829066D01*
X372472840Y-26865111D01*
X372550448Y-26904859D01*
X372625822Y-26948198D01*
X372698850Y-26995015D01*
X372769417Y-27045197D01*
X372837412Y-27098630D01*
X372902721Y-27155201D01*
X372965230Y-27214798D01*
X373024827Y-27277307D01*
X373081399Y-27342615D01*
X373134832Y-27410609D01*
X373185014Y-27481177D01*
X373231831Y-27554204D01*
X373275171Y-27629578D01*
X373314919Y-27707186D01*
X373350964Y-27786914D01*
X373383192Y-27868650D01*
X373411489Y-27952280D01*
X373435744Y-28037692D01*
X373455842Y-28124772D01*
X373471671Y-28213407D01*
X373483117Y-28303484D01*
X373490068Y-28394890D01*
X373492410Y-28487513D01*
X373490068Y-28580135D01*
X373483117Y-28671541D01*
X373471671Y-28761618D01*
X373455842Y-28850253D01*
X373435744Y-28937333D01*
X373411489Y-29022744D01*
X373383192Y-29106375D01*
X373350964Y-29188111D01*
X373314919Y-29267839D01*
X373275171Y-29345447D01*
X373231831Y-29420821D01*
X373185014Y-29493848D01*
X373134832Y-29564415D01*
X373081399Y-29632409D01*
X373024827Y-29697717D01*
X372965230Y-29760226D01*
X372902721Y-29819823D01*
X372837412Y-29876395D01*
X372769417Y-29929828D01*
X372698850Y-29980009D01*
X372625822Y-30026826D01*
X372550448Y-30070165D01*
X372472840Y-30109913D01*
X372393112Y-30145958D01*
X372311376Y-30178185D01*
X372227745Y-30206483D01*
X372142333Y-30230737D01*
X372055254Y-30250835D01*
X371966618Y-30266663D01*
X371876541Y-30278110D01*
X371785135Y-30285060D01*
X371692513Y-30287402D01*
X371599889Y-30285060D01*
X371508480Y-30278110D01*
X371418401Y-30266663D01*
X371329765Y-30250835D01*
X371242683Y-30230737D01*
X371157270Y-30206483D01*
X371073639Y-30178185D01*
X370991902Y-30145958D01*
X370912173Y-30109913D01*
X370834565Y-30070165D01*
X370759191Y-30026826D01*
X370686164Y-29980009D01*
X370615596Y-29929828D01*
X370547602Y-29876395D01*
X370482294Y-29819823D01*
X370419785Y-29760226D01*
X370360189Y-29697717D01*
X370303618Y-29632409D01*
X370250186Y-29564415D01*
X370200005Y-29493848D01*
X370153189Y-29420821D01*
X370109850Y-29345447D01*
X370070102Y-29267839D01*
X370034059Y-29188111D01*
X370001832Y-29106375D01*
X369973535Y-29022744D01*
X369949281Y-28937333D01*
X369929184Y-28850253D01*
X369913355Y-28761618D01*
X369901910Y-28671541D01*
X369894959Y-28580135D01*
X369892617Y-28487513D01*
X369894959Y-28394890D01*
X369901910Y-28303484D01*
X369913355Y-28213407D01*
X369929184Y-28124772D01*
X369949281Y-28037692D01*
X369973535Y-27952280D01*
X370001832Y-27868650D01*
X370034059Y-27786914D01*
X370070102Y-27707186D01*
X370109850Y-27629578D01*
X370153189Y-27554204D01*
X370200005Y-27481177D01*
X370250186Y-27410609D01*
X370303618Y-27342615D01*
X370360189Y-27277307D01*
X370419785Y-27214798D01*
X370482294Y-27155201D01*
X370547602Y-27098630D01*
X370615596Y-27045197D01*
X370686164Y-26995015D01*
X370759191Y-26948198D01*
X370834565Y-26904859D01*
X370912173Y-26865111D01*
X370991902Y-26829066D01*
X371073639Y-26796839D01*
X371157270Y-26768542D01*
X371242683Y-26744287D01*
X371329765Y-26724189D01*
X371418401Y-26708361D01*
X371508480Y-26696915D01*
X371599889Y-26689964D01*
X371692513Y-26687622D01*
X371785135Y-26689964D01*
G37*
%TD.AperFunction*%
%TA.AperFunction,Profile*%
G36*
X372165598Y-128311158D02*
G01*
X372257004Y-128318109D01*
X372347081Y-128329555D01*
X372435716Y-128345383D01*
X372522796Y-128365481D01*
X372608208Y-128389736D01*
X372691838Y-128418033D01*
X372773574Y-128450260D01*
X372853303Y-128486305D01*
X372930911Y-128526053D01*
X373006285Y-128569392D01*
X373079312Y-128616209D01*
X373149880Y-128666391D01*
X373217875Y-128719824D01*
X373283183Y-128776395D01*
X373345693Y-128835992D01*
X373405290Y-128898501D01*
X373461861Y-128963809D01*
X373515295Y-129031803D01*
X373565477Y-129102371D01*
X373612294Y-129175398D01*
X373655633Y-129250772D01*
X373695382Y-129328379D01*
X373731427Y-129408108D01*
X373763654Y-129489843D01*
X373791952Y-129573473D01*
X373816206Y-129658885D01*
X373836305Y-129745965D01*
X373852133Y-129834600D01*
X373863580Y-129924677D01*
X373870530Y-130016083D01*
X373872872Y-130108705D01*
X373870530Y-130201327D01*
X373863580Y-130292734D01*
X373852133Y-130382811D01*
X373836305Y-130471447D01*
X373816206Y-130558527D01*
X373791952Y-130643938D01*
X373763654Y-130727569D01*
X373731427Y-130809305D01*
X373695382Y-130889033D01*
X373655633Y-130966641D01*
X373612294Y-131042015D01*
X373565477Y-131115042D01*
X373515295Y-131185609D01*
X373461861Y-131253603D01*
X373405290Y-131318911D01*
X373345693Y-131381420D01*
X373283183Y-131441017D01*
X373217875Y-131497588D01*
X373149880Y-131551021D01*
X373079312Y-131601202D01*
X373006285Y-131648019D01*
X372930911Y-131691357D01*
X372853303Y-131731106D01*
X372773574Y-131767150D01*
X372691838Y-131799377D01*
X372608208Y-131827674D01*
X372522796Y-131851928D01*
X372435716Y-131872026D01*
X372347081Y-131887855D01*
X372257004Y-131899301D01*
X372165598Y-131906251D01*
X372072976Y-131908593D01*
X371980354Y-131906251D01*
X371888948Y-131899301D01*
X371798871Y-131887855D01*
X371710236Y-131872026D01*
X371623156Y-131851928D01*
X371537744Y-131827674D01*
X371454114Y-131799377D01*
X371372378Y-131767150D01*
X371292649Y-131731106D01*
X371215041Y-131691357D01*
X371139667Y-131648019D01*
X371066640Y-131601202D01*
X370996072Y-131551021D01*
X370928077Y-131497588D01*
X370862769Y-131441017D01*
X370800260Y-131381420D01*
X370740662Y-131318911D01*
X370684091Y-131253603D01*
X370630657Y-131185609D01*
X370580475Y-131115042D01*
X370533658Y-131042015D01*
X370490319Y-130966641D01*
X370450570Y-130889033D01*
X370414525Y-130809305D01*
X370382298Y-130727569D01*
X370354000Y-130643938D01*
X370329746Y-130558527D01*
X370309648Y-130471447D01*
X370293819Y-130382811D01*
X370282373Y-130292734D01*
X370275422Y-130201327D01*
X370273080Y-130108705D01*
X370275422Y-130016083D01*
X370282373Y-129924677D01*
X370293819Y-129834600D01*
X370309648Y-129745965D01*
X370329746Y-129658885D01*
X370354000Y-129573473D01*
X370382298Y-129489843D01*
X370414525Y-129408108D01*
X370450570Y-129328379D01*
X370490319Y-129250772D01*
X370533658Y-129175398D01*
X370580475Y-129102371D01*
X370630657Y-129031803D01*
X370684091Y-128963809D01*
X370740662Y-128898501D01*
X370800260Y-128835992D01*
X370862769Y-128776395D01*
X370928077Y-128719824D01*
X370996072Y-128666391D01*
X371066640Y-128616209D01*
X371139667Y-128569392D01*
X371215041Y-128526053D01*
X371292649Y-128486305D01*
X371372378Y-128450260D01*
X371454114Y-128418033D01*
X371537744Y-128389736D01*
X371623156Y-128365481D01*
X371710236Y-128345383D01*
X371798871Y-128329555D01*
X371888948Y-128318109D01*
X371980354Y-128311158D01*
X372072976Y-128308816D01*
X372165598Y-128311158D01*
G37*
%TD.AperFunction*%
%TA.AperFunction,Profile*%
G36*
X373276224Y-52692292D02*
G01*
X373367630Y-52699243D01*
X373457707Y-52710689D01*
X373546342Y-52726517D01*
X373633422Y-52746615D01*
X373718834Y-52770869D01*
X373802464Y-52799167D01*
X373884201Y-52831394D01*
X373963929Y-52867438D01*
X374041537Y-52907186D01*
X374116911Y-52950525D01*
X374189939Y-52997342D01*
X374260506Y-53047524D01*
X374328501Y-53100956D01*
X374393809Y-53157528D01*
X374456319Y-53217124D01*
X374515916Y-53279633D01*
X374572488Y-53344942D01*
X374625921Y-53412936D01*
X374676103Y-53483503D01*
X374722920Y-53556530D01*
X374766260Y-53631904D01*
X374806008Y-53709512D01*
X374842053Y-53789240D01*
X374874281Y-53870976D01*
X374902578Y-53954606D01*
X374926833Y-54040018D01*
X374946931Y-54127098D01*
X374962760Y-54215733D01*
X374974206Y-54305810D01*
X374981156Y-54397216D01*
X374983499Y-54489839D01*
X374981156Y-54582461D01*
X374974206Y-54673867D01*
X374962760Y-54763944D01*
X374946931Y-54852580D01*
X374926833Y-54939660D01*
X374902578Y-55025071D01*
X374874281Y-55108702D01*
X374842053Y-55190438D01*
X374806008Y-55270166D01*
X374766260Y-55347774D01*
X374722920Y-55423148D01*
X374676103Y-55496175D01*
X374625921Y-55566743D01*
X374572488Y-55634737D01*
X374515916Y-55700046D01*
X374456319Y-55762555D01*
X374393809Y-55822152D01*
X374328501Y-55878723D01*
X374260506Y-55932156D01*
X374189939Y-55982338D01*
X374116911Y-56029155D01*
X374041537Y-56072494D01*
X373963929Y-56112242D01*
X373884201Y-56148287D01*
X373802464Y-56180514D01*
X373718834Y-56208811D01*
X373633422Y-56233066D01*
X373546342Y-56253164D01*
X373457707Y-56268992D01*
X373367630Y-56280438D01*
X373276224Y-56287389D01*
X373183602Y-56289731D01*
X373090978Y-56287389D01*
X372999569Y-56280438D01*
X372909490Y-56268992D01*
X372820853Y-56253164D01*
X372733772Y-56233066D01*
X372648359Y-56208811D01*
X372564728Y-56180514D01*
X372482991Y-56148287D01*
X372403262Y-56112242D01*
X372325654Y-56072494D01*
X372250280Y-56029155D01*
X372177252Y-55982338D01*
X372106685Y-55932156D01*
X372038691Y-55878723D01*
X371973383Y-55822152D01*
X371910874Y-55762555D01*
X371851278Y-55700046D01*
X371794707Y-55634737D01*
X371741275Y-55566743D01*
X371691094Y-55496175D01*
X371644277Y-55423148D01*
X371600939Y-55347774D01*
X371561191Y-55270166D01*
X371525147Y-55190438D01*
X371492921Y-55108702D01*
X371464624Y-55025071D01*
X371440370Y-54939660D01*
X371420273Y-54852580D01*
X371404444Y-54763944D01*
X371392998Y-54673867D01*
X371386048Y-54582461D01*
X371383706Y-54489839D01*
X371386048Y-54397216D01*
X371392998Y-54305810D01*
X371404444Y-54215733D01*
X371420273Y-54127098D01*
X371440370Y-54040018D01*
X371464624Y-53954606D01*
X371492921Y-53870976D01*
X371525147Y-53789240D01*
X371561191Y-53709512D01*
X371600939Y-53631904D01*
X371644277Y-53556530D01*
X371691094Y-53483503D01*
X371741275Y-53412936D01*
X371794707Y-53344942D01*
X371851278Y-53279633D01*
X371910874Y-53217124D01*
X371973383Y-53157528D01*
X372038691Y-53100956D01*
X372106685Y-53047524D01*
X372177252Y-52997342D01*
X372250280Y-52950525D01*
X372325654Y-52907186D01*
X372403262Y-52867438D01*
X372482991Y-52831394D01*
X372564728Y-52799167D01*
X372648359Y-52770869D01*
X372733772Y-52746615D01*
X372820853Y-52726517D01*
X372909490Y-52710689D01*
X372999569Y-52699243D01*
X373090978Y-52692292D01*
X373183602Y-52689950D01*
X373276224Y-52692292D01*
G37*
%TD.AperFunction*%
%TA.AperFunction,Profile*%
G36*
X393969828Y-100391122D02*
G01*
X394061233Y-100398072D01*
X394151310Y-100409518D01*
X394239945Y-100425347D01*
X394327024Y-100445445D01*
X394412435Y-100469699D01*
X394496064Y-100497997D01*
X394577799Y-100530224D01*
X394657527Y-100566269D01*
X394735133Y-100606017D01*
X394810506Y-100649356D01*
X394883533Y-100696173D01*
X394954099Y-100746355D01*
X395022092Y-100799788D01*
X395087399Y-100856360D01*
X395149907Y-100915957D01*
X395209503Y-100978466D01*
X395266073Y-101043774D01*
X395319505Y-101111769D01*
X395369686Y-101182336D01*
X395416501Y-101255364D01*
X395459840Y-101330738D01*
X395499587Y-101408346D01*
X395535631Y-101488074D01*
X395567857Y-101569811D01*
X395596154Y-101653441D01*
X395620408Y-101738853D01*
X395640505Y-101825934D01*
X395656333Y-101914569D01*
X395667779Y-102004647D01*
X395674730Y-102096053D01*
X395677072Y-102188676D01*
X395674730Y-102281298D01*
X395667779Y-102372704D01*
X395656333Y-102462781D01*
X395640505Y-102551416D01*
X395620408Y-102638495D01*
X395596154Y-102723907D01*
X395567857Y-102807537D01*
X395535631Y-102889273D01*
X395499587Y-102969001D01*
X395459840Y-103046609D01*
X395416501Y-103121983D01*
X395369686Y-103195010D01*
X395319505Y-103265577D01*
X395266073Y-103333571D01*
X395209503Y-103398880D01*
X395149907Y-103461389D01*
X395087399Y-103520985D01*
X395022092Y-103577557D01*
X394954099Y-103630990D01*
X394883533Y-103681171D01*
X394810506Y-103727988D01*
X394735133Y-103771327D01*
X394657527Y-103811076D01*
X394577799Y-103847120D01*
X394496064Y-103879348D01*
X394412435Y-103907645D01*
X394327024Y-103931899D01*
X394239945Y-103951997D01*
X394151310Y-103967826D01*
X394061233Y-103979272D01*
X393969828Y-103986222D01*
X393877206Y-103988564D01*
X393784581Y-103986222D01*
X393693173Y-103979272D01*
X393603094Y-103967826D01*
X393514457Y-103951997D01*
X393427376Y-103931899D01*
X393341963Y-103907645D01*
X393258331Y-103879348D01*
X393176595Y-103847120D01*
X393096866Y-103811076D01*
X393019258Y-103771327D01*
X392943883Y-103727988D01*
X392870856Y-103681171D01*
X392800289Y-103630990D01*
X392732295Y-103577557D01*
X392666987Y-103520985D01*
X392604478Y-103461389D01*
X392544881Y-103398880D01*
X392488310Y-103333571D01*
X392434878Y-103265577D01*
X392384697Y-103195010D01*
X392337881Y-103121983D01*
X392294542Y-103046609D01*
X392254795Y-102969001D01*
X392218751Y-102889273D01*
X392186524Y-102807537D01*
X392158227Y-102723907D01*
X392133974Y-102638495D01*
X392113876Y-102551416D01*
X392098048Y-102462781D01*
X392086602Y-102372704D01*
X392079651Y-102281298D01*
X392077310Y-102188676D01*
X392079651Y-102096053D01*
X392086602Y-102004647D01*
X392098048Y-101914569D01*
X392113876Y-101825934D01*
X392133974Y-101738853D01*
X392158227Y-101653441D01*
X392186524Y-101569811D01*
X392218751Y-101488074D01*
X392254795Y-101408346D01*
X392294542Y-101330738D01*
X392337881Y-101255364D01*
X392384697Y-101182336D01*
X392434878Y-101111769D01*
X392488310Y-101043774D01*
X392544881Y-100978466D01*
X392604478Y-100915957D01*
X392666987Y-100856360D01*
X392732295Y-100799788D01*
X392800289Y-100746355D01*
X392870856Y-100696173D01*
X392943883Y-100649356D01*
X393019258Y-100606017D01*
X393096866Y-100566269D01*
X393176595Y-100530224D01*
X393258331Y-100497997D01*
X393341963Y-100469699D01*
X393427376Y-100445445D01*
X393514457Y-100425347D01*
X393603094Y-100409518D01*
X393693173Y-100398072D01*
X393784581Y-100391122D01*
X393877206Y-100388780D01*
X393969828Y-100391122D01*
G37*
%TD.AperFunction*%
%TA.AperFunction,Profile*%
G36*
X394116106Y-47550042D02*
G01*
X394287238Y-47563055D01*
X394455883Y-47584485D01*
X394621828Y-47614120D01*
X394784861Y-47651748D01*
X394944771Y-47697158D01*
X395101346Y-47750137D01*
X395254374Y-47810475D01*
X395403644Y-47877959D01*
X395548944Y-47952377D01*
X395690061Y-48033519D01*
X395826785Y-48121171D01*
X395958904Y-48215123D01*
X396086205Y-48315162D01*
X396208477Y-48421077D01*
X396325509Y-48532657D01*
X396437088Y-48649689D01*
X396543003Y-48771962D01*
X396643043Y-48899263D01*
X396736994Y-49031382D01*
X396824647Y-49168106D01*
X396905788Y-49309225D01*
X396980206Y-49454525D01*
X397047690Y-49603795D01*
X397108028Y-49756824D01*
X397161007Y-49913400D01*
X397206417Y-50073311D01*
X397244045Y-50236346D01*
X397273680Y-50402292D01*
X397295110Y-50570938D01*
X397308124Y-50742072D01*
X397312509Y-50915483D01*
X397308124Y-51088894D01*
X397295110Y-51260028D01*
X397273680Y-51428675D01*
X397244045Y-51594621D01*
X397206417Y-51757656D01*
X397161007Y-51917567D01*
X397108028Y-52074143D01*
X397047690Y-52227173D01*
X396980206Y-52376443D01*
X396905788Y-52521743D01*
X396824647Y-52662862D01*
X396736994Y-52799586D01*
X396643043Y-52931705D01*
X396543003Y-53059007D01*
X396437088Y-53181279D01*
X396325509Y-53298311D01*
X396208477Y-53409891D01*
X396086205Y-53515806D01*
X395958904Y-53615845D01*
X395826785Y-53709797D01*
X395690061Y-53797449D01*
X395548944Y-53878590D01*
X395403644Y-53953009D01*
X395254374Y-54020492D01*
X395101346Y-54080830D01*
X394944771Y-54133809D01*
X394784861Y-54179219D01*
X394621828Y-54216847D01*
X394455883Y-54246482D01*
X394287238Y-54267912D01*
X394116106Y-54280925D01*
X393942697Y-54285310D01*
X393769287Y-54280925D01*
X393598155Y-54267912D01*
X393429510Y-54246482D01*
X393263565Y-54216847D01*
X393100532Y-54179219D01*
X392940622Y-54133809D01*
X392784047Y-54080830D01*
X392631019Y-54020492D01*
X392481749Y-53953009D01*
X392336449Y-53878590D01*
X392195332Y-53797449D01*
X392058608Y-53709797D01*
X391926489Y-53615845D01*
X391799188Y-53515806D01*
X391676916Y-53409891D01*
X391559884Y-53298311D01*
X391448305Y-53181279D01*
X391342390Y-53059007D01*
X391242350Y-52931705D01*
X391148399Y-52799586D01*
X391060746Y-52662862D01*
X390979605Y-52521743D01*
X390905187Y-52376443D01*
X390837703Y-52227173D01*
X390777365Y-52074143D01*
X390724386Y-51917567D01*
X390678976Y-51757656D01*
X390641348Y-51594621D01*
X390611713Y-51428675D01*
X390590283Y-51260028D01*
X390577269Y-51088894D01*
X390572885Y-50915483D01*
X390577269Y-50742072D01*
X390590283Y-50570938D01*
X390611713Y-50402292D01*
X390641348Y-50236346D01*
X390678976Y-50073311D01*
X390724386Y-49913400D01*
X390777365Y-49756824D01*
X390837703Y-49603795D01*
X390905187Y-49454525D01*
X390979605Y-49309225D01*
X391060746Y-49168106D01*
X391148399Y-49031382D01*
X391242350Y-48899263D01*
X391342390Y-48771962D01*
X391448305Y-48649689D01*
X391559884Y-48532657D01*
X391676916Y-48421077D01*
X391799188Y-48315162D01*
X391926489Y-48215123D01*
X392058608Y-48121171D01*
X392195332Y-48033519D01*
X392336449Y-47952377D01*
X392481749Y-47877959D01*
X392631019Y-47810475D01*
X392784047Y-47750137D01*
X392940622Y-47697158D01*
X393100532Y-47651748D01*
X393263565Y-47614120D01*
X393429510Y-47584485D01*
X393598155Y-47563055D01*
X393769287Y-47550042D01*
X393942697Y-47545657D01*
X394116106Y-47550042D01*
G37*
%TD.AperFunction*%
%TA.AperFunction,Profile*%
G36*
X412917307Y-61636105D02*
G01*
X413008713Y-61643056D01*
X413098790Y-61654502D01*
X413187425Y-61670331D01*
X413274505Y-61690428D01*
X413359917Y-61714683D01*
X413443547Y-61742980D01*
X413525283Y-61775207D01*
X413605012Y-61811252D01*
X413682620Y-61851000D01*
X413757994Y-61894339D01*
X413831021Y-61941156D01*
X413901589Y-61991337D01*
X413969584Y-62044770D01*
X414034892Y-62101341D01*
X414097402Y-62160938D01*
X414156999Y-62223447D01*
X414213570Y-62288755D01*
X414267004Y-62356749D01*
X414317186Y-62427316D01*
X414364003Y-62500343D01*
X414407342Y-62575717D01*
X414447091Y-62653325D01*
X414483136Y-62733053D01*
X414515363Y-62814789D01*
X414543661Y-62898419D01*
X414567915Y-62983831D01*
X414588014Y-63070911D01*
X414603842Y-63159546D01*
X414615289Y-63249623D01*
X414622239Y-63341030D01*
X414624581Y-63433652D01*
X414622239Y-63526274D01*
X414615289Y-63617680D01*
X414603842Y-63707758D01*
X414588014Y-63796393D01*
X414567915Y-63883473D01*
X414543661Y-63968884D01*
X414515363Y-64052515D01*
X414483136Y-64134251D01*
X414447091Y-64213979D01*
X414407342Y-64291587D01*
X414364003Y-64366960D01*
X414317186Y-64439988D01*
X414267004Y-64510555D01*
X414213570Y-64578549D01*
X414156999Y-64643857D01*
X414097402Y-64706366D01*
X414034892Y-64765963D01*
X413969584Y-64822534D01*
X413901589Y-64875967D01*
X413831021Y-64926148D01*
X413757994Y-64972965D01*
X413682620Y-65016304D01*
X413605012Y-65056052D01*
X413525283Y-65092097D01*
X413443547Y-65124324D01*
X413359917Y-65152621D01*
X413274505Y-65176875D01*
X413187425Y-65196973D01*
X413098790Y-65212802D01*
X413008713Y-65224248D01*
X412917307Y-65231199D01*
X412824685Y-65233541D01*
X412732063Y-65231199D01*
X412640657Y-65224248D01*
X412550580Y-65212802D01*
X412461945Y-65196973D01*
X412374865Y-65176875D01*
X412289453Y-65152621D01*
X412205823Y-65124324D01*
X412124087Y-65092097D01*
X412044358Y-65056052D01*
X411966750Y-65016304D01*
X411891376Y-64972965D01*
X411818349Y-64926148D01*
X411747781Y-64875967D01*
X411679786Y-64822534D01*
X411614478Y-64765963D01*
X411551969Y-64706366D01*
X411492371Y-64643857D01*
X411435800Y-64578549D01*
X411382366Y-64510555D01*
X411332184Y-64439988D01*
X411285367Y-64366960D01*
X411242028Y-64291587D01*
X411202279Y-64213979D01*
X411166234Y-64134251D01*
X411134007Y-64052515D01*
X411105709Y-63968884D01*
X411081455Y-63883473D01*
X411061357Y-63796393D01*
X411045528Y-63707758D01*
X411034082Y-63617680D01*
X411027131Y-63526274D01*
X411024789Y-63433652D01*
X411027131Y-63341030D01*
X411034082Y-63249623D01*
X411045528Y-63159546D01*
X411061357Y-63070911D01*
X411081455Y-62983831D01*
X411105709Y-62898419D01*
X411134007Y-62814789D01*
X411166234Y-62733053D01*
X411202279Y-62653325D01*
X411242028Y-62575717D01*
X411285367Y-62500343D01*
X411332184Y-62427316D01*
X411382366Y-62356749D01*
X411435800Y-62288755D01*
X411492371Y-62223447D01*
X411551969Y-62160938D01*
X411614478Y-62101341D01*
X411679786Y-62044770D01*
X411747781Y-61991337D01*
X411818349Y-61941156D01*
X411891376Y-61894339D01*
X411966750Y-61851000D01*
X412044358Y-61811252D01*
X412124087Y-61775207D01*
X412205823Y-61742980D01*
X412289453Y-61714683D01*
X412374865Y-61690428D01*
X412461945Y-61670331D01*
X412550580Y-61654502D01*
X412640657Y-61643056D01*
X412732063Y-61636105D01*
X412824685Y-61633763D01*
X412917307Y-61636105D01*
G37*
%TD.AperFunction*%
%TA.AperFunction,Profile*%
G36*
X431529629Y-117323184D02*
G01*
X431689599Y-117335348D01*
X431847244Y-117355380D01*
X432002364Y-117383082D01*
X432154763Y-117418256D01*
X432304243Y-117460703D01*
X432450606Y-117510227D01*
X432593653Y-117566629D01*
X432733186Y-117629710D01*
X432869009Y-117699274D01*
X433000923Y-117775123D01*
X433128729Y-117857057D01*
X433252231Y-117944880D01*
X433371229Y-118038394D01*
X433485527Y-118137400D01*
X433594926Y-118241701D01*
X433699228Y-118351099D01*
X433798235Y-118465395D01*
X433891750Y-118584393D01*
X433979575Y-118707893D01*
X434061511Y-118835699D01*
X434137360Y-118967611D01*
X434206925Y-119103433D01*
X434270008Y-119242966D01*
X434326411Y-119386013D01*
X434375935Y-119532374D01*
X434418383Y-119681854D01*
X434453558Y-119834253D01*
X434481260Y-119989374D01*
X434501293Y-120147018D01*
X434513457Y-120306988D01*
X434517556Y-120469087D01*
X434513457Y-120631186D01*
X434501293Y-120791156D01*
X434481260Y-120948801D01*
X434453558Y-121103923D01*
X434418383Y-121256322D01*
X434375935Y-121405802D01*
X434326411Y-121552164D01*
X434270008Y-121695210D01*
X434206925Y-121834744D01*
X434137360Y-121970566D01*
X434061511Y-122102478D01*
X433979575Y-122230284D01*
X433891750Y-122353784D01*
X433798235Y-122472781D01*
X433699228Y-122587078D01*
X433594926Y-122696475D01*
X433485527Y-122800776D01*
X433371229Y-122899782D01*
X433252231Y-122993295D01*
X433128729Y-123081118D01*
X433000923Y-123163052D01*
X432869009Y-123238901D01*
X432733186Y-123308464D01*
X432593653Y-123371546D01*
X432450606Y-123427947D01*
X432304243Y-123477471D01*
X432154763Y-123519918D01*
X432002364Y-123555091D01*
X431847244Y-123582793D01*
X431689599Y-123602825D01*
X431529629Y-123614989D01*
X431367532Y-123619088D01*
X431205434Y-123614989D01*
X431045465Y-123602825D01*
X430887821Y-123582793D01*
X430732701Y-123555091D01*
X430580302Y-123519918D01*
X430430823Y-123477471D01*
X430284462Y-123427947D01*
X430141416Y-123371546D01*
X430001883Y-123308464D01*
X429866061Y-123238901D01*
X429734149Y-123163052D01*
X429606344Y-123081118D01*
X429482844Y-122993295D01*
X429363847Y-122899782D01*
X429249550Y-122800776D01*
X429140153Y-122696475D01*
X429035852Y-122587078D01*
X428936846Y-122472781D01*
X428843333Y-122353784D01*
X428755510Y-122230284D01*
X428673575Y-122102478D01*
X428597727Y-121970566D01*
X428528163Y-121834744D01*
X428465081Y-121695210D01*
X428408680Y-121552164D01*
X428359156Y-121405802D01*
X428316708Y-121256322D01*
X428281535Y-121103923D01*
X428253833Y-120948801D01*
X428233801Y-120791156D01*
X428221637Y-120631186D01*
X428217538Y-120469087D01*
X428221637Y-120306988D01*
X428233801Y-120147018D01*
X428253833Y-119989374D01*
X428281535Y-119834253D01*
X428316708Y-119681854D01*
X428359156Y-119532374D01*
X428408680Y-119386013D01*
X428465081Y-119242966D01*
X428528163Y-119103433D01*
X428597727Y-118967611D01*
X428673575Y-118835699D01*
X428755510Y-118707893D01*
X428843333Y-118584393D01*
X428936846Y-118465395D01*
X429035852Y-118351099D01*
X429140153Y-118241701D01*
X429249550Y-118137400D01*
X429363847Y-118038394D01*
X429482844Y-117944880D01*
X429606344Y-117857057D01*
X429734149Y-117775123D01*
X429866061Y-117699274D01*
X430001883Y-117629710D01*
X430141416Y-117566629D01*
X430284462Y-117510227D01*
X430430823Y-117460703D01*
X430580302Y-117418256D01*
X430732701Y-117383082D01*
X430887821Y-117355380D01*
X431045465Y-117335348D01*
X431205434Y-117323184D01*
X431367532Y-117319085D01*
X431529629Y-117323184D01*
G37*
%TD.AperFunction*%
%TA.AperFunction,Profile*%
G36*
X432008689Y-79617883D02*
G01*
X432150884Y-79628696D01*
X432291012Y-79646502D01*
X432428896Y-79671126D01*
X432564361Y-79702391D01*
X432697231Y-79740122D01*
X432827330Y-79784143D01*
X432954482Y-79834277D01*
X433078511Y-79890350D01*
X433199241Y-79952184D01*
X433316496Y-80019605D01*
X433430100Y-80092435D01*
X433539878Y-80170500D01*
X433645653Y-80253623D01*
X433747249Y-80341628D01*
X433844491Y-80434340D01*
X433937202Y-80531582D01*
X434025207Y-80633179D01*
X434108330Y-80738954D01*
X434186395Y-80848732D01*
X434259225Y-80962337D01*
X434326646Y-81079592D01*
X434388480Y-81200323D01*
X434444552Y-81324352D01*
X434494687Y-81451505D01*
X434538708Y-81581604D01*
X434576439Y-81714475D01*
X434607704Y-81849941D01*
X434632328Y-81987826D01*
X434650134Y-82127955D01*
X434660946Y-82270151D01*
X434664590Y-82414239D01*
X434660946Y-82558326D01*
X434650134Y-82700522D01*
X434632328Y-82840651D01*
X434607704Y-82978536D01*
X434576439Y-83114001D01*
X434538708Y-83246872D01*
X434494687Y-83376971D01*
X434444552Y-83504123D01*
X434388480Y-83628153D01*
X434326646Y-83748883D01*
X434259225Y-83866138D01*
X434186395Y-83979743D01*
X434108330Y-84089521D01*
X434025207Y-84195296D01*
X433937202Y-84296892D01*
X433844491Y-84394135D01*
X433747249Y-84486846D01*
X433645653Y-84574851D01*
X433539878Y-84657974D01*
X433430100Y-84736039D01*
X433316496Y-84808870D01*
X433199241Y-84876290D01*
X433078511Y-84938124D01*
X432954482Y-84994197D01*
X432827330Y-85044331D01*
X432697231Y-85088352D01*
X432564361Y-85126083D01*
X432428896Y-85157348D01*
X432291012Y-85181972D01*
X432150884Y-85199778D01*
X432008689Y-85210591D01*
X431864602Y-85214234D01*
X431720515Y-85210591D01*
X431578320Y-85199778D01*
X431438192Y-85181972D01*
X431300308Y-85157348D01*
X431164843Y-85126083D01*
X431031973Y-85088352D01*
X430901874Y-85044331D01*
X430774722Y-84994197D01*
X430650693Y-84938124D01*
X430529963Y-84876290D01*
X430412708Y-84808870D01*
X430299104Y-84736039D01*
X430189326Y-84657974D01*
X430083551Y-84574851D01*
X429981955Y-84486846D01*
X429884713Y-84394135D01*
X429792002Y-84296892D01*
X429703997Y-84195296D01*
X429620874Y-84089521D01*
X429542809Y-83979743D01*
X429469979Y-83866138D01*
X429402558Y-83748883D01*
X429340724Y-83628153D01*
X429284652Y-83504123D01*
X429234517Y-83376971D01*
X429190496Y-83246872D01*
X429152765Y-83114001D01*
X429121500Y-82978536D01*
X429096876Y-82840651D01*
X429079070Y-82700522D01*
X429068258Y-82558326D01*
X429064614Y-82414239D01*
X429068258Y-82270151D01*
X429079070Y-82127955D01*
X429096876Y-81987826D01*
X429121500Y-81849941D01*
X429152765Y-81714475D01*
X429190496Y-81581604D01*
X429234517Y-81451505D01*
X429284652Y-81324352D01*
X429340724Y-81200323D01*
X429402558Y-81079592D01*
X429469979Y-80962337D01*
X429542809Y-80848732D01*
X429620874Y-80738954D01*
X429703997Y-80633179D01*
X429792002Y-80531582D01*
X429884713Y-80434340D01*
X429981955Y-80341628D01*
X430083551Y-80253623D01*
X430189326Y-80170500D01*
X430299104Y-80092435D01*
X430412708Y-80019605D01*
X430529963Y-79952184D01*
X430650693Y-79890350D01*
X430774722Y-79834277D01*
X430901874Y-79784143D01*
X431031973Y-79740122D01*
X431164843Y-79702391D01*
X431300308Y-79671126D01*
X431438192Y-79646502D01*
X431578320Y-79628696D01*
X431720515Y-79617883D01*
X431864602Y-79614240D01*
X432008689Y-79617883D01*
G37*
%TD.AperFunction*%
%TA.AperFunction,Profile*%
G36*
X432108110Y-47444072D02*
G01*
X432279243Y-47457085D01*
X432447887Y-47478515D01*
X432613832Y-47508150D01*
X432776865Y-47545778D01*
X432936776Y-47591187D01*
X433093351Y-47644167D01*
X433246379Y-47704504D01*
X433395649Y-47771988D01*
X433540948Y-47846407D01*
X433682066Y-47927548D01*
X433818790Y-48015200D01*
X433950908Y-48109152D01*
X434078209Y-48209191D01*
X434200482Y-48315107D01*
X434317513Y-48426686D01*
X434429093Y-48543718D01*
X434535008Y-48665991D01*
X434635047Y-48793292D01*
X434728999Y-48925411D01*
X434816651Y-49062136D01*
X434897792Y-49203254D01*
X434972211Y-49348554D01*
X435039695Y-49497825D01*
X435100032Y-49650854D01*
X435153012Y-49807430D01*
X435198422Y-49967341D01*
X435236050Y-50130376D01*
X435265685Y-50296322D01*
X435287115Y-50464969D01*
X435300128Y-50636103D01*
X435304513Y-50809514D01*
X435300128Y-50982924D01*
X435287115Y-51154058D01*
X435265685Y-51322704D01*
X435236050Y-51488650D01*
X435198422Y-51651684D01*
X435153012Y-51811595D01*
X435100032Y-51968171D01*
X435039695Y-52121200D01*
X434972211Y-52270471D01*
X434897792Y-52415771D01*
X434816651Y-52556889D01*
X434728999Y-52693613D01*
X434635047Y-52825732D01*
X434535008Y-52953034D01*
X434429093Y-53075306D01*
X434317513Y-53192338D01*
X434200482Y-53303917D01*
X434078209Y-53409833D01*
X433950908Y-53509872D01*
X433818790Y-53603824D01*
X433682066Y-53691476D01*
X433540948Y-53772617D01*
X433395649Y-53847036D01*
X433246379Y-53914520D01*
X433093351Y-53974857D01*
X432936776Y-54027837D01*
X432776865Y-54073246D01*
X432613832Y-54110875D01*
X432447887Y-54140509D01*
X432279243Y-54161939D01*
X432108110Y-54174953D01*
X431934701Y-54179338D01*
X431761289Y-54174953D01*
X431590154Y-54161939D01*
X431421507Y-54140509D01*
X431255560Y-54110875D01*
X431092524Y-54073246D01*
X430932612Y-54027837D01*
X430776035Y-53974857D01*
X430623005Y-53914520D01*
X430473734Y-53847036D01*
X430328433Y-53772617D01*
X430187314Y-53691476D01*
X430050589Y-53603824D01*
X429918470Y-53509872D01*
X429791167Y-53409833D01*
X429668894Y-53303917D01*
X429551862Y-53192338D01*
X429440282Y-53075306D01*
X429334366Y-52953034D01*
X429234326Y-52825732D01*
X429140374Y-52693613D01*
X429052721Y-52556889D01*
X428971580Y-52415771D01*
X428897161Y-52270471D01*
X428829677Y-52121200D01*
X428769339Y-51968171D01*
X428716360Y-51811595D01*
X428670950Y-51651684D01*
X428633322Y-51488650D01*
X428603686Y-51322704D01*
X428582256Y-51154058D01*
X428569243Y-50982924D01*
X428564858Y-50809514D01*
X428569243Y-50636103D01*
X428582256Y-50464969D01*
X428603686Y-50296322D01*
X428633322Y-50130376D01*
X428670950Y-49967341D01*
X428716360Y-49807430D01*
X428769339Y-49650854D01*
X428829677Y-49497825D01*
X428897161Y-49348554D01*
X428971580Y-49203254D01*
X429052721Y-49062136D01*
X429140374Y-48925411D01*
X429234326Y-48793292D01*
X429334366Y-48665991D01*
X429440282Y-48543718D01*
X429551862Y-48426686D01*
X429668894Y-48315107D01*
X429791167Y-48209191D01*
X429918470Y-48109152D01*
X430050589Y-48015200D01*
X430187314Y-47927548D01*
X430328433Y-47846407D01*
X430473734Y-47771988D01*
X430623005Y-47704504D01*
X430776035Y-47644167D01*
X430932612Y-47591187D01*
X431092524Y-47545778D01*
X431255560Y-47508150D01*
X431421507Y-47478515D01*
X431590154Y-47457085D01*
X431761289Y-47444072D01*
X431934701Y-47439687D01*
X432108110Y-47444072D01*
G37*
%TD.AperFunction*%
%TA.AperFunction,Profile*%
G36*
X432916605Y-100315392D02*
G01*
X433008011Y-100322343D01*
X433098088Y-100333789D01*
X433186723Y-100349618D01*
X433273803Y-100369716D01*
X433359215Y-100393970D01*
X433442845Y-100422267D01*
X433524581Y-100454495D01*
X433604310Y-100490539D01*
X433681918Y-100530288D01*
X433757292Y-100573627D01*
X433830320Y-100620444D01*
X433900887Y-100670625D01*
X433968882Y-100724059D01*
X434034190Y-100780630D01*
X434096700Y-100840227D01*
X434156297Y-100902736D01*
X434212869Y-100968045D01*
X434266302Y-101036039D01*
X434316484Y-101106607D01*
X434363301Y-101179634D01*
X434406640Y-101255008D01*
X434446389Y-101332616D01*
X434482434Y-101412345D01*
X434514661Y-101494081D01*
X434542959Y-101577712D01*
X434567213Y-101663124D01*
X434587312Y-101750204D01*
X434603140Y-101838840D01*
X434614587Y-101928917D01*
X434621537Y-102020324D01*
X434623879Y-102112947D01*
X434621537Y-102205568D01*
X434614587Y-102296974D01*
X434603140Y-102387051D01*
X434587312Y-102475686D01*
X434567213Y-102562766D01*
X434542959Y-102648178D01*
X434514661Y-102731808D01*
X434482434Y-102813544D01*
X434446389Y-102893272D01*
X434406640Y-102970879D01*
X434363301Y-103046253D01*
X434316484Y-103119280D01*
X434266302Y-103189848D01*
X434212869Y-103257842D01*
X434156297Y-103323150D01*
X434096700Y-103385659D01*
X434034190Y-103445256D01*
X433968882Y-103501827D01*
X433900887Y-103555260D01*
X433830320Y-103605442D01*
X433757292Y-103652259D01*
X433681918Y-103695598D01*
X433604310Y-103735346D01*
X433524581Y-103771391D01*
X433442845Y-103803618D01*
X433359215Y-103831916D01*
X433273803Y-103856170D01*
X433186723Y-103876268D01*
X433098088Y-103892096D01*
X433008011Y-103903542D01*
X432916605Y-103910493D01*
X432823983Y-103912835D01*
X432731359Y-103910493D01*
X432639950Y-103903542D01*
X432549871Y-103892096D01*
X432461234Y-103876268D01*
X432374153Y-103856170D01*
X432288740Y-103831916D01*
X432205109Y-103803618D01*
X432123372Y-103771391D01*
X432043643Y-103735346D01*
X431966035Y-103695598D01*
X431890661Y-103652259D01*
X431817633Y-103605442D01*
X431747066Y-103555260D01*
X431679072Y-103501827D01*
X431613764Y-103445256D01*
X431551255Y-103385659D01*
X431491659Y-103323150D01*
X431435088Y-103257842D01*
X431381655Y-103189848D01*
X431331474Y-103119280D01*
X431284658Y-103046253D01*
X431241320Y-102970879D01*
X431201572Y-102893272D01*
X431165528Y-102813544D01*
X431133301Y-102731808D01*
X431105005Y-102648178D01*
X431080751Y-102562766D01*
X431060653Y-102475686D01*
X431044825Y-102387051D01*
X431033379Y-102296974D01*
X431026429Y-102205568D01*
X431024087Y-102112947D01*
X431026429Y-102020324D01*
X431033379Y-101928917D01*
X431044825Y-101838840D01*
X431060653Y-101750204D01*
X431080751Y-101663124D01*
X431105005Y-101577712D01*
X431133301Y-101494081D01*
X431165528Y-101412345D01*
X431201572Y-101332616D01*
X431241320Y-101255008D01*
X431284658Y-101179634D01*
X431331474Y-101106607D01*
X431381655Y-101036039D01*
X431435088Y-100968045D01*
X431491659Y-100902736D01*
X431551255Y-100840227D01*
X431613764Y-100780630D01*
X431679072Y-100724059D01*
X431747066Y-100670625D01*
X431817633Y-100620444D01*
X431890661Y-100573627D01*
X431966035Y-100530288D01*
X432043643Y-100490539D01*
X432123372Y-100454495D01*
X432205109Y-100422267D01*
X432288740Y-100393970D01*
X432374153Y-100369716D01*
X432461234Y-100349618D01*
X432549871Y-100333789D01*
X432639950Y-100322343D01*
X432731359Y-100315392D01*
X432823983Y-100313050D01*
X432916605Y-100315392D01*
G37*
%TD.AperFunction*%
%TA.AperFunction,Profile*%
G36*
X446588388Y-40097579D02*
G01*
X446679794Y-40104529D01*
X446769871Y-40115976D01*
X446858505Y-40131804D01*
X446945585Y-40151902D01*
X447030996Y-40176156D01*
X447114625Y-40204454D01*
X447196360Y-40236681D01*
X447276087Y-40272725D01*
X447353694Y-40312474D01*
X447429067Y-40355813D01*
X447502093Y-40402630D01*
X447572660Y-40452811D01*
X447640653Y-40506244D01*
X447705960Y-40562815D01*
X447768468Y-40622412D01*
X447828064Y-40684921D01*
X447884634Y-40750229D01*
X447938066Y-40818224D01*
X447988246Y-40888791D01*
X448035062Y-40961818D01*
X448078400Y-41037192D01*
X448118148Y-41114800D01*
X448154191Y-41194528D01*
X448186418Y-41276264D01*
X448214715Y-41359895D01*
X448238968Y-41445306D01*
X448259066Y-41532386D01*
X448274894Y-41621022D01*
X448286340Y-41711099D01*
X448293290Y-41802505D01*
X448295632Y-41895127D01*
X448293290Y-41987749D01*
X448286340Y-42079155D01*
X448274894Y-42169233D01*
X448259066Y-42257868D01*
X448238968Y-42344947D01*
X448214715Y-42430359D01*
X448186418Y-42513989D01*
X448154191Y-42595725D01*
X448118148Y-42675453D01*
X448078400Y-42753061D01*
X448035062Y-42828435D01*
X447988246Y-42901462D01*
X447938066Y-42972029D01*
X447884634Y-43040024D01*
X447828064Y-43105332D01*
X447768468Y-43167841D01*
X447705960Y-43227437D01*
X447640653Y-43284009D01*
X447572660Y-43337442D01*
X447502093Y-43387623D01*
X447429067Y-43434440D01*
X447353694Y-43477779D01*
X447276087Y-43517527D01*
X447196360Y-43553572D01*
X447114625Y-43585799D01*
X447030996Y-43614096D01*
X446945585Y-43638351D01*
X446858505Y-43658449D01*
X446769871Y-43674277D01*
X446679794Y-43685723D01*
X446588388Y-43692674D01*
X446495767Y-43695016D01*
X446403142Y-43692674D01*
X446311734Y-43685723D01*
X446221655Y-43674277D01*
X446133018Y-43658449D01*
X446045936Y-43638351D01*
X445960523Y-43614096D01*
X445876892Y-43585799D01*
X445795155Y-43553572D01*
X445715427Y-43517527D01*
X445637818Y-43477779D01*
X445562444Y-43434440D01*
X445489417Y-43387623D01*
X445418849Y-43337442D01*
X445350855Y-43284009D01*
X445285547Y-43227437D01*
X445223039Y-43167841D01*
X445163442Y-43105332D01*
X445106871Y-43040024D01*
X445053439Y-42972029D01*
X445003258Y-42901462D01*
X444956442Y-42828435D01*
X444913103Y-42753061D01*
X444873355Y-42675453D01*
X444837312Y-42595725D01*
X444805085Y-42513989D01*
X444776788Y-42430359D01*
X444752534Y-42344947D01*
X444732437Y-42257868D01*
X444716609Y-42169233D01*
X444705163Y-42079155D01*
X444698212Y-41987749D01*
X444695870Y-41895127D01*
X444698212Y-41802505D01*
X444705163Y-41711099D01*
X444716609Y-41621022D01*
X444732437Y-41532386D01*
X444752534Y-41445306D01*
X444776788Y-41359895D01*
X444805085Y-41276264D01*
X444837312Y-41194528D01*
X444873355Y-41114800D01*
X444913103Y-41037192D01*
X444956442Y-40961818D01*
X445003258Y-40888791D01*
X445053439Y-40818224D01*
X445106871Y-40750229D01*
X445163442Y-40684921D01*
X445223039Y-40622412D01*
X445285547Y-40562815D01*
X445350855Y-40506244D01*
X445418849Y-40452811D01*
X445489417Y-40402630D01*
X445562444Y-40355813D01*
X445637818Y-40312474D01*
X445715427Y-40272725D01*
X445795155Y-40236681D01*
X445876892Y-40204454D01*
X445960523Y-40176156D01*
X446045936Y-40151902D01*
X446133018Y-40131804D01*
X446221655Y-40115976D01*
X446311734Y-40104529D01*
X446403142Y-40097579D01*
X446495767Y-40095237D01*
X446588388Y-40097579D01*
G37*
%TD.AperFunction*%
D11*
X449167139Y-18704947D02*
X449301138Y-18715136D01*
X449433188Y-18731916D01*
X449563125Y-18755120D01*
X449690782Y-18784584D01*
X449815993Y-18820140D01*
X449938593Y-18861623D01*
X450058417Y-18908868D01*
X450175297Y-18961708D01*
X450289068Y-19019978D01*
X450399565Y-19083513D01*
X450506622Y-19152145D01*
X450610073Y-19225711D01*
X450709751Y-19304042D01*
X450805493Y-19386974D01*
X450897130Y-19474342D01*
X450984499Y-19565979D01*
X451067432Y-19661720D01*
X451145765Y-19761398D01*
X451219331Y-19864848D01*
X451287964Y-19971905D01*
X451351499Y-20082402D01*
X451409770Y-20196173D01*
X451462611Y-20313053D01*
X451509857Y-20432876D01*
X451551341Y-20555477D01*
X451586898Y-20680689D01*
X451616361Y-20808346D01*
X451639566Y-20938283D01*
X451656346Y-21070335D01*
X451666536Y-21204335D01*
X451669969Y-21340117D01*
X451669969Y-138361986D01*
X451666536Y-138497769D01*
X451656346Y-138631769D01*
X451639566Y-138763821D01*
X451616361Y-138893759D01*
X451586898Y-139021417D01*
X451551341Y-139146629D01*
X451509857Y-139269230D01*
X451462611Y-139389054D01*
X451409770Y-139505934D01*
X451351499Y-139619706D01*
X451287964Y-139730203D01*
X451219331Y-139837260D01*
X451145765Y-139940710D01*
X451067432Y-140040389D01*
X450984499Y-140136130D01*
X450897130Y-140227767D01*
X450805493Y-140315135D01*
X450709751Y-140398068D01*
X450610073Y-140476399D01*
X450506622Y-140549964D01*
X450399565Y-140618597D01*
X450289068Y-140682131D01*
X450175297Y-140740402D01*
X450058417Y-140793242D01*
X449938593Y-140840487D01*
X449815993Y-140881970D01*
X449690782Y-140917526D01*
X449563125Y-140946990D01*
X449433188Y-140970194D01*
X449301138Y-140986974D01*
X449167139Y-140997163D01*
X449031358Y-141000597D01*
X23318579Y-141000597D01*
X23182797Y-140997163D01*
X23048797Y-140986974D01*
X22916745Y-140970194D01*
X22786808Y-140946990D01*
X22659151Y-140917526D01*
X22533939Y-140881970D01*
X22411338Y-140840487D01*
X22291515Y-140793242D01*
X22174635Y-140740402D01*
X22060864Y-140682131D01*
X21950367Y-140618597D01*
X21843310Y-140549964D01*
X21739860Y-140476399D01*
X21640182Y-140398068D01*
X21544441Y-140315135D01*
X21452804Y-140227767D01*
X21365436Y-140136130D01*
X21282504Y-140040389D01*
X21204173Y-139940710D01*
X21130607Y-139837260D01*
X21061975Y-139730203D01*
X20998440Y-139619706D01*
X20940170Y-139505934D01*
X20887330Y-139389054D01*
X20840085Y-139269230D01*
X20798602Y-139146629D01*
X20763046Y-139021417D01*
X20733582Y-138893759D01*
X20710378Y-138763821D01*
X20693598Y-138631769D01*
X20683409Y-138497769D01*
X20679975Y-138361986D01*
X20679975Y-21340117D01*
X20683409Y-21204335D01*
X20693598Y-21070335D01*
X20710378Y-20938283D01*
X20733582Y-20808346D01*
X20763046Y-20680689D01*
X20798602Y-20555477D01*
X20840085Y-20432876D01*
X20887330Y-20313053D01*
X20940170Y-20196173D01*
X20998440Y-20082402D01*
X21061975Y-19971905D01*
X21130607Y-19864848D01*
X21204173Y-19761398D01*
X21282504Y-19661720D01*
X21365436Y-19565979D01*
X21452804Y-19474342D01*
X21544441Y-19386974D01*
X21640182Y-19304042D01*
X21739860Y-19225711D01*
X21843310Y-19152145D01*
X21950367Y-19083513D01*
X22060864Y-19019978D01*
X22174635Y-18961708D01*
X22291515Y-18908868D01*
X22411338Y-18861623D01*
X22533939Y-18820140D01*
X22659151Y-18784584D01*
X22786808Y-18755120D01*
X22916745Y-18731916D01*
X23048797Y-18715136D01*
X23182797Y-18704947D01*
X23318579Y-18701513D01*
X449031358Y-18701513D01*
X449167139Y-18704947D01*
D10*
%TA.AperFunction,Profile*%
G36*
X281073237Y-131150757D02*
G01*
X281219257Y-131163308D01*
X281363153Y-131183975D01*
X281504746Y-131212556D01*
X281643855Y-131248845D01*
X281780298Y-131292639D01*
X281913895Y-131343733D01*
X282044466Y-131401924D01*
X282171830Y-131467006D01*
X282295807Y-131538777D01*
X282416215Y-131617031D01*
X282532873Y-131701565D01*
X282645603Y-131792174D01*
X282754221Y-131888654D01*
X282858549Y-131990801D01*
X282958405Y-132098410D01*
X283053609Y-132211278D01*
X283143980Y-132329200D01*
X283229338Y-132451973D01*
X283309501Y-132579391D01*
X283384289Y-132711251D01*
X283453522Y-132847348D01*
X283517018Y-132987479D01*
X283574598Y-133131438D01*
X283626080Y-133279023D01*
X283671284Y-133430028D01*
X283710029Y-133584250D01*
X283742135Y-133741484D01*
X283767420Y-133901527D01*
X283785705Y-134064173D01*
X283796808Y-134229219D01*
X283800549Y-134396460D01*
X283800549Y-135190726D01*
X283800549Y-135250677D01*
X283800031Y-135250677D01*
X283793689Y-135415663D01*
X283780202Y-135578389D01*
X283759744Y-135738658D01*
X283732492Y-135896277D01*
X283698621Y-136051050D01*
X283658308Y-136202781D01*
X283611728Y-136351276D01*
X283559058Y-136496339D01*
X283500473Y-136637774D01*
X283436150Y-136775388D01*
X283366263Y-136908984D01*
X283290990Y-137038367D01*
X283210506Y-137163341D01*
X283124988Y-137283713D01*
X283034610Y-137399286D01*
X282939549Y-137509865D01*
X282839982Y-137615255D01*
X282736083Y-137715261D01*
X282628029Y-137809688D01*
X282515996Y-137898339D01*
X282400160Y-137981021D01*
X282280697Y-138057537D01*
X282157782Y-138127693D01*
X282031592Y-138191293D01*
X281902303Y-138248142D01*
X281770090Y-138298045D01*
X281635130Y-138340806D01*
X281497598Y-138376231D01*
X281357671Y-138404123D01*
X281215524Y-138424289D01*
X281071333Y-138436532D01*
X280925275Y-138440657D01*
X280779219Y-138436532D01*
X280635031Y-138424289D01*
X280492886Y-138404123D01*
X280352960Y-138376231D01*
X280215430Y-138340806D01*
X280080471Y-138298045D01*
X279948259Y-138248142D01*
X279818970Y-138191293D01*
X279692781Y-138127693D01*
X279569866Y-138057537D01*
X279450403Y-137981021D01*
X279334567Y-137898339D01*
X279222533Y-137809688D01*
X279114479Y-137715261D01*
X279010580Y-137615255D01*
X278911012Y-137509865D01*
X278815950Y-137399286D01*
X278725572Y-137283713D01*
X278640052Y-137163341D01*
X278559567Y-137038367D01*
X278484293Y-136908984D01*
X278414406Y-136775388D01*
X278350082Y-136637774D01*
X278291496Y-136496339D01*
X278238825Y-136351276D01*
X278192244Y-136202781D01*
X278151930Y-136051050D01*
X278118059Y-135896277D01*
X278090806Y-135738658D01*
X278070348Y-135578389D01*
X278056860Y-135415663D01*
X278050519Y-135250677D01*
X278050000Y-135250677D01*
X278050000Y-135201598D01*
X278050000Y-135190703D01*
X278050000Y-135185550D01*
X278050000Y-134788428D01*
X278050000Y-134396460D01*
X278053741Y-134229219D01*
X278064845Y-134064173D01*
X278083130Y-133901527D01*
X278108416Y-133741484D01*
X278140522Y-133584250D01*
X278179268Y-133430028D01*
X278224473Y-133279023D01*
X278275956Y-133131438D01*
X278333537Y-132987479D01*
X278397034Y-132847348D01*
X278466268Y-132711251D01*
X278541057Y-132579391D01*
X278621221Y-132451973D01*
X278706579Y-132329200D01*
X278796951Y-132211278D01*
X278892156Y-132098410D01*
X278992012Y-131990801D01*
X279096341Y-131888654D01*
X279204960Y-131792174D01*
X279317690Y-131701565D01*
X279434349Y-131617031D01*
X279554756Y-131538777D01*
X279678732Y-131467006D01*
X279806096Y-131401924D01*
X279936666Y-131343733D01*
X280070263Y-131292639D01*
X280206705Y-131248845D01*
X280345812Y-131212556D01*
X280487403Y-131183975D01*
X280631298Y-131163308D01*
X280777315Y-131150757D01*
X280925275Y-131146529D01*
X281073237Y-131150757D01*
G37*
%TD.AperFunction*%
D12*
X346750000Y-124312258D02*
X346750000Y-125904968D01*
X346750000Y-124312258D02*
G75*
G02*
X346757716Y-124188223I999800J58D01*
G01*
X346791202Y-126189056D02*
G75*
G02*
X346750001Y-125904968I959298J284156D01*
G01*
X346791202Y-126189056D02*
X346920420Y-126625168D01*
X346805041Y-123809671D02*
X346757722Y-124188224D01*
X346805041Y-123809671D02*
G75*
G02*
X346894038Y-123504647I991959J-123929D01*
G01*
X346999512Y-126816597D02*
G75*
G02*
X346920412Y-126625170I879788J475597D01*
G01*
X346999512Y-126816597D02*
X347380600Y-127521610D01*
X347225919Y-122805961D02*
X346894042Y-123504649D01*
X347225919Y-122805961D02*
G75*
G02*
X347422085Y-122527907I903281J-429039D01*
G01*
X347553200Y-127753200D02*
G75*
G02*
X347380600Y-127521610I707900J707700D01*
G01*
X347553200Y-127753200D02*
X347760989Y-127960989D01*
X347694469Y-122255531D02*
X347422089Y-122527911D01*
X347694469Y-122255531D02*
G75*
G02*
X347871575Y-122114637I707331J-707369D01*
G01*
X347958293Y-128114174D02*
G75*
G02*
X347760984Y-127960994I509907J860474D01*
G01*
X347958293Y-128114174D02*
X348395239Y-128373105D01*
X348245355Y-121881028D02*
X347871577Y-122114640D01*
X348245355Y-121881028D02*
G75*
G02*
X348522931Y-121761405I530045J-848072D01*
G01*
X348671669Y-128485200D02*
G75*
G02*
X348395233Y-128373115I233131J971900D01*
G01*
X348671669Y-128485200D02*
X349034947Y-128572387D01*
X348898526Y-121663428D02*
X348522932Y-121761409D01*
X348898526Y-121663428D02*
G75*
G02*
X349002607Y-121642105I252574J-968172D01*
G01*
X349268320Y-128600000D02*
G75*
G02*
X349034946Y-128572392I-20J1000000D01*
G01*
X349268320Y-128600000D02*
X349759946Y-128600000D01*
X349314042Y-121595394D02*
X349002608Y-121642109D01*
X349314042Y-121595394D02*
G75*
G02*
X349586418Y-121592048I148358J-989006D01*
G01*
X349963381Y-121639173D02*
X349586418Y-121592052D01*
X349963381Y-121639173D02*
G75*
G02*
X350133431Y-121675673I-123881J-991527D01*
G01*
X350034666Y-128561524D02*
G75*
G02*
X349759946Y-128600008I-274666J960924D01*
G01*
X350034666Y-128561524D02*
X350322861Y-128479183D01*
X350518729Y-128400011D02*
G75*
G02*
X350322864Y-128479193I-470629J882311D01*
G01*
X350518729Y-128400011D02*
X350736896Y-128283655D01*
X350547637Y-121803119D02*
X350133432Y-121675671D01*
X350547637Y-121803119D02*
G75*
G02*
X350830226Y-121941942I-294137J-955781D01*
G01*
X350857672Y-128207707D02*
G75*
G02*
X350736894Y-128283652I-591772J807107D01*
G01*
X350857672Y-128207707D02*
X351102361Y-128028268D01*
X351082410Y-122119937D02*
X350830234Y-121941930D01*
X351082410Y-122119937D02*
G75*
G02*
X351164232Y-122184330I-576610J-816863D01*
G01*
X351236950Y-127909608D02*
G75*
G02*
X351102368Y-128028277I-725650J687308D01*
G01*
X351236950Y-127909608D02*
X351546725Y-127582624D01*
X351409943Y-122399326D02*
X351164233Y-122184329D01*
X351409943Y-122399326D02*
G75*
G02*
X351604721Y-122630452I-658143J-752274D01*
G01*
X351682706Y-127401899D02*
G75*
G02*
X351546734Y-127582633I-862006J506999D01*
G01*
X351682706Y-127401899D02*
X351834674Y-127143554D01*
X351717673Y-122815283D02*
X351604721Y-122630452D01*
X351717673Y-122815283D02*
G75*
G02*
X351743652Y-122860395I-851873J-520617D01*
G01*
X351844282Y-123046143D02*
X351743653Y-122860394D01*
X351844282Y-123046143D02*
G75*
G02*
X351867878Y-123092545I-882282J-477857D01*
G01*
X351903983Y-127000933D02*
G75*
G02*
X351834672Y-127143553I-931483J364533D01*
G01*
X351903983Y-127000933D02*
X352044613Y-126641544D01*
X352003967Y-123378330D02*
X351867878Y-123092545D01*
X352003967Y-123378330D02*
G75*
G02*
X352074518Y-123579226I-902767J-429870D01*
G01*
X352110829Y-126348392D02*
G75*
G02*
X352044599Y-126641539I-997429J71292D01*
G01*
X352110829Y-126348392D02*
X352147459Y-125835578D01*
X352123417Y-123787022D02*
X352074523Y-123579225D01*
X352123417Y-123787022D02*
G75*
G02*
X352150009Y-124016063I-973417J-229078D01*
G01*
X352150000Y-125764331D02*
G75*
G02*
X352147461Y-125835578I-996300J-169D01*
G01*
X352150000Y-125764331D02*
X352150000Y-124016063D01*
M02*
