M48
; DRILL file KiCad 10.0.5-10.0.5~ubuntu26.04.1 date 2026-08-15T22:40:00
; FORMAT={-:-/ absolute / metric / decimal}
; #@! TF.CreationDate,2026-08-15T22:40:00+01:00
; #@! TF.GenerationSoftware,Kicad,Pcbnew,10.0.5-10.0.5~ubuntu26.04.1
; #@! TF.FileFunction,Plated,1,2,PTH
FMAT,2
METRIC
; #@! TA.AperFunction,Plated,PTH,ViaDrill
T1C0.300
; #@! TA.AperFunction,Plated,PTH,ComponentDrill
T2C0.800
; #@! TA.AperFunction,Plated,PTH,ComponentDrill
T3C3.000
; #@! TA.AperFunction,Plated,PTH,ComponentDrill
T4C3.500
%
G90
G05
T1
X22.375Y-139.075
X23.9Y-125.975
X24.9Y-38.8
X25.75Y-88.4
X25.9Y-125.25
X27.225Y-106.725
X31.4Y-51.5
X35.4Y-52.65
X37.1Y-40.65
X37.55Y-101.3
X37.95Y-59.1
X38.4Y-35.6
X39.7Y-25.8
X41.15Y-64.425
X44.025Y-88.15
X47.25Y-125.65
X53.15Y-51.525
X60.375Y-127.575
X62.35Y-38.65
X63.1Y-117.2
X67.3Y-89.725
X72.075Y-51.55
X72.5Y-26.0
X83.5Y-43.2
X83.95Y-127.575
X86.425Y-89.6
X91.075Y-51.475
X103.0Y-43.8
X103.15Y-102.65
X105.325Y-89.6
X110.15Y-51.575
X113.075Y-133.1
X120.5Y-122.525
X122.6Y-44.5
X124.425Y-89.6
X129.175Y-51.525
X133.2Y-23.95
X142.635Y-45.335
X143.2Y-89.675
X148.125Y-51.525
X155.375Y-127.625
X158.0Y-26.4
X162.375Y-89.625
X166.4Y-84.65
X167.05Y-51.525
X173.475Y-55.175
X174.3Y-46.1
X177.7Y-72.775
X181.025Y-69.9
X182.025Y-89.2
X183.2Y-100.125
X185.95Y-51.55
X200.275Y-89.575
X201.175Y-99.95
X205.1Y-51.5
X215.7Y-25.7
X219.15Y-89.675
X219.775Y-99.575
X224.7Y-51.075
X226.5Y-127.75
X229.375Y-54.075
X238.2Y-89.625
X240.225Y-99.725
X243.0Y-51.5
X249.5Y-62.6
X249.6Y-52.3
X250.3Y-127.625
X257.4Y-89.525
X258.0Y-71.225
X260.175Y-98.025
X262.2Y-51.525
X263.1Y-90.2
X263.4Y-88.9
X263.6Y-82.55
X264.1Y-120.7
X264.7Y-120.1
X265.3Y-119.5
X266.0Y-118.9
X267.1Y-28.0
X272.5Y-73.2
X274.0Y-127.725
X275.375Y-121.825
X275.85Y-89.6
X276.625Y-68.2
X277.3Y-92.6
X283.8Y-75.625
X290.5Y-51.475
X292.65Y-107.7
X295.6Y-121.8
X297.775Y-127.7
X298.625Y-118.9
X298.625Y-120.1
X298.975Y-93.95
X299.175Y-120.7
X299.225Y-119.5
X300.7Y-127.9
X301.1Y-78.35
X304.65Y-115.45
X305.05Y-37.9
X306.4Y-25.8
X307.4Y-42.5
X307.4Y-43.7
X307.4Y-44.9
X307.4Y-46.1
X308.1Y-43.1
X308.1Y-44.3
X308.1Y-45.5
X309.375Y-103.525
X310.725Y-93.375
X311.725Y-92.425
X314.05Y-111.55
X314.125Y-101.325
X314.3Y-90.1
X314.4Y-92.75
X314.925Y-117.35
X316.375Y-110.317
X317.1Y-90.025
X317.75Y-89.275
X318.375Y-89.975
X318.6Y-103.7
X318.975Y-89.225
X319.275Y-103.15
X319.575Y-89.875
X319.9Y-103.7
X320.175Y-89.2
X320.5Y-103.0
X320.775Y-89.8
X321.1Y-103.8
X321.8Y-103.175
X324.1Y-89.125
X324.275Y-102.95
X324.65Y-91.345
X325.325Y-109.625
X325.725Y-127.675
X325.825Y-51.55
X326.325Y-99.745
X327.4Y-90.8
X330.25Y-98.55
X332.925Y-101.875
X333.5Y-89.8
X335.637Y-90.087
X340.6Y-91.4
X340.625Y-92.65
X341.2Y-90.775
X341.2Y-92.025
X341.2Y-93.3
X344.9Y-51.55
X345.05Y-129.15
X345.1Y-124.875
X348.6Y-100.25
X353.65Y-42.65
X354.5Y-126.2
X358.35Y-92.375
X359.0Y-96.8
X359.1Y-112.1
X359.125Y-113.35
X359.7Y-112.725
X359.7Y-114.0
X363.65Y-127.6
X363.75Y-51.55
X364.182Y-94.6
X364.25Y-100.25
X364.49Y-98.5
X365.4Y-94.596
X366.2Y-90.7
X367.8Y-107.6
X369.15Y-89.05
X369.525Y-69.975
X373.025Y-94.9
X373.4Y-77.25
X373.6Y-119.7
X374.375Y-38.925
X375.7Y-101.65
X377.875Y-81.85
X378.0Y-63.1
X379.6Y-25.975
X379.7Y-47.6
X380.675Y-39.025
X382.644Y-41.635
X382.644Y-42.435
X382.8Y-40.425
X386.0Y-43.75
X387.25Y-22.45
X387.55Y-35.825
X388.725Y-51.525
X388.875Y-89.55
X392.775Y-98.825
X398.475Y-127.6
X400.55Y-120.1
X402.6Y-37.4
X407.2Y-27.8
X407.825Y-89.6
X408.0Y-29.0
X408.075Y-51.525
X418.15Y-63.25
X420.075Y-119.5
X426.6Y-51.45
X427.575Y-91.975
X434.5Y-129.8
X435.955Y-70.655
X437.0Y-29.5
X437.9Y-111.31
X447.15Y-79.75
X447.425Y-53.1
T2
X372.7Y-37.1
X372.7Y-39.1
X372.7Y-41.1
X372.7Y-43.1
X372.7Y-45.1
T3
X27.06Y-59.155
X27.081Y-33.593
X29.285Y-135.28
X29.31Y-116.28
X31.825Y-78.205
X33.41Y-56.615
X33.431Y-31.053
X34.06Y-97.255
X35.635Y-132.74
X35.66Y-113.74
X38.175Y-75.665
X40.41Y-94.715
X46.01Y-59.155
X50.76Y-116.28
X52.36Y-56.615
X53.01Y-135.305
X55.56Y-78.205
X57.11Y-113.74
X59.36Y-132.765
X59.985Y-97.23
X61.91Y-75.665
X65.025Y-59.155
X65.06Y-33.593
X66.335Y-94.69
X70.01Y-116.28
X71.375Y-56.615
X71.41Y-31.053
X74.535Y-78.205
X76.36Y-113.74
X76.685Y-135.305
X78.975Y-97.23
X80.885Y-75.665
X83.035Y-132.765
X83.975Y-59.18
X84.01Y-33.593
X85.325Y-94.69
X88.985Y-116.28
X90.325Y-56.64
X90.36Y-31.053
X93.5Y-78.23
X95.335Y-113.74
X97.95Y-97.255
X99.85Y-75.69
X102.95Y-33.593
X102.985Y-59.155
X104.3Y-94.715
X107.935Y-116.28
X109.3Y-31.053
X109.335Y-56.615
X112.5Y-78.205
X114.285Y-113.74
X117.01Y-97.23
X118.85Y-75.665
X121.985Y-33.593
X122.0Y-59.155
X123.36Y-94.69
X126.985Y-116.28
X128.335Y-31.053
X128.35Y-56.615
X131.535Y-78.205
X133.335Y-113.74
X135.985Y-97.255
X137.885Y-75.665
X141.0Y-59.155
X142.335Y-94.715
X145.975Y-116.28
X147.35Y-56.615
X147.96Y-135.28
X150.41Y-33.593
X150.475Y-78.205
X152.325Y-113.74
X154.31Y-132.74
X154.96Y-97.255
X156.76Y-31.053
X156.825Y-75.665
X159.925Y-59.155
X161.31Y-94.715
X164.95Y-116.28
X166.275Y-56.615
X169.4Y-33.58
X169.435Y-78.205
X171.3Y-113.74
X173.95Y-97.23
X175.75Y-31.04
X175.785Y-75.665
X178.875Y-59.205
X180.3Y-94.69
X183.935Y-116.305
X185.225Y-56.665
X188.4Y-33.58
X188.435Y-78.205
X190.285Y-113.765
X192.91Y-97.255
X194.75Y-31.04
X194.785Y-75.665
X197.9Y-59.155
X199.26Y-94.715
X202.885Y-116.255
X204.25Y-56.615
X207.35Y-33.58
X207.41Y-78.205
X209.235Y-113.715
X211.885Y-97.23
X213.7Y-31.04
X213.76Y-75.665
X216.9Y-59.155
X218.235Y-94.69
X219.21Y-135.28
X221.885Y-116.28
X223.25Y-56.615
X225.56Y-132.74
X226.435Y-78.205
X228.235Y-113.74
X230.935Y-97.23
X232.785Y-75.665
X235.9Y-59.18
X235.91Y-33.58
X237.285Y-94.69
X240.96Y-116.28
X242.25Y-56.64
X242.26Y-31.04
X242.985Y-135.305
X245.41Y-78.18
X247.31Y-113.74
X249.335Y-132.765
X249.96Y-97.23
X251.76Y-75.64
X254.91Y-33.555
X254.95Y-59.155
X256.31Y-94.69
X261.26Y-31.015
X261.3Y-56.615
X264.435Y-78.205
X266.71Y-135.28
X268.66Y-97.23
X270.785Y-75.665
X273.06Y-132.74
X273.9Y-33.58
X275.01Y-94.69
X276.435Y-116.255
X280.25Y-31.04
X282.785Y-113.715
X283.45Y-59.18
X289.8Y-56.64
X290.125Y-87.58
X290.46Y-135.305
X292.9Y-33.555
X296.475Y-85.04
X296.81Y-132.765
X299.25Y-31.015
X318.41Y-33.555
X318.41Y-59.18
X318.435Y-78.255
X318.475Y-135.305
X324.76Y-31.015
X324.76Y-56.64
X324.785Y-75.715
X324.825Y-132.765
X337.36Y-33.593
X337.36Y-78.18
X337.385Y-59.205
X337.4Y-135.28
X337.435Y-116.255
X343.71Y-31.053
X343.71Y-75.64
X343.735Y-56.665
X343.75Y-132.74
X343.785Y-113.715
X356.4Y-78.205
X356.41Y-33.555
X356.435Y-59.18
X356.435Y-135.305
X362.75Y-75.665
X362.76Y-31.015
X362.785Y-56.64
X362.785Y-132.765
X381.775Y-59.18
X381.775Y-97.255
X381.785Y-78.205
X381.785Y-116.28
X388.125Y-56.64
X388.125Y-94.715
X388.135Y-75.665
X388.135Y-113.74
X391.235Y-135.23
X397.585Y-132.69
X400.735Y-59.18
X400.735Y-78.205
X400.735Y-97.23
X400.735Y-116.305
X407.085Y-56.64
X407.085Y-75.665
X407.085Y-94.69
X407.085Y-113.765
X419.685Y-59.18
X419.685Y-116.28
X419.7Y-97.205
X419.71Y-78.205
X419.71Y-135.23
X426.035Y-56.64
X426.035Y-113.74
X426.05Y-94.665
X426.06Y-75.665
X426.06Y-132.69
X438.65Y-125.58
X438.66Y-59.18
X438.685Y-87.505
X445.0Y-123.04
X445.01Y-56.64
X445.035Y-84.965
T4
X46.25Y-66.15
X67.525Y-124.575
X233.575Y-124.525
X280.025Y-72.475
X412.45Y-121.275
X432.775Y-64.6
M30
