%TF.GenerationSoftware,KiCad,Pcbnew,10.0.5-10.0.5~ubuntu26.04.1*%
%TF.CreationDate,2026-08-15T22:39:45+01:00*%
%TF.ProjectId,keyboard,6b657962-6f61-4726-942e-6b696361645f,1*%
%TF.SameCoordinates,Original*%
%TF.FileFunction,Paste,Bot*%
%TF.FilePolarity,Positive*%
%FSLAX46Y46*%
G04 Gerber Fmt 4.6, Leading zero omitted, Abs format (unit mm)*
G04 Created by KiCad (PCBNEW 10.0.5-10.0.5~ubuntu26.04.1) date 2026-08-15 22:39:45*
%MOMM*%
%LPD*%
G01*
G04 APERTURE LIST*
G04 Aperture macros list*
%AMRoundRect*
0 Rectangle with rounded corners*
0 $1 Rounding radius*
0 $2 $3 $4 $5 $6 $7 $8 $9 X,Y pos of 4 corners*
0 Add a 4 corners polygon primitive as box body*
4,1,4,$2,$3,$4,$5,$6,$7,$8,$9,$2,$3,0*
0 Add four circle primitives for the rounded corners*
1,1,$1+$1,$2,$3*
1,1,$1+$1,$4,$5*
1,1,$1+$1,$6,$7*
1,1,$1+$1,$8,$9*
0 Add four rect primitives between the rounded corners*
20,1,$1+$1,$2,$3,$4,$5,0*
20,1,$1+$1,$4,$5,$6,$7,0*
20,1,$1+$1,$6,$7,$8,$9,0*
20,1,$1+$1,$8,$9,$2,$3,0*%
%AMFreePoly0*
4,1,18,-0.410000,0.518000,-0.403758,0.549380,-0.385983,0.575983,-0.359380,0.593758,-0.328000,0.600000,0.328000,0.600000,0.359380,0.593758,0.385983,0.575983,0.403758,0.549380,0.410000,0.518000,0.410000,-0.518000,0.403758,-0.549380,0.385983,-0.575983,0.359380,-0.593758,0.328000,-0.600000,0.000000,-0.600000,-0.410000,-0.190000,-0.410000,0.518000,-0.410000,0.518000,$1*%
G04 Aperture macros list end*
%ADD10RoundRect,0.140000X0.140000X0.170000X-0.140000X0.170000X-0.140000X-0.170000X0.140000X-0.170000X0*%
%ADD11RoundRect,0.225000X-0.375000X0.225000X-0.375000X-0.225000X0.375000X-0.225000X0.375000X0.225000X0*%
%ADD12RoundRect,0.250000X-1.025000X-1.000000X1.025000X-1.000000X1.025000X1.000000X-1.025000X1.000000X0*%
%ADD13FreePoly0,270.000000*%
%ADD14RoundRect,0.082000X-0.518000X0.328000X-0.518000X-0.328000X0.518000X-0.328000X0.518000X0.328000X0*%
%ADD15RoundRect,0.140000X-0.140000X-0.170000X0.140000X-0.170000X0.140000X0.170000X-0.140000X0.170000X0*%
%ADD16FreePoly0,90.000000*%
%ADD17RoundRect,0.082000X0.518000X-0.328000X0.518000X0.328000X-0.518000X0.328000X-0.518000X-0.328000X0*%
%ADD18RoundRect,0.140000X-0.170000X0.140000X-0.170000X-0.140000X0.170000X-0.140000X0.170000X0.140000X0*%
%ADD19RoundRect,0.135000X-0.135000X-0.185000X0.135000X-0.185000X0.135000X0.185000X-0.135000X0.185000X0*%
%ADD20R,0.700000X0.510000*%
%ADD21RoundRect,0.135000X0.135000X0.185000X-0.135000X0.185000X-0.135000X-0.185000X0.135000X-0.185000X0*%
%ADD22R,1.700000X1.000000*%
%ADD23RoundRect,0.150000X0.825000X0.150000X-0.825000X0.150000X-0.825000X-0.150000X0.825000X-0.150000X0*%
%ADD24RoundRect,0.225000X-0.250000X0.225000X-0.250000X-0.225000X0.250000X-0.225000X0.250000X0.225000X0*%
%ADD25RoundRect,0.140000X0.170000X-0.140000X0.170000X0.140000X-0.170000X0.140000X-0.170000X-0.140000X0*%
%ADD26RoundRect,0.250000X0.375000X0.625000X-0.375000X0.625000X-0.375000X-0.625000X0.375000X-0.625000X0*%
%ADD27RoundRect,0.150000X-0.512500X-0.150000X0.512500X-0.150000X0.512500X0.150000X-0.512500X0.150000X0*%
%ADD28RoundRect,0.075000X-0.662500X-0.075000X0.662500X-0.075000X0.662500X0.075000X-0.662500X0.075000X0*%
%ADD29RoundRect,0.075000X-0.075000X-0.662500X0.075000X-0.662500X0.075000X0.662500X-0.075000X0.662500X0*%
G04 APERTURE END LIST*
D10*
%TO.C,C47*%
X387905000Y-51525000D03*
X386945000Y-51525000D03*
%TD*%
%TO.C,C48*%
X406930000Y-51500000D03*
X405970000Y-51500000D03*
%TD*%
D11*
%TO.C,D92*%
X436200000Y-121550000D03*
X436200000Y-118250000D03*
%TD*%
%TO.C,D34*%
X379314824Y-55150000D03*
X379314824Y-51850000D03*
%TD*%
%TO.C,D90*%
X398285176Y-112275000D03*
X398285176Y-108975000D03*
%TD*%
D10*
%TO.C,C50*%
X443795000Y-51550000D03*
X444755000Y-51550000D03*
%TD*%
D12*
%TO.C,MX73*%
X397185000Y-97230000D03*
X410635000Y-94690000D03*
%TD*%
%TO.C,MX35*%
X397185000Y-59180000D03*
X410635000Y-56640000D03*
%TD*%
D10*
%TO.C,C86*%
X405945000Y-89600000D03*
X406905000Y-89600000D03*
%TD*%
D13*
%TO.C,LED75*%
X381406667Y-86210000D03*
D14*
X381406667Y-87710000D03*
X387006667Y-86210000D03*
X387006667Y-87710000D03*
%TD*%
D15*
%TO.C,C27*%
X391430000Y-31250000D03*
X390470000Y-31250000D03*
%TD*%
%TO.C,C68*%
X381380000Y-65400000D03*
X380420000Y-65400000D03*
%TD*%
D11*
%TO.C,D105*%
X417250000Y-131150000D03*
X417250000Y-127850000D03*
%TD*%
D10*
%TO.C,C118*%
X424870000Y-127575000D03*
X425830000Y-127575000D03*
%TD*%
D15*
%TO.C,C105*%
X438280000Y-112800000D03*
X437320000Y-112800000D03*
%TD*%
D11*
%TO.C,D58*%
X436225000Y-83550000D03*
X436225000Y-80250000D03*
%TD*%
D12*
%TO.C,MX91*%
X416135000Y-116280000D03*
X429585000Y-113740000D03*
%TD*%
D11*
%TO.C,D37*%
X436900000Y-55250000D03*
X436900000Y-51950000D03*
%TD*%
D13*
%TO.C,LED76*%
X400385000Y-86310000D03*
D14*
X400385000Y-87810000D03*
X405985000Y-86310000D03*
X405985000Y-87810000D03*
%TD*%
D13*
%TO.C,LED107*%
X390835000Y-124245833D03*
D14*
X390835000Y-125745833D03*
X396435000Y-124245833D03*
X396435000Y-125745833D03*
%TD*%
D11*
%TO.C,D91*%
X417235176Y-112250000D03*
X417235176Y-108950000D03*
%TD*%
D12*
%TO.C,MX55*%
X378235000Y-78205000D03*
X391685000Y-75665000D03*
%TD*%
D10*
%TO.C,C85*%
X386945000Y-89525000D03*
X387905000Y-89525000D03*
%TD*%
D16*
%TO.C,LED95*%
X443910000Y-116050000D03*
D17*
X443910000Y-114550000D03*
X438310000Y-116050000D03*
X438310000Y-114550000D03*
%TD*%
D18*
%TO.C,C10*%
X439300000Y-31240000D03*
X439300000Y-30280000D03*
%TD*%
D12*
%TO.C,MX104*%
X387685000Y-135230000D03*
X401135000Y-132690000D03*
%TD*%
D16*
%TO.C,LED58*%
X387000000Y-68733333D03*
D17*
X387000000Y-67233333D03*
X381400000Y-68733333D03*
X381400000Y-67233333D03*
%TD*%
D15*
%TO.C,C70*%
X419280000Y-65400000D03*
X418320000Y-65400000D03*
%TD*%
D16*
%TO.C,LED18*%
X416035000Y-34612500D03*
D17*
X416035000Y-33112500D03*
X410435000Y-34612500D03*
X410435000Y-33112500D03*
%TD*%
D15*
%TO.C,C28*%
X410430000Y-31300000D03*
X409470000Y-31300000D03*
%TD*%
D16*
%TO.C,LED60*%
X424875000Y-68744444D03*
D17*
X424875000Y-67244444D03*
X419275000Y-68744444D03*
X419275000Y-67244444D03*
%TD*%
D11*
%TO.C,D89*%
X379335176Y-112250000D03*
X379335176Y-108950000D03*
%TD*%
%TO.C,D35*%
X398950000Y-55150000D03*
X398950000Y-51850000D03*
%TD*%
%TO.C,D55*%
X379325000Y-74250000D03*
X379325000Y-70950000D03*
%TD*%
D12*
%TO.C,MX57*%
X416160000Y-78205000D03*
X429610000Y-75665000D03*
%TD*%
D19*
%TO.C,R1*%
X406525000Y-25150000D03*
X405505000Y-25150000D03*
%TD*%
D12*
%TO.C,MX74*%
X416149824Y-97205000D03*
X429599824Y-94665000D03*
%TD*%
%TO.C,MX58*%
X435135000Y-87505000D03*
X448585000Y-84965000D03*
%TD*%
D10*
%TO.C,C117*%
X396420000Y-127550000D03*
X397380000Y-127550000D03*
%TD*%
D13*
%TO.C,LED77*%
X419331250Y-86320000D03*
D14*
X419331250Y-87820000D03*
X424931250Y-86320000D03*
X424931250Y-87820000D03*
%TD*%
D12*
%TO.C,MX92*%
X435099824Y-125580000D03*
X448549824Y-123040000D03*
%TD*%
D10*
%TO.C,C29*%
X428320000Y-31300000D03*
X429280000Y-31300000D03*
%TD*%
D11*
%TO.C,D57*%
X417250000Y-74250000D03*
X417250000Y-70950000D03*
%TD*%
D15*
%TO.C,C104*%
X419330000Y-103550000D03*
X418370000Y-103550000D03*
%TD*%
D16*
%TO.C,LED19*%
X434910000Y-34650000D03*
D17*
X434910000Y-33150000D03*
X429310000Y-34650000D03*
X429310000Y-33150000D03*
%TD*%
D11*
%TO.C,D104*%
X388775000Y-131150000D03*
X388775000Y-127850000D03*
%TD*%
D15*
%TO.C,C103*%
X400330000Y-103550000D03*
X399370000Y-103550000D03*
%TD*%
D11*
%TO.C,D36*%
X417225000Y-55150000D03*
X417225000Y-51850000D03*
%TD*%
D13*
%TO.C,LED40*%
X438250000Y-48231250D03*
D14*
X438250000Y-49731250D03*
X443850000Y-48231250D03*
X443850000Y-49731250D03*
%TD*%
D12*
%TO.C,MX36*%
X416135000Y-59180000D03*
X429585000Y-56640000D03*
%TD*%
%TO.C,MX56*%
X397185000Y-78205000D03*
X410635000Y-75665000D03*
%TD*%
D13*
%TO.C,LED108*%
X419293750Y-124225000D03*
D14*
X419293750Y-125725000D03*
X424893750Y-124225000D03*
X424893750Y-125725000D03*
%TD*%
D12*
%TO.C,MX34*%
X378224824Y-59180000D03*
X391674824Y-56640000D03*
%TD*%
%TO.C,MX89*%
X378235000Y-116280000D03*
X391685000Y-113740000D03*
%TD*%
D13*
%TO.C,LED37*%
X381403333Y-48197500D03*
D14*
X381403333Y-49697500D03*
X387003333Y-48197500D03*
X387003333Y-49697500D03*
%TD*%
D12*
%TO.C,MX37*%
X435110000Y-59180000D03*
X448560000Y-56640000D03*
%TD*%
D16*
%TO.C,LED94*%
X424912500Y-106825000D03*
D17*
X424912500Y-105325000D03*
X419312500Y-106825000D03*
X419312500Y-105325000D03*
%TD*%
D11*
%TO.C,D74*%
X417700000Y-93450000D03*
X417700000Y-90150000D03*
%TD*%
D12*
%TO.C,MX105*%
X416160000Y-135230000D03*
X429610000Y-132690000D03*
%TD*%
D11*
%TO.C,D73*%
X398275000Y-93225000D03*
X398275000Y-89925000D03*
%TD*%
D16*
%TO.C,LED93*%
X405935000Y-106862500D03*
D17*
X405935000Y-105362500D03*
X400335000Y-106862500D03*
X400335000Y-105362500D03*
%TD*%
D11*
%TO.C,D56*%
X398275000Y-74250000D03*
X398275000Y-70950000D03*
%TD*%
%TO.C,D72*%
X379314824Y-93250000D03*
X379314824Y-89950000D03*
%TD*%
D20*
%TO.C,U2*%
X441485000Y-31210000D03*
X441485000Y-33110000D03*
X443805000Y-33110000D03*
X443805000Y-32160000D03*
X443805000Y-31210000D03*
%TD*%
D13*
%TO.C,LED39*%
X419350000Y-48190000D03*
D14*
X419350000Y-49690000D03*
X424950000Y-48190000D03*
X424950000Y-49690000D03*
%TD*%
D21*
%TO.C,R2*%
X438335000Y-33160000D03*
X439355000Y-33160000D03*
%TD*%
D16*
%TO.C,LED59*%
X405951667Y-68794444D03*
D17*
X405951667Y-67294444D03*
X400351667Y-68794444D03*
X400351667Y-67294444D03*
%TD*%
D12*
%TO.C,MX72*%
X378224824Y-97255000D03*
X391674824Y-94715000D03*
%TD*%
D13*
%TO.C,LED38*%
X400368333Y-48186250D03*
D14*
X400368333Y-49686250D03*
X405968333Y-48186250D03*
X405968333Y-49686250D03*
%TD*%
D10*
%TO.C,C49*%
X424895000Y-51500000D03*
X425855000Y-51500000D03*
%TD*%
D15*
%TO.C,C102*%
X381430000Y-103550000D03*
X380470000Y-103550000D03*
%TD*%
D16*
%TO.C,LED17*%
X397025000Y-34575000D03*
D17*
X397025000Y-33075000D03*
X391425000Y-34575000D03*
X391425000Y-33075000D03*
%TD*%
D16*
%TO.C,LED61*%
X443885000Y-78025000D03*
D17*
X443885000Y-76525000D03*
X438285000Y-78025000D03*
X438285000Y-76525000D03*
%TD*%
D15*
%TO.C,C71*%
X438280000Y-74700000D03*
X437320000Y-74700000D03*
%TD*%
D22*
%TO.C,SW1*%
X416200000Y-25200000D03*
X409900000Y-25200000D03*
X416200000Y-29000000D03*
X409900000Y-29000000D03*
%TD*%
D12*
%TO.C,MX90*%
X397185000Y-116305000D03*
X410635000Y-113765000D03*
%TD*%
D10*
%TO.C,C87*%
X424895000Y-89650000D03*
X425855000Y-89650000D03*
%TD*%
D19*
%TO.C,R4*%
X403625000Y-25150000D03*
X402605000Y-25150000D03*
%TD*%
D16*
%TO.C,LED92*%
X387010000Y-106850000D03*
D17*
X387010000Y-105350000D03*
X381410000Y-106850000D03*
X381410000Y-105350000D03*
%TD*%
D15*
%TO.C,C69*%
X400280000Y-65500000D03*
X399320000Y-65500000D03*
%TD*%
D18*
%TO.C,C6*%
X322825000Y-91345000D03*
X322825000Y-92305000D03*
%TD*%
D11*
%TO.C,D12*%
X271439824Y-26200000D03*
X271439824Y-29500000D03*
%TD*%
%TO.C,D95*%
X74225000Y-127925000D03*
X74225000Y-131225000D03*
%TD*%
D10*
%TO.C,C84*%
X274780000Y-89600000D03*
X273820000Y-89600000D03*
%TD*%
%TO.C,C76*%
X123155000Y-89550000D03*
X122195000Y-89550000D03*
%TD*%
D17*
%TO.C,LED42*%
X55200000Y-67261111D03*
X55200000Y-68761111D03*
X60800000Y-67261111D03*
D16*
X60800000Y-68761111D03*
%TD*%
D12*
%TO.C,MX93*%
X39185000Y-132740000D03*
X25735000Y-135280000D03*
%TD*%
D17*
%TO.C,LED50*%
X207035000Y-67300000D03*
X207035000Y-68800000D03*
X212635000Y-67300000D03*
D16*
X212635000Y-68800000D03*
%TD*%
D18*
%TO.C,C64*%
X289700000Y-73870000D03*
X289700000Y-74830000D03*
%TD*%
D11*
%TO.C,D102*%
X334939824Y-127900000D03*
X334939824Y-131200000D03*
%TD*%
D17*
%TO.C,LED2*%
X64651667Y-22650000D03*
X64651667Y-24150000D03*
X70251667Y-22650000D03*
D16*
X70251667Y-24150000D03*
%TD*%
D15*
%TO.C,C62*%
X244020000Y-65400000D03*
X244980000Y-65400000D03*
%TD*%
D11*
%TO.C,D100*%
X288000000Y-127925000D03*
X288000000Y-131225000D03*
%TD*%
D14*
%TO.C,LED31*%
X241075000Y-49746250D03*
X241075000Y-48246250D03*
X235475000Y-49746250D03*
D13*
X235475000Y-48246250D03*
%TD*%
D11*
%TO.C,D8*%
X185939824Y-26200000D03*
X185939824Y-29500000D03*
%TD*%
D12*
%TO.C,MX49*%
X255310000Y-75640000D03*
X241860000Y-78180000D03*
%TD*%
%TO.C,MX23*%
X150899824Y-56615000D03*
X137449824Y-59155000D03*
%TD*%
D15*
%TO.C,C20*%
X234520000Y-20800000D03*
X235480000Y-20800000D03*
%TD*%
D23*
%TO.C,U4*%
X381075000Y-40130000D03*
X381075000Y-41400000D03*
X381075000Y-42670000D03*
X381075000Y-43940000D03*
X376125000Y-43940000D03*
X376125000Y-42670000D03*
X376125000Y-41400000D03*
X376125000Y-40130000D03*
%TD*%
D12*
%TO.C,MX98*%
X252885000Y-132765000D03*
X239435000Y-135305000D03*
%TD*%
D10*
%TO.C,C46*%
X362505000Y-51525000D03*
X361545000Y-51525000D03*
%TD*%
D11*
%TO.C,D52*%
X315975000Y-70950000D03*
X315975000Y-74250000D03*
%TD*%
D10*
%TO.C,C107*%
X59205000Y-127600000D03*
X58245000Y-127600000D03*
%TD*%
D12*
%TO.C,MX84*%
X212785000Y-113715000D03*
X199335000Y-116255000D03*
%TD*%
D18*
%TO.C,C4*%
X312700000Y-99820000D03*
X312700000Y-100780000D03*
%TD*%
D12*
%TO.C,MX76*%
X60660000Y-113740000D03*
X47210000Y-116280000D03*
%TD*%
%TO.C,MX96*%
X157860000Y-132740000D03*
X144410000Y-135280000D03*
%TD*%
D15*
%TO.C,C65*%
X317120000Y-65400000D03*
X318080000Y-65400000D03*
%TD*%
D11*
%TO.C,D68*%
X209425000Y-89925000D03*
X209425000Y-93225000D03*
%TD*%
D12*
%TO.C,MX81*%
X155874824Y-113740000D03*
X142424824Y-116280000D03*
%TD*%
D17*
%TO.C,LED47*%
X150075000Y-67200000D03*
X150075000Y-68700000D03*
X155675000Y-67200000D03*
D16*
X155675000Y-68700000D03*
%TD*%
D11*
%TO.C,D66*%
X171489824Y-89925000D03*
X171489824Y-93225000D03*
%TD*%
%TO.C,D61*%
X76514824Y-89925000D03*
X76514824Y-93225000D03*
%TD*%
D12*
%TO.C,MX48*%
X236335000Y-75665000D03*
X222885000Y-78205000D03*
%TD*%
D14*
%TO.C,LED65*%
X103175000Y-87750000D03*
X103175000Y-86250000D03*
X97575000Y-87750000D03*
D13*
X97575000Y-86250000D03*
%TD*%
D17*
%TO.C,LED80*%
X69625000Y-105175000D03*
X69625000Y-106675000D03*
X75225000Y-105175000D03*
D16*
X75225000Y-106675000D03*
%TD*%
D12*
%TO.C,MX40*%
X84435000Y-75665000D03*
X70985000Y-78205000D03*
%TD*%
%TO.C,MX33*%
X366335000Y-56640000D03*
X352885000Y-59180000D03*
%TD*%
D10*
%TO.C,C37*%
X166055000Y-51525000D03*
X165095000Y-51525000D03*
%TD*%
D11*
%TO.C,D101*%
X316014824Y-127925000D03*
X316014824Y-131225000D03*
%TD*%
D15*
%TO.C,C55*%
X111120000Y-65500000D03*
X112080000Y-65500000D03*
%TD*%
D11*
%TO.C,D33*%
X353975000Y-51850000D03*
X353975000Y-55150000D03*
%TD*%
%TO.C,D49*%
X242950000Y-70950000D03*
X242950000Y-74250000D03*
%TD*%
D12*
%TO.C,MX68*%
X221785000Y-94690000D03*
X208335000Y-97230000D03*
%TD*%
D17*
%TO.C,LED49*%
X188035000Y-67277778D03*
X188035000Y-68777778D03*
X193635000Y-67277778D03*
D16*
X193635000Y-68777778D03*
%TD*%
D24*
%TO.C,C7*%
X309100000Y-94150000D03*
X309100000Y-95700000D03*
%TD*%
D12*
%TO.C,MX42*%
X122399824Y-75665000D03*
X108949824Y-78205000D03*
%TD*%
D11*
%TO.C,D4*%
X100550000Y-26200000D03*
X100550000Y-29500000D03*
%TD*%
D17*
%TO.C,LED11*%
X254566667Y-22650000D03*
X254566667Y-24150000D03*
X260166667Y-22650000D03*
D16*
X260166667Y-24150000D03*
%TD*%
D14*
%TO.C,LED25*%
X127210000Y-49678750D03*
X127210000Y-48178750D03*
X121610000Y-49678750D03*
D13*
X121610000Y-48178750D03*
%TD*%
D15*
%TO.C,C97*%
X201520000Y-103400000D03*
X202480000Y-103400000D03*
%TD*%
D18*
%TO.C,C2*%
X324575000Y-99745000D03*
X324575000Y-100705000D03*
%TD*%
D25*
%TO.C,C30*%
X33225000Y-52405000D03*
X33225000Y-51445000D03*
%TD*%
D11*
%TO.C,D21*%
X100525000Y-51850000D03*
X100525000Y-55150000D03*
%TD*%
%TO.C,D40*%
X72075000Y-70950000D03*
X72075000Y-74250000D03*
%TD*%
D10*
%TO.C,C111*%
X249130000Y-127600000D03*
X248170000Y-127600000D03*
%TD*%
D12*
%TO.C,MX9*%
X217249824Y-31040000D03*
X203799824Y-33580000D03*
%TD*%
%TO.C,MX66*%
X183849824Y-94690000D03*
X170399824Y-97230000D03*
%TD*%
D15*
%TO.C,C54*%
X92120000Y-65400000D03*
X93080000Y-65400000D03*
%TD*%
D11*
%TO.C,D23*%
X138539824Y-51850000D03*
X138539824Y-55150000D03*
%TD*%
D10*
%TO.C,C3*%
X315790000Y-102585000D03*
X314830000Y-102585000D03*
%TD*%
D12*
%TO.C,MX29*%
X264849824Y-56615000D03*
X251399824Y-59155000D03*
%TD*%
D14*
%TO.C,LED106*%
X361685000Y-125797917D03*
X361685000Y-124297917D03*
X356085000Y-125797917D03*
D13*
X356085000Y-124297917D03*
%TD*%
D15*
%TO.C,C53*%
X73120000Y-65500000D03*
X74080000Y-65500000D03*
%TD*%
%TO.C,C92*%
X106620000Y-103500000D03*
X107580000Y-103500000D03*
%TD*%
%TO.C,C67*%
X355020000Y-65400000D03*
X355980000Y-65400000D03*
%TD*%
D12*
%TO.C,MX80*%
X136885000Y-113740000D03*
X123435000Y-116280000D03*
%TD*%
D17*
%TO.C,LED10*%
X235486667Y-22650000D03*
X235486667Y-24150000D03*
X241086667Y-22650000D03*
D16*
X241086667Y-24150000D03*
%TD*%
D11*
%TO.C,D99*%
X264250000Y-127900000D03*
X264250000Y-131200000D03*
%TD*%
D10*
%TO.C,C38*%
X185005000Y-51525000D03*
X184045000Y-51525000D03*
%TD*%
D12*
%TO.C,MX17*%
X36960000Y-56615000D03*
X23510000Y-59155000D03*
%TD*%
%TO.C,MX13*%
X302799824Y-31015000D03*
X289349824Y-33555000D03*
%TD*%
D11*
%TO.C,D86*%
X238510176Y-108950000D03*
X238510176Y-112250000D03*
%TD*%
D12*
%TO.C,MX26*%
X207799824Y-56615000D03*
X194349824Y-59155000D03*
%TD*%
D10*
%TO.C,C82*%
X237055000Y-89625000D03*
X236095000Y-89625000D03*
%TD*%
%TO.C,C35*%
X128130000Y-51500000D03*
X127170000Y-51500000D03*
%TD*%
D24*
%TO.C,C8*%
X339100000Y-98325000D03*
X339100000Y-99875000D03*
%TD*%
D12*
%TO.C,MX75*%
X39210000Y-113740000D03*
X25760000Y-116280000D03*
%TD*%
D11*
%TO.C,D28*%
X233439824Y-51850000D03*
X233439824Y-55150000D03*
%TD*%
D15*
%TO.C,C24*%
X317020000Y-20800000D03*
X317980000Y-20800000D03*
%TD*%
D11*
%TO.C,D44*%
X148014824Y-70950000D03*
X148014824Y-74250000D03*
%TD*%
%TO.C,D39*%
X53100000Y-70950000D03*
X53100000Y-74250000D03*
%TD*%
D12*
%TO.C,MX18*%
X55910000Y-56615000D03*
X42460000Y-59155000D03*
%TD*%
%TO.C,MX46*%
X198335000Y-75665000D03*
X184885000Y-78205000D03*
%TD*%
%TO.C,MX28*%
X245799824Y-56640000D03*
X232349824Y-59180000D03*
%TD*%
D11*
%TO.C,D87*%
X273985176Y-108925000D03*
X273985176Y-112225000D03*
%TD*%
D17*
%TO.C,LED52*%
X245025000Y-67238889D03*
X245025000Y-68738889D03*
X250625000Y-67238889D03*
D16*
X250625000Y-68738889D03*
%TD*%
D14*
%TO.C,LED103*%
X295675000Y-125850000D03*
X295675000Y-124350000D03*
X290075000Y-125850000D03*
D13*
X290075000Y-124350000D03*
%TD*%
D17*
%TO.C,LED83*%
X126650000Y-105375000D03*
X126650000Y-106875000D03*
X132250000Y-105375000D03*
D16*
X132250000Y-106875000D03*
%TD*%
D12*
%TO.C,MX20*%
X93874824Y-56640000D03*
X80424824Y-59180000D03*
%TD*%
D11*
%TO.C,D65*%
X152500000Y-89950000D03*
X152500000Y-93250000D03*
%TD*%
D15*
%TO.C,C94*%
X144670000Y-103500000D03*
X145630000Y-103500000D03*
%TD*%
D12*
%TO.C,MX1*%
X36980878Y-31053430D03*
X23530878Y-33593430D03*
%TD*%
D11*
%TO.C,D25*%
X176414824Y-51850000D03*
X176414824Y-55150000D03*
%TD*%
D10*
%TO.C,C112*%
X272930000Y-127675000D03*
X271970000Y-127675000D03*
%TD*%
D11*
%TO.C,D30*%
X280989824Y-51850000D03*
X280989824Y-55150000D03*
%TD*%
%TO.C,D2*%
X62600000Y-26200000D03*
X62600000Y-29500000D03*
%TD*%
D12*
%TO.C,MX100*%
X300360000Y-132765000D03*
X286910000Y-135305000D03*
%TD*%
D10*
%TO.C,C74*%
X85155000Y-89575000D03*
X84195000Y-89575000D03*
%TD*%
D18*
%TO.C,C88*%
X30500000Y-102520000D03*
X30500000Y-103480000D03*
%TD*%
D11*
%TO.C,D41*%
X91039824Y-70950000D03*
X91039824Y-74250000D03*
%TD*%
D10*
%TO.C,C72*%
X40180000Y-89700000D03*
X39220000Y-89700000D03*
%TD*%
D12*
%TO.C,MX8*%
X198299824Y-31040000D03*
X184849824Y-33580000D03*
%TD*%
D11*
%TO.C,D47*%
X204950000Y-70950000D03*
X204950000Y-74250000D03*
%TD*%
D17*
%TO.C,LED48*%
X169035000Y-67227778D03*
X169035000Y-68727778D03*
X174635000Y-67227778D03*
D16*
X174635000Y-68727778D03*
%TD*%
D10*
%TO.C,C1*%
X311430000Y-96575000D03*
X310470000Y-96575000D03*
%TD*%
D15*
%TO.C,C98*%
X220520000Y-103450000D03*
X221480000Y-103450000D03*
%TD*%
D14*
%TO.C,LED64*%
X84200000Y-87720000D03*
X84200000Y-86220000D03*
X78600000Y-87720000D03*
D13*
X78600000Y-86220000D03*
%TD*%
D12*
%TO.C,MX16*%
X366310000Y-31015000D03*
X352860000Y-33555000D03*
%TD*%
D11*
%TO.C,D16*%
X354050000Y-26200000D03*
X354050000Y-29500000D03*
%TD*%
%TO.C,D64*%
X133525000Y-89950000D03*
X133525000Y-93250000D03*
%TD*%
D14*
%TO.C,LED105*%
X342613750Y-125756250D03*
X342613750Y-124256250D03*
X337013750Y-125756250D03*
D13*
X337013750Y-124256250D03*
%TD*%
D12*
%TO.C,MX95*%
X86585000Y-132765000D03*
X73135000Y-135305000D03*
%TD*%
D17*
%TO.C,LED14*%
X317986667Y-22650000D03*
X317986667Y-24150000D03*
X323586667Y-22650000D03*
D16*
X323586667Y-24150000D03*
%TD*%
D14*
%TO.C,LED63*%
X65235000Y-87850000D03*
X65235000Y-86350000D03*
X59635000Y-87850000D03*
D13*
X59635000Y-86350000D03*
%TD*%
D11*
%TO.C,D59*%
X31600000Y-89950000D03*
X31600000Y-93250000D03*
%TD*%
D12*
%TO.C,MX43*%
X141435000Y-75665000D03*
X127985000Y-78205000D03*
%TD*%
D14*
%TO.C,LED100*%
X224410000Y-125766667D03*
X224410000Y-124266667D03*
X218810000Y-125766667D03*
D13*
X218810000Y-124266667D03*
%TD*%
D12*
%TO.C,MX51*%
X300024824Y-85040000D03*
X286574824Y-87580000D03*
%TD*%
%TO.C,MX30*%
X293349824Y-56640000D03*
X279899824Y-59180000D03*
%TD*%
D17*
%TO.C,LED89*%
X240485000Y-105237500D03*
X240485000Y-106737500D03*
X246085000Y-105237500D03*
D16*
X246085000Y-106737500D03*
%TD*%
D11*
%TO.C,D11*%
X252600000Y-26200000D03*
X252600000Y-29500000D03*
%TD*%
D12*
%TO.C,MX77*%
X79910000Y-113740000D03*
X66460000Y-116280000D03*
%TD*%
%TO.C,MX71*%
X278560000Y-94690000D03*
X265110000Y-97230000D03*
%TD*%
D10*
%TO.C,C40*%
X223055000Y-51525000D03*
X222095000Y-51525000D03*
%TD*%
%TO.C,C79*%
X180080000Y-89625000D03*
X179120000Y-89625000D03*
%TD*%
D15*
%TO.C,C61*%
X225120000Y-65400000D03*
X226080000Y-65400000D03*
%TD*%
D12*
%TO.C,MX24*%
X169824824Y-56615000D03*
X156374824Y-59155000D03*
%TD*%
D17*
%TO.C,LED84*%
X145625000Y-105312500D03*
X145625000Y-106812500D03*
X151225000Y-105312500D03*
D16*
X151225000Y-106812500D03*
%TD*%
D11*
%TO.C,D70*%
X247500000Y-89925000D03*
X247500000Y-93225000D03*
%TD*%
D14*
%TO.C,LED68*%
X160175000Y-87780000D03*
X160175000Y-86280000D03*
X154575000Y-87780000D03*
D13*
X154575000Y-86280000D03*
%TD*%
D11*
%TO.C,D5*%
X119525000Y-26200000D03*
X119525000Y-29500000D03*
%TD*%
%TO.C,D96*%
X145500000Y-127900000D03*
X145500000Y-131200000D03*
%TD*%
D12*
%TO.C,MX10*%
X245810000Y-31040000D03*
X232360000Y-33580000D03*
%TD*%
D17*
%TO.C,LED78*%
X28900000Y-105187500D03*
X28900000Y-106687500D03*
X34500000Y-105187500D03*
D16*
X34500000Y-106687500D03*
%TD*%
D11*
%TO.C,D54*%
X353939824Y-70950000D03*
X353939824Y-74250000D03*
%TD*%
D12*
%TO.C,MX79*%
X117835000Y-113740000D03*
X104385000Y-116280000D03*
%TD*%
D14*
%TO.C,LED98*%
X81900000Y-125808333D03*
X81900000Y-124308333D03*
X76300000Y-125808333D03*
D13*
X76300000Y-124308333D03*
%TD*%
D15*
%TO.C,C58*%
X168020000Y-65400000D03*
X168980000Y-65400000D03*
%TD*%
D17*
%TO.C,LED87*%
X202500000Y-105200000D03*
X202500000Y-106700000D03*
X208100000Y-105200000D03*
D16*
X208100000Y-106700000D03*
%TD*%
D10*
%TO.C,C45*%
X343530000Y-51525000D03*
X342570000Y-51525000D03*
%TD*%
D11*
%TO.C,D22*%
X119539824Y-51850000D03*
X119539824Y-55150000D03*
%TD*%
D14*
%TO.C,LED101*%
X248175000Y-125735417D03*
X248175000Y-124235417D03*
X242575000Y-125735417D03*
D13*
X242575000Y-124235417D03*
%TD*%
D12*
%TO.C,MX53*%
X347260000Y-75640000D03*
X333810000Y-78180000D03*
%TD*%
D10*
%TO.C,C114*%
X324655000Y-127675000D03*
X323695000Y-127675000D03*
%TD*%
D11*
%TO.C,D46*%
X185975000Y-70950000D03*
X185975000Y-74250000D03*
%TD*%
D10*
%TO.C,C44*%
X324505000Y-51525000D03*
X323545000Y-51525000D03*
%TD*%
D14*
%TO.C,LED66*%
X122260000Y-87700000D03*
X122260000Y-86200000D03*
X116660000Y-87700000D03*
D13*
X116660000Y-86200000D03*
%TD*%
D11*
%TO.C,D75*%
X26860176Y-108950000D03*
X26860176Y-112250000D03*
%TD*%
D14*
%TO.C,LED21*%
X51250000Y-49705000D03*
X51250000Y-48205000D03*
X45650000Y-49705000D03*
D13*
X45650000Y-48205000D03*
%TD*%
D12*
%TO.C,MX21*%
X112885000Y-56615000D03*
X99435000Y-59155000D03*
%TD*%
D10*
%TO.C,C116*%
X362630000Y-127600000D03*
X361670000Y-127600000D03*
%TD*%
D17*
%TO.C,LED8*%
X188041667Y-22650000D03*
X188041667Y-24150000D03*
X193641667Y-22650000D03*
D16*
X193641667Y-24150000D03*
%TD*%
D15*
%TO.C,C59*%
X187020000Y-65500000D03*
X187980000Y-65500000D03*
%TD*%
D11*
%TO.C,D3*%
X81650000Y-26200000D03*
X81650000Y-29500000D03*
%TD*%
D15*
%TO.C,C18*%
X187120000Y-20800000D03*
X188080000Y-20800000D03*
%TD*%
%TO.C,C96*%
X182620000Y-103500000D03*
X183580000Y-103500000D03*
%TD*%
D14*
%TO.C,LED30*%
X222125000Y-49738750D03*
X222125000Y-48238750D03*
X216525000Y-49738750D03*
D13*
X216525000Y-48238750D03*
%TD*%
D15*
%TO.C,C11*%
X25720000Y-20800000D03*
X26680000Y-20800000D03*
%TD*%
D10*
%TO.C,C110*%
X225355000Y-127675000D03*
X224395000Y-127675000D03*
%TD*%
D11*
%TO.C,D13*%
X290439824Y-26200000D03*
X290439824Y-29500000D03*
%TD*%
%TO.C,D45*%
X166975000Y-70950000D03*
X166975000Y-74250000D03*
%TD*%
D12*
%TO.C,MX83*%
X193835000Y-113765000D03*
X180385000Y-116305000D03*
%TD*%
%TO.C,MX32*%
X347285000Y-56665000D03*
X333835000Y-59205000D03*
%TD*%
D10*
%TO.C,C31*%
X52180000Y-51500000D03*
X51220000Y-51500000D03*
%TD*%
D12*
%TO.C,MX94*%
X62910000Y-132765000D03*
X49460000Y-135305000D03*
%TD*%
D14*
%TO.C,LED73*%
X255160000Y-87760000D03*
X255160000Y-86260000D03*
X249560000Y-87760000D03*
D13*
X249560000Y-86260000D03*
%TD*%
D11*
%TO.C,D67*%
X190450000Y-89950000D03*
X190450000Y-93250000D03*
%TD*%
D10*
%TO.C,C42*%
X261030000Y-51500000D03*
X260070000Y-51500000D03*
%TD*%
D14*
%TO.C,LED26*%
X146225000Y-49735000D03*
X146225000Y-48235000D03*
X140625000Y-49735000D03*
D13*
X140625000Y-48235000D03*
%TD*%
D14*
%TO.C,LED29*%
X203125000Y-49675000D03*
X203125000Y-48175000D03*
X197525000Y-49675000D03*
D13*
X197525000Y-48175000D03*
%TD*%
D17*
%TO.C,LED85*%
X164575000Y-105337500D03*
X164575000Y-106837500D03*
X170175000Y-105337500D03*
D16*
X170175000Y-106837500D03*
%TD*%
D10*
%TO.C,C113*%
X296630000Y-127675000D03*
X295670000Y-127675000D03*
%TD*%
%TO.C,C106*%
X35480000Y-127600000D03*
X34520000Y-127600000D03*
%TD*%
D17*
%TO.C,LED43*%
X74125000Y-67288889D03*
X74125000Y-68788889D03*
X79725000Y-67288889D03*
D16*
X79725000Y-68788889D03*
%TD*%
D12*
%TO.C,MX47*%
X217310000Y-75665000D03*
X203860000Y-78205000D03*
%TD*%
%TO.C,MX70*%
X259860000Y-94690000D03*
X246410000Y-97230000D03*
%TD*%
D14*
%TO.C,LED102*%
X271950000Y-125777083D03*
X271950000Y-124277083D03*
X266350000Y-125777083D03*
D13*
X266350000Y-124277083D03*
%TD*%
D12*
%TO.C,MX15*%
X347260000Y-31053430D03*
X333810000Y-33593430D03*
%TD*%
D15*
%TO.C,C63*%
X263120000Y-65400000D03*
X264080000Y-65400000D03*
%TD*%
%TO.C,C66*%
X336020000Y-65400000D03*
X336980000Y-65400000D03*
%TD*%
D11*
%TO.C,D98*%
X240525000Y-127925000D03*
X240525000Y-131225000D03*
%TD*%
D10*
%TO.C,C43*%
X289580000Y-51500000D03*
X288620000Y-51500000D03*
%TD*%
D17*
%TO.C,LED81*%
X88625000Y-105250000D03*
X88625000Y-106750000D03*
X94225000Y-105250000D03*
D16*
X94225000Y-106750000D03*
%TD*%
D12*
%TO.C,MX101*%
X328374824Y-132765000D03*
X314924824Y-135305000D03*
%TD*%
D11*
%TO.C,D48*%
X223975000Y-70950000D03*
X223975000Y-74250000D03*
%TD*%
%TO.C,D103*%
X353975000Y-127925000D03*
X353975000Y-131225000D03*
%TD*%
D12*
%TO.C,MX38*%
X41724824Y-75665000D03*
X28274824Y-78205000D03*
%TD*%
D14*
%TO.C,LED96*%
X34475000Y-125787500D03*
X34475000Y-124287500D03*
X28875000Y-125787500D03*
D13*
X28875000Y-124287500D03*
%TD*%
D17*
%TO.C,LED57*%
X355975000Y-67205556D03*
X355975000Y-68705556D03*
X361575000Y-67205556D03*
D16*
X361575000Y-68705556D03*
%TD*%
D14*
%TO.C,LED71*%
X217060000Y-87730000D03*
X217060000Y-86230000D03*
X211460000Y-87730000D03*
D13*
X211460000Y-86230000D03*
%TD*%
D11*
%TO.C,D20*%
X81514824Y-51850000D03*
X81514824Y-55150000D03*
%TD*%
%TO.C,D93*%
X26825000Y-127850000D03*
X26825000Y-131150000D03*
%TD*%
D15*
%TO.C,C15*%
X120620000Y-20800000D03*
X121580000Y-20800000D03*
%TD*%
D11*
%TO.C,D78*%
X86535176Y-108950000D03*
X86535176Y-112250000D03*
%TD*%
D18*
%TO.C,C5*%
X312500000Y-95020000D03*
X312500000Y-95980000D03*
%TD*%
D26*
%TO.C,F1*%
X345065000Y-98552000D03*
X342265000Y-98552000D03*
%TD*%
D14*
%TO.C,LED62*%
X39275000Y-87840000D03*
X39275000Y-86340000D03*
X33675000Y-87840000D03*
D13*
X33675000Y-86340000D03*
%TD*%
D17*
%TO.C,LED46*%
X131110000Y-67250000D03*
X131110000Y-68750000D03*
X136710000Y-67250000D03*
D16*
X136710000Y-68750000D03*
%TD*%
D11*
%TO.C,D82*%
X162500000Y-108950000D03*
X162500000Y-112250000D03*
%TD*%
D17*
%TO.C,LED1*%
X26676667Y-22650000D03*
X26676667Y-24150000D03*
X32276667Y-22650000D03*
D16*
X32276667Y-24150000D03*
%TD*%
D12*
%TO.C,MX25*%
X188774824Y-56665000D03*
X175324824Y-59205000D03*
%TD*%
%TO.C,MX44*%
X160374824Y-75665000D03*
X146924824Y-78205000D03*
%TD*%
D17*
%TO.C,LED91*%
X337035000Y-105262500D03*
X337035000Y-106762500D03*
X342635000Y-105262500D03*
D16*
X342635000Y-106762500D03*
%TD*%
D15*
%TO.C,C19*%
X206020000Y-20800000D03*
X206980000Y-20800000D03*
%TD*%
D12*
%TO.C,MX5*%
X131885000Y-31053430D03*
X118435000Y-33593430D03*
%TD*%
D15*
%TO.C,C93*%
X125670000Y-103600000D03*
X126630000Y-103600000D03*
%TD*%
%TO.C,C22*%
X272520000Y-20800000D03*
X273480000Y-20800000D03*
%TD*%
D14*
%TO.C,LED72*%
X236125000Y-87830000D03*
X236125000Y-86330000D03*
X230525000Y-87830000D03*
D13*
X230525000Y-86330000D03*
%TD*%
D14*
%TO.C,LED97*%
X58260000Y-125818750D03*
X58260000Y-124318750D03*
X52660000Y-125818750D03*
D13*
X52660000Y-124318750D03*
%TD*%
D14*
%TO.C,LED104*%
X323685000Y-125829167D03*
X323685000Y-124329167D03*
X318085000Y-125829167D03*
D13*
X318085000Y-124329167D03*
%TD*%
D15*
%TO.C,C21*%
X253620000Y-20800000D03*
X254580000Y-20800000D03*
%TD*%
D17*
%TO.C,LED41*%
X31385000Y-67266667D03*
X31385000Y-68766667D03*
X36985000Y-67266667D03*
D16*
X36985000Y-68766667D03*
%TD*%
D12*
%TO.C,MX7*%
X179299824Y-31040000D03*
X165849824Y-33580000D03*
%TD*%
D15*
%TO.C,C23*%
X291520000Y-20800000D03*
X292480000Y-20800000D03*
%TD*%
%TO.C,C99*%
X239520000Y-103450000D03*
X240480000Y-103450000D03*
%TD*%
D11*
%TO.C,D17*%
X24600000Y-51850000D03*
X24600000Y-55150000D03*
%TD*%
D12*
%TO.C,MX4*%
X112849824Y-31053430D03*
X99399824Y-33593430D03*
%TD*%
D10*
%TO.C,C75*%
X104130000Y-89575000D03*
X103170000Y-89575000D03*
%TD*%
D12*
%TO.C,MX82*%
X174849824Y-113740000D03*
X161399824Y-116280000D03*
%TD*%
D10*
%TO.C,C115*%
X343555000Y-127575000D03*
X342595000Y-127575000D03*
%TD*%
D12*
%TO.C,MX19*%
X74924824Y-56615000D03*
X61474824Y-59155000D03*
%TD*%
%TO.C,MX22*%
X131899824Y-56615000D03*
X118449824Y-59155000D03*
%TD*%
D14*
%TO.C,LED74*%
X273835000Y-87770000D03*
X273835000Y-86270000D03*
X268235000Y-87770000D03*
D13*
X268235000Y-86270000D03*
%TD*%
D12*
%TO.C,MX3*%
X93910000Y-31053430D03*
X80460000Y-33593430D03*
%TD*%
%TO.C,MX88*%
X347335000Y-113715000D03*
X333885000Y-116255000D03*
%TD*%
D27*
%TO.C,U3*%
X334762500Y-99502000D03*
X334762500Y-97602000D03*
X337037500Y-98552000D03*
%TD*%
D15*
%TO.C,C91*%
X87670000Y-103450000D03*
X88630000Y-103450000D03*
%TD*%
D10*
%TO.C,C32*%
X71130000Y-51525000D03*
X70170000Y-51525000D03*
%TD*%
D14*
%TO.C,LED35*%
X342592500Y-49727500D03*
X342592500Y-48227500D03*
X336992500Y-49727500D03*
D13*
X336992500Y-48227500D03*
%TD*%
D15*
%TO.C,C90*%
X68670000Y-103400000D03*
X69630000Y-103400000D03*
%TD*%
D11*
%TO.C,D51*%
X287664824Y-80350000D03*
X287664824Y-83650000D03*
%TD*%
D12*
%TO.C,MX50*%
X274335000Y-75665000D03*
X260885000Y-78205000D03*
%TD*%
D11*
%TO.C,D63*%
X114550000Y-89925000D03*
X114550000Y-93225000D03*
%TD*%
D17*
%TO.C,LED79*%
X50350000Y-105212500D03*
X50350000Y-106712500D03*
X55950000Y-105212500D03*
D16*
X55950000Y-106712500D03*
%TD*%
D10*
%TO.C,C81*%
X218030000Y-89650000D03*
X217070000Y-89650000D03*
%TD*%
D14*
%TO.C,LED20*%
X32275000Y-49693750D03*
X32275000Y-48193750D03*
X26675000Y-49693750D03*
D13*
X26675000Y-48193750D03*
%TD*%
D11*
%TO.C,D53*%
X334900000Y-70950000D03*
X334900000Y-74250000D03*
%TD*%
D15*
%TO.C,C95*%
X163620000Y-103500000D03*
X164580000Y-103500000D03*
%TD*%
D17*
%TO.C,LED9*%
X207001667Y-22650000D03*
X207001667Y-24150000D03*
X212601667Y-22650000D03*
D16*
X212601667Y-24150000D03*
%TD*%
D15*
%TO.C,C16*%
X149020000Y-20800000D03*
X149980000Y-20800000D03*
%TD*%
%TO.C,C17*%
X168020000Y-20800000D03*
X168980000Y-20800000D03*
%TD*%
D17*
%TO.C,LED53*%
X264050000Y-67222222D03*
X264050000Y-68722222D03*
X269650000Y-67222222D03*
D16*
X269650000Y-68722222D03*
%TD*%
D11*
%TO.C,D84*%
X200435176Y-108925000D03*
X200435176Y-112225000D03*
%TD*%
D12*
%TO.C,MX6*%
X160310000Y-31053430D03*
X146860000Y-33593430D03*
%TD*%
D11*
%TO.C,D19*%
X62564824Y-51850000D03*
X62564824Y-55150000D03*
%TD*%
D17*
%TO.C,LED12*%
X273536667Y-22650000D03*
X273536667Y-24150000D03*
X279136667Y-22650000D03*
D16*
X279136667Y-24150000D03*
%TD*%
D12*
%TO.C,MX54*%
X366299824Y-75665000D03*
X352849824Y-78205000D03*
%TD*%
D10*
%TO.C,C73*%
X66155000Y-89700000D03*
X65195000Y-89700000D03*
%TD*%
D17*
%TO.C,LED45*%
X112100000Y-67272222D03*
X112100000Y-68772222D03*
X117700000Y-67272222D03*
D16*
X117700000Y-68772222D03*
%TD*%
D28*
%TO.C,U1*%
X314475000Y-99600000D03*
X314475000Y-99100000D03*
X314475000Y-98600000D03*
X314475000Y-98100000D03*
X314475000Y-97600000D03*
X314475000Y-97100000D03*
X314475000Y-96600000D03*
X314475000Y-96100000D03*
X314475000Y-95600000D03*
X314475000Y-95100000D03*
X314475000Y-94600000D03*
X314475000Y-94100000D03*
D29*
X315887500Y-92687500D03*
X316387500Y-92687500D03*
X316887500Y-92687500D03*
X317387500Y-92687500D03*
X317887500Y-92687500D03*
X318387500Y-92687500D03*
X318887500Y-92687500D03*
X319387500Y-92687500D03*
X319887500Y-92687500D03*
X320387500Y-92687500D03*
X320887500Y-92687500D03*
X321387500Y-92687500D03*
D28*
X322800000Y-94100000D03*
X322800000Y-94600000D03*
X322800000Y-95100000D03*
X322800000Y-95600000D03*
X322800000Y-96100000D03*
X322800000Y-96600000D03*
X322800000Y-97100000D03*
X322800000Y-97600000D03*
X322800000Y-98100000D03*
X322800000Y-98600000D03*
X322800000Y-99100000D03*
X322800000Y-99600000D03*
D29*
X321387500Y-101012500D03*
X320887500Y-101012500D03*
X320387500Y-101012500D03*
X319887500Y-101012500D03*
X319387500Y-101012500D03*
X318887500Y-101012500D03*
X318387500Y-101012500D03*
X317887500Y-101012500D03*
X317387500Y-101012500D03*
X316887500Y-101012500D03*
X316387500Y-101012500D03*
X315887500Y-101012500D03*
%TD*%
D15*
%TO.C,C13*%
X82620000Y-20800000D03*
X83580000Y-20800000D03*
%TD*%
%TO.C,C25*%
X336020000Y-20800000D03*
X336980000Y-20800000D03*
%TD*%
D10*
%TO.C,C78*%
X161080000Y-89600000D03*
X160120000Y-89600000D03*
%TD*%
D15*
%TO.C,C14*%
X101620000Y-20800000D03*
X102580000Y-20800000D03*
%TD*%
D12*
%TO.C,MX102*%
X347299824Y-132740000D03*
X333849824Y-135280000D03*
%TD*%
D17*
%TO.C,LED3*%
X83576667Y-22650000D03*
X83576667Y-24150000D03*
X89176667Y-22650000D03*
D16*
X89176667Y-24150000D03*
%TD*%
D15*
%TO.C,C26*%
X355120000Y-20800000D03*
X356080000Y-20800000D03*
%TD*%
D12*
%TO.C,MX97*%
X229110000Y-132740000D03*
X215660000Y-135280000D03*
%TD*%
D10*
%TO.C,C77*%
X142080000Y-89650000D03*
X141120000Y-89650000D03*
%TD*%
D11*
%TO.C,D24*%
X157464824Y-51850000D03*
X157464824Y-55150000D03*
%TD*%
D12*
%TO.C,MX14*%
X328310000Y-31015000D03*
X314860000Y-33555000D03*
%TD*%
%TO.C,MX99*%
X276610000Y-132740000D03*
X263160000Y-135280000D03*
%TD*%
D11*
%TO.C,D80*%
X124535176Y-108950000D03*
X124535176Y-112250000D03*
%TD*%
D12*
%TO.C,MX60*%
X69885000Y-94690000D03*
X56435000Y-97230000D03*
%TD*%
D11*
%TO.C,D6*%
X147950000Y-26200000D03*
X147950000Y-29500000D03*
%TD*%
%TO.C,D32*%
X334925000Y-51850000D03*
X334925000Y-55150000D03*
%TD*%
D14*
%TO.C,LED70*%
X198135000Y-87740000D03*
X198135000Y-86240000D03*
X192535000Y-87740000D03*
D13*
X192535000Y-86240000D03*
%TD*%
D24*
%TO.C,C119*%
X330275000Y-99800000D03*
X330275000Y-101350000D03*
%TD*%
D11*
%TO.C,D26*%
X195439824Y-51850000D03*
X195439824Y-55150000D03*
%TD*%
D12*
%TO.C,MX12*%
X283799824Y-31040000D03*
X270349824Y-33580000D03*
%TD*%
D10*
%TO.C,C39*%
X204080000Y-51475000D03*
X203120000Y-51475000D03*
%TD*%
D12*
%TO.C,MX87*%
X286335000Y-113715000D03*
X272885000Y-116255000D03*
%TD*%
D17*
%TO.C,LED86*%
X183560000Y-105300000D03*
X183560000Y-106800000D03*
X189160000Y-105300000D03*
D16*
X189160000Y-106800000D03*
%TD*%
D15*
%TO.C,C56*%
X130120000Y-65400000D03*
X131080000Y-65400000D03*
%TD*%
D11*
%TO.C,D42*%
X110039824Y-70950000D03*
X110039824Y-74250000D03*
%TD*%
D12*
%TO.C,MX69*%
X240835000Y-94690000D03*
X227385000Y-97230000D03*
%TD*%
D11*
%TO.C,D79*%
X105485176Y-108950000D03*
X105485176Y-112250000D03*
%TD*%
D14*
%TO.C,LED69*%
X179150000Y-87790000D03*
X179150000Y-86290000D03*
X173550000Y-87790000D03*
D13*
X173550000Y-86290000D03*
%TD*%
D12*
%TO.C,MX86*%
X250860000Y-113740000D03*
X237410000Y-116280000D03*
%TD*%
D17*
%TO.C,LED51*%
X226060000Y-67216667D03*
X226060000Y-68716667D03*
X231660000Y-67216667D03*
D16*
X231660000Y-68716667D03*
%TD*%
D11*
%TO.C,D94*%
X50550000Y-127950000D03*
X50550000Y-131250000D03*
%TD*%
D14*
%TO.C,LED67*%
X141200000Y-87800000D03*
X141200000Y-86300000D03*
X135600000Y-87800000D03*
D13*
X135600000Y-86300000D03*
%TD*%
D11*
%TO.C,D43*%
X129075000Y-70950000D03*
X129075000Y-74250000D03*
%TD*%
D15*
%TO.C,C12*%
X63720000Y-20800000D03*
X64680000Y-20800000D03*
%TD*%
D10*
%TO.C,C80*%
X199055000Y-89600000D03*
X198095000Y-89600000D03*
%TD*%
D11*
%TO.C,D50*%
X261975000Y-70950000D03*
X261975000Y-74250000D03*
%TD*%
D12*
%TO.C,MX64*%
X145885000Y-94715000D03*
X132435000Y-97255000D03*
%TD*%
D11*
%TO.C,D1*%
X24600000Y-26200000D03*
X24600000Y-29500000D03*
%TD*%
%TO.C,D27*%
X214439824Y-51850000D03*
X214439824Y-55150000D03*
%TD*%
D17*
%TO.C,LED7*%
X169036667Y-22650000D03*
X169036667Y-24150000D03*
X174636667Y-22650000D03*
D16*
X174636667Y-24150000D03*
%TD*%
D11*
%TO.C,D88*%
X334985176Y-108925000D03*
X334985176Y-112225000D03*
%TD*%
D15*
%TO.C,C52*%
X54220000Y-65400000D03*
X55180000Y-65400000D03*
%TD*%
D12*
%TO.C,MX62*%
X107849824Y-94715000D03*
X94399824Y-97255000D03*
%TD*%
D11*
%TO.C,D10*%
X233450000Y-26200000D03*
X233450000Y-29500000D03*
%TD*%
D12*
%TO.C,MX59*%
X43960000Y-94715000D03*
X30510000Y-97255000D03*
%TD*%
D14*
%TO.C,LED28*%
X184085000Y-49742500D03*
X184085000Y-48242500D03*
X178485000Y-49742500D03*
D13*
X178485000Y-48242500D03*
%TD*%
D10*
%TO.C,C36*%
X147155000Y-51525000D03*
X146195000Y-51525000D03*
%TD*%
D17*
%TO.C,LED15*%
X336972917Y-22650000D03*
X336972917Y-24150000D03*
X342572917Y-22650000D03*
D16*
X342572917Y-24150000D03*
%TD*%
D14*
%TO.C,LED32*%
X260150000Y-49701250D03*
X260150000Y-48201250D03*
X254550000Y-49701250D03*
D13*
X254550000Y-48201250D03*
%TD*%
D17*
%TO.C,LED90*%
X276025000Y-105287500D03*
X276025000Y-106787500D03*
X281625000Y-105287500D03*
D16*
X281625000Y-106787500D03*
%TD*%
D12*
%TO.C,MX2*%
X74960000Y-31053430D03*
X61510000Y-33593430D03*
%TD*%
%TO.C,MX41*%
X103399824Y-75690000D03*
X89949824Y-78230000D03*
%TD*%
D11*
%TO.C,D69*%
X228475000Y-89925000D03*
X228475000Y-93225000D03*
%TD*%
D24*
%TO.C,C9*%
X332359000Y-98313000D03*
X332359000Y-99863000D03*
%TD*%
D15*
%TO.C,C101*%
X336070000Y-103450000D03*
X337030000Y-103450000D03*
%TD*%
D10*
%TO.C,C108*%
X82805000Y-127600000D03*
X81845000Y-127600000D03*
%TD*%
%TO.C,C41*%
X242005000Y-51525000D03*
X241045000Y-51525000D03*
%TD*%
D15*
%TO.C,C57*%
X149120000Y-65400000D03*
X150080000Y-65400000D03*
%TD*%
D12*
%TO.C,MX45*%
X179335000Y-75665000D03*
X165885000Y-78205000D03*
%TD*%
D17*
%TO.C,LED82*%
X107575000Y-105275000D03*
X107575000Y-106775000D03*
X113175000Y-105275000D03*
D16*
X113175000Y-106775000D03*
%TD*%
D17*
%TO.C,LED4*%
X102561667Y-22650000D03*
X102561667Y-24150000D03*
X108161667Y-22650000D03*
D16*
X108161667Y-24150000D03*
%TD*%
D12*
%TO.C,MX61*%
X88874824Y-94690000D03*
X75424824Y-97230000D03*
%TD*%
%TO.C,MX63*%
X126910000Y-94690000D03*
X113460000Y-97230000D03*
%TD*%
D17*
%TO.C,LED13*%
X292511667Y-22650000D03*
X292511667Y-24150000D03*
X298111667Y-22650000D03*
D16*
X298111667Y-24150000D03*
%TD*%
D11*
%TO.C,D31*%
X315950000Y-51850000D03*
X315950000Y-55150000D03*
%TD*%
%TO.C,D85*%
X219435176Y-108950000D03*
X219435176Y-112250000D03*
%TD*%
D10*
%TO.C,C83*%
X256130000Y-89550000D03*
X255170000Y-89550000D03*
%TD*%
D12*
%TO.C,MX31*%
X328310000Y-56640000D03*
X314860000Y-59180000D03*
%TD*%
D11*
%TO.C,D77*%
X67560176Y-108950000D03*
X67560176Y-112250000D03*
%TD*%
%TO.C,D7*%
X167100000Y-26250000D03*
X167100000Y-29550000D03*
%TD*%
D17*
%TO.C,LED54*%
X289735000Y-76675000D03*
X289735000Y-78175000D03*
X295335000Y-76675000D03*
D16*
X295335000Y-78175000D03*
%TD*%
D14*
%TO.C,LED36*%
X361611667Y-49708750D03*
X361611667Y-48208750D03*
X356011667Y-49708750D03*
D13*
X356011667Y-48208750D03*
%TD*%
D14*
%TO.C,LED33*%
X288635000Y-49682500D03*
X288635000Y-48182500D03*
X283035000Y-49682500D03*
D13*
X283035000Y-48182500D03*
%TD*%
D12*
%TO.C,MX11*%
X264810000Y-31015000D03*
X251360000Y-33555000D03*
%TD*%
%TO.C,MX65*%
X164860000Y-94715000D03*
X151410000Y-97255000D03*
%TD*%
D11*
%TO.C,D14*%
X315950000Y-26200000D03*
X315950000Y-29500000D03*
%TD*%
D17*
%TO.C,LED6*%
X149976667Y-22650000D03*
X149976667Y-24150000D03*
X155576667Y-22650000D03*
D16*
X155576667Y-24150000D03*
%TD*%
D11*
%TO.C,D62*%
X95489824Y-89950000D03*
X95489824Y-93250000D03*
%TD*%
D17*
%TO.C,LED16*%
X356050000Y-22650000D03*
X356050000Y-24150000D03*
X361650000Y-22650000D03*
D16*
X361650000Y-24150000D03*
%TD*%
D11*
%TO.C,D71*%
X266200000Y-89925000D03*
X266200000Y-93225000D03*
%TD*%
D14*
%TO.C,LED24*%
X108160000Y-49750000D03*
X108160000Y-48250000D03*
X102560000Y-49750000D03*
D13*
X102560000Y-48250000D03*
%TD*%
D15*
%TO.C,C60*%
X206020000Y-65500000D03*
X206980000Y-65500000D03*
%TD*%
D14*
%TO.C,LED27*%
X165160000Y-49712500D03*
X165160000Y-48212500D03*
X159560000Y-49712500D03*
D13*
X159560000Y-48212500D03*
%TD*%
D14*
%TO.C,LED34*%
X323618333Y-49716250D03*
X323618333Y-48216250D03*
X318018333Y-49716250D03*
D13*
X318018333Y-48216250D03*
%TD*%
D11*
%TO.C,D81*%
X143525000Y-108950000D03*
X143525000Y-112250000D03*
%TD*%
%TO.C,D9*%
X204889824Y-26250000D03*
X204889824Y-29550000D03*
%TD*%
D17*
%TO.C,LED55*%
X318051667Y-67283333D03*
X318051667Y-68783333D03*
X323651667Y-67283333D03*
D16*
X323651667Y-68783333D03*
%TD*%
D10*
%TO.C,C33*%
X90105000Y-51525000D03*
X89145000Y-51525000D03*
%TD*%
D17*
%TO.C,LED88*%
X221475000Y-105225000D03*
X221475000Y-106725000D03*
X227075000Y-105225000D03*
D16*
X227075000Y-106725000D03*
%TD*%
D12*
%TO.C,MX39*%
X65460000Y-75665000D03*
X52010000Y-78205000D03*
%TD*%
D11*
%TO.C,D76*%
X48310176Y-108950000D03*
X48310176Y-112250000D03*
%TD*%
D12*
%TO.C,MX103*%
X366335000Y-132765000D03*
X352885000Y-135305000D03*
%TD*%
%TO.C,MX52*%
X328335000Y-75715000D03*
X314885000Y-78255000D03*
%TD*%
D15*
%TO.C,C100*%
X275070000Y-103500000D03*
X276030000Y-103500000D03*
%TD*%
D11*
%TO.C,D15*%
X334900000Y-26200000D03*
X334900000Y-29500000D03*
%TD*%
%TO.C,D83*%
X181485176Y-108975000D03*
X181485176Y-112275000D03*
%TD*%
%TO.C,D97*%
X216750000Y-127900000D03*
X216750000Y-131200000D03*
%TD*%
D17*
%TO.C,LED5*%
X121636667Y-22650000D03*
X121636667Y-24150000D03*
X127236667Y-22650000D03*
D16*
X127236667Y-24150000D03*
%TD*%
D11*
%TO.C,D18*%
X43550000Y-51850000D03*
X43550000Y-55150000D03*
%TD*%
D12*
%TO.C,MX78*%
X98885000Y-113740000D03*
X85435000Y-116280000D03*
%TD*%
%TO.C,MX27*%
X226799824Y-56615000D03*
X213349824Y-59155000D03*
%TD*%
D14*
%TO.C,LED99*%
X153150000Y-125839583D03*
X153150000Y-124339583D03*
X147550000Y-125839583D03*
D13*
X147550000Y-124339583D03*
%TD*%
D17*
%TO.C,LED56*%
X336950000Y-67255556D03*
X336950000Y-68755556D03*
X342550000Y-67255556D03*
D16*
X342550000Y-68755556D03*
%TD*%
D10*
%TO.C,C34*%
X109080000Y-51575000D03*
X108120000Y-51575000D03*
%TD*%
D12*
%TO.C,MX85*%
X231785000Y-113740000D03*
X218335000Y-116280000D03*
%TD*%
D14*
%TO.C,LED23*%
X89175000Y-49720000D03*
X89175000Y-48220000D03*
X83575000Y-49720000D03*
D13*
X83575000Y-48220000D03*
%TD*%
D17*
%TO.C,LED44*%
X93100000Y-67211111D03*
X93100000Y-68711111D03*
X98700000Y-67211111D03*
D16*
X98700000Y-68711111D03*
%TD*%
D12*
%TO.C,MX67*%
X202810000Y-94715000D03*
X189360000Y-97255000D03*
%TD*%
D15*
%TO.C,C51*%
X30420000Y-65400000D03*
X31380000Y-65400000D03*
%TD*%
D14*
%TO.C,LED22*%
X70250000Y-49723750D03*
X70250000Y-48223750D03*
X64650000Y-49723750D03*
D13*
X64650000Y-48223750D03*
%TD*%
D15*
%TO.C,C89*%
X49370000Y-103400000D03*
X50330000Y-103400000D03*
%TD*%
D11*
%TO.C,D29*%
X252489824Y-51850000D03*
X252489824Y-55150000D03*
%TD*%
%TO.C,D38*%
X29400000Y-70950000D03*
X29400000Y-74250000D03*
%TD*%
D10*
%TO.C,C109*%
X154105000Y-127650000D03*
X153145000Y-127650000D03*
%TD*%
D11*
%TO.C,D60*%
X57525000Y-89925000D03*
X57525000Y-93225000D03*
%TD*%
M02*
