M48
; DRILL file KiCad 10.0.5-10.0.5~ubuntu26.04.1 date 2026-08-15T22:40:00
; FORMAT={-:-/ absolute / metric / decimal}
; #@! TF.CreationDate,2026-08-15T22:40:00+01:00
; #@! TF.GenerationSoftware,Kicad,Pcbnew,10.0.5-10.0.5~ubuntu26.04.1
; #@! TF.FileFunction,NonPlated,1,2,NPTH
FMAT,2
METRIC
; #@! TA.AperFunction,NonPlated,NPTH,ComponentDrill
T1C3.988
%
G90
G05
T1
X29.6Y-54.075
X29.621Y-28.513
X31.825Y-130.2
X31.85Y-111.2
X34.365Y-73.125
X36.6Y-92.175
X48.55Y-54.075
X53.3Y-111.2
X55.55Y-130.225
X58.1Y-73.125
X62.525Y-92.15
X67.565Y-54.075
X67.6Y-28.513
X72.55Y-111.2
X77.075Y-73.125
X79.225Y-130.225
X81.515Y-92.15
X86.515Y-54.1
X86.55Y-28.513
X91.525Y-111.2
X96.04Y-73.15
X100.49Y-92.175
X105.49Y-28.513
X105.525Y-54.075
X110.475Y-111.2
X115.04Y-73.125
X119.55Y-92.15
X124.525Y-28.513
X124.54Y-54.075
X129.525Y-111.2
X134.075Y-73.125
X138.525Y-92.175
X143.54Y-54.075
X148.515Y-111.2
X150.5Y-130.2
X152.95Y-28.513
X153.015Y-73.125
X157.5Y-92.175
X162.465Y-54.075
X167.49Y-111.2
X171.94Y-28.5
X171.975Y-73.125
X176.49Y-92.15
X181.415Y-54.125
X186.475Y-111.225
X190.94Y-28.5
X190.975Y-73.125
X195.45Y-92.175
X200.44Y-54.075
X205.425Y-111.175
X209.89Y-28.5
X209.95Y-73.125
X214.425Y-92.15
X219.44Y-54.075
X221.75Y-130.2
X224.425Y-111.2
X228.975Y-73.125
X233.475Y-92.15
X238.44Y-54.1
X238.45Y-28.5
X243.5Y-111.2
X245.525Y-130.225
X247.95Y-73.1
X252.5Y-92.15
X257.45Y-28.475
X257.49Y-54.075
X266.975Y-73.125
X269.25Y-130.2
X271.2Y-92.15
X276.44Y-28.5
X278.975Y-111.175
X285.99Y-54.1
X292.665Y-82.5
X293.0Y-130.225
X295.44Y-28.475
X320.95Y-28.475
X320.95Y-54.1
X320.975Y-73.175
X321.015Y-130.225
X339.9Y-28.513
X339.9Y-73.1
X339.925Y-54.125
X339.94Y-130.2
X339.975Y-111.175
X358.94Y-73.125
X358.95Y-28.475
X358.975Y-54.1
X358.975Y-130.225
X384.315Y-54.1
X384.315Y-92.175
X384.325Y-73.125
X384.325Y-111.2
X393.775Y-130.15
X403.275Y-54.1
X403.275Y-73.125
X403.275Y-92.15
X403.275Y-111.225
X422.225Y-54.1
X422.225Y-111.2
X422.24Y-92.125
X422.25Y-73.125
X422.25Y-130.15
X441.19Y-120.5
X441.2Y-54.1
X441.225Y-82.425
M30
