<?xml version="1.0" encoding="UTF-8" standalone="no"?>
<!-- Created with Inkscape (http://www.inkscape.org/) -->

<svg
   width="13.272236mm"
   height="14.777974mm"
   viewBox="0 0 13.272236 14.777973"
   version="1.1"
   id="svg1"
   xml:space="preserve"
   inkscape:version="1.4.3 (0d15f75042, 2025-12-25)"
   sodipodi:docname="Keycaps_PreText.svg"
   xmlns:inkscape="http://www.inkscape.org/namespaces/inkscape"
   xmlns:sodipodi="http://sodipodi.sourceforge.net/DTD/sodipodi-0.dtd"
   xmlns="http://www.w3.org/2000/svg"
   xmlns:svg="http://www.w3.org/2000/svg"><sodipodi:namedview
     id="namedview1"
     pagecolor="#ffffff"
     bordercolor="#666666"
     borderopacity="1.0"
     inkscape:showpageshadow="2"
     inkscape:pageopacity="0.0"
     inkscape:pagecheckerboard="0"
     inkscape:deskcolor="#d1d1d1"
     inkscape:document-units="mm"
     inkscape:zoom="2"
     inkscape:cx="290.5"
     inkscape:cy="418.25"
     inkscape:window-width="1920"
     inkscape:window-height="1016"
     inkscape:window-x="0"
     inkscape:window-y="0"
     inkscape:window-maximized="1"
     inkscape:current-layer="layer1"
     showguides="true"
     showgrid="false"><inkscape:page
       x="0"
       y="0"
       width="13.272236"
       height="14.777973"
       id="page2"
       margin="0"
       bleed="0" /></sodipodi:namedview><defs
     id="defs1"><style
       id="style1">.cls-1{fill-rule:evenodd;}</style></defs><g
     inkscape:label="Layer 1"
     inkscape:groupmode="layer"
     id="layer1"
     transform="translate(-28.143722,-158.46388)"><path
       id="rect1-21-1-0-0-9-8"
       style="fill:#ffffff;fill-opacity:1;stroke:none;stroke-width:0.799999;stroke-linecap:round;paint-order:markers fill stroke"
       d="m 28.696747,158.46388 c -0.30643,0 -0.558551,0.24657 -0.55294,0.55294 l 0.24756,13.51641 c 0.0056,0.30638 0.24651,0.55294 0.55294,0.55294 3.702616,0.20758 7.96844,0.20758 11.67105,0 0.30643,0 0.547329,-0.24657 0.55294,-0.55294 l 0.24756,-13.51641 c 0.0056,-0.30638 -0.24651,-0.55294 -0.55294,-0.55294 z m 0.0517,0.27699 h 12.06283 c 0.1641,0 0.299114,0.13203 0.2961,0.2961 l -0.24756,13.47611 c -0.003,0.16407 -0.132,0.2961 -0.2961,0.2961 -3.66911,0.20921 -7.900504,0.20938 -11.56771,0 -0.1641,0 -0.293086,-0.13203 -0.2961,-0.2961 l -0.24756,-13.47611 c -0.003,-0.16407 0.132,-0.2961 0.2961,-0.2961 z"
       inkscape:label="Outline"
       inkscape:export-filename="Caps/B.svg"
       inkscape:export-xdpi="96"
       inkscape:export-ydpi="96"
       sodipodi:nodetypes="sssccssssssssccsss" /><path
       style="font-weight:bold;font-size:4.23333px;line-height:1.25;font-family:SGI;-inkscape-font-specification:'SGI Bold';text-align:center;text-anchor:middle;fill:#ffffff;fill-opacity:1;stroke:none;stroke-width:0.264583"
       d="m 35.663893,162.31707 q 0,0.33444 -0.237066,0.56727 -0.232833,0.23283 -0.605366,0.23283 h -1.007533 v -2.88713 l 0.918633,-0.004 q 0.325966,0 0.554566,0.22436 0.2286,0.22014 0.2286,0.55034 0,0.35983 -0.313266,0.61383 0.211666,0.1016 0.334433,0.28363 0.126999,0.18204 0.126999,0.4191 z m -0.507999,-1.30386 q 0,-0.18627 -0.1397,-0.31327 -0.1397,-0.13123 -0.334433,-0.13123 h -0.461433 v 0.89323 h 0.452966 q 0.2032,0 0.3429,-0.12277 0.1397,-0.12276 0.1397,-0.32596 z m -0.01693,1.62983 q 0.152399,-0.1397 0.152399,-0.3556 0,-0.2159 -0.156633,-0.35137 -0.156633,-0.1397 -0.376766,-0.1397 h -0.537633 v 0.98214 h 0.5461 q 0.224366,0 0.372533,-0.13547 z"
       id="text1-7-8-9-2-8-3"
       inkscape:label="Text"
       aria-label="B" /></g></svg>
