<?xml version="1.0" encoding="UTF-8" standalone="no"?>
<!-- Created with Inkscape (http://www.inkscape.org/) -->

<svg
   width="12.213717mm"
   height="14.777982mm"
   viewBox="0 0 12.213717 14.777981"
   version="1.1"
   id="svg1"
   xml:space="preserve"
   inkscape:version="1.4.3 (0d15f75042, 2025-12-25)"
   sodipodi:docname="Keycaps_PreText.svg"
   xmlns:inkscape="http://www.inkscape.org/namespaces/inkscape"
   xmlns:sodipodi="http://sodipodi.sourceforge.net/DTD/sodipodi-0.dtd"
   xmlns="http://www.w3.org/2000/svg"
   xmlns:svg="http://www.w3.org/2000/svg"><sodipodi:namedview
     id="namedview1"
     pagecolor="#ffffff"
     bordercolor="#666666"
     borderopacity="1.0"
     inkscape:showpageshadow="2"
     inkscape:pageopacity="0.0"
     inkscape:pagecheckerboard="0"
     inkscape:deskcolor="#d1d1d1"
     inkscape:document-units="mm"
     inkscape:zoom="4"
     inkscape:cx="912.75"
     inkscape:cy="389.875"
     inkscape:window-width="1920"
     inkscape:window-height="1016"
     inkscape:window-x="0"
     inkscape:window-y="0"
     inkscape:window-maximized="1"
     inkscape:current-layer="layer1"
     showguides="true"
     showgrid="false"><inkscape:page
       x="-2.5354992e-22"
       y="0"
       width="12.213717"
       height="14.777981"
       id="page2"
       margin="0"
       bleed="0" /></sodipodi:namedview><defs
     id="defs1"><style
       id="style1">.cls-1{fill-rule:evenodd;}</style></defs><g
     inkscape:label="Layer 1"
     inkscape:groupmode="layer"
     id="layer1"
     transform="translate(-17.815459,-136.93852)"><path
       id="rect1-21-5-6-5-1"
       style="fill:#ffffff;fill-opacity:1;stroke:none;stroke-width:0.799999;stroke-linecap:round;paint-order:markers fill stroke"
       d="m 18.368404,136.93852 c -0.30643,0 -0.55294,0.24651 -0.55294,0.55294 v 13.51642 c 0,0.30643 0.24651,0.55294 0.55294,0.55294 3.70262,0.20758 7.40523,0.20758 11.10785,0 0.30643,0 0.55293,-0.24651 0.55293,-0.55294 v -13.51642 c 0,-0.30643 -0.2465,-0.55294 -0.55293,-0.55294 z m 0.0517,0.27699 h 11.0045 c 0.1641,0 0.29611,0.132 0.29611,0.2961 v 13.47612 c 0,0.1641 -0.13201,0.2961 -0.29611,0.2961 -3.6691,0.20921 -7.33729,0.20938 -11.0045,0 -0.1641,0 -0.2961,-0.132 -0.2961,-0.2961 v -13.47612 c 0,-0.1641 0.132,-0.2961 0.2961,-0.2961 z"
       inkscape:label="Outline"
       inkscape:export-filename="rect1.svg"
       inkscape:export-xdpi="96"
       inkscape:export-ydpi="96"
       sodipodi:nodetypes="sssccssssssssccsss" /><path
       style="font-weight:bold;font-size:4.23333px;line-height:1.25;font-family:SGI;-inkscape-font-specification:'SGI Bold';text-align:center;text-anchor:middle;fill:#ffffff;fill-opacity:1;stroke:none;stroke-width:0.264583"
       d="m 24.836734,141.29205 q -0.3175,0.3302 -0.766233,0.3302 -0.444499,0 -0.753532,-0.30057 -0.309034,-0.3048 -0.309034,-0.762 v -0.97367 q 0,-0.41486 0.245534,-0.69426 0.249766,-0.28363 0.647699,-0.28363 0.550333,0 0.778933,0.45296 0.0635,0.13547 0.0635,0.20743 0,0.072 -0.0508,0.11854 -0.04657,0.0466 -0.1143,0.0466 -0.08467,0 -0.148167,-0.10583 -0.105833,-0.18203 -0.169333,-0.2413 -0.1397,-0.1397 -0.364066,-0.1397 -0.2286,0 -0.3556,0.16087 -0.127,0.16086 -0.127,0.41063 v 1.1049 q 0,0.2794 0.1905,0.4699 0.1905,0.18627 0.465666,0.18627 0.220133,0 0.397933,-0.13547 v -0.61807 h -0.389466 v -0.33866 h 0.757766 z"
       id="text1-7-9-4-5-5"
       inkscape:label="Text"
       aria-label="G" /></g></svg>
