<?xml version="1.0" encoding="UTF-8" standalone="no"?>
<!-- Created with Inkscape (http://www.inkscape.org/) -->

<svg
   width="12.213725mm"
   height="14.777974mm"
   viewBox="0 0 12.213725 14.777973"
   version="1.1"
   id="svg1"
   xml:space="preserve"
   inkscape:version="1.4.3 (0d15f75042, 2025-12-25)"
   sodipodi:docname="Keycaps_PreText.svg"
   xmlns:inkscape="http://www.inkscape.org/namespaces/inkscape"
   xmlns:sodipodi="http://sodipodi.sourceforge.net/DTD/sodipodi-0.dtd"
   xmlns="http://www.w3.org/2000/svg"
   xmlns:svg="http://www.w3.org/2000/svg"><sodipodi:namedview
     id="namedview1"
     pagecolor="#ffffff"
     bordercolor="#666666"
     borderopacity="1.0"
     inkscape:showpageshadow="2"
     inkscape:pageopacity="0.0"
     inkscape:pagecheckerboard="0"
     inkscape:deskcolor="#d1d1d1"
     inkscape:document-units="mm"
     inkscape:zoom="2"
     inkscape:cx="1382"
     inkscape:cy="388.75"
     inkscape:window-width="1920"
     inkscape:window-height="1016"
     inkscape:window-x="0"
     inkscape:window-y="0"
     inkscape:window-maximized="1"
     inkscape:current-layer="layer1"
     showguides="true"
     showgrid="false"><inkscape:page
       x="0"
       y="0"
       width="12.213725"
       height="14.777973"
       id="page2"
       margin="0"
       bleed="0" /></sodipodi:namedview><defs
     id="defs1"><style
       id="style1">.cls-1{fill-rule:evenodd;}</style></defs><g
     inkscape:label="Layer 1"
     inkscape:groupmode="layer"
     id="layer1"
     transform="translate(-317.86634,-136.83585)"><path
       id="rect1-04-6-7-9"
       style="fill:#ffffff;fill-opacity:1;stroke:none;stroke-width:0.799999;stroke-linecap:round;paint-order:markers fill stroke"
       d="m 318.4193,136.83585 c -0.30643,0 -0.55294,0.24651 -0.55294,0.55294 v 13.51642 c 0,0.30643 0.24651,0.55293 0.55294,0.55293 3.70262,0.20758 7.40523,0.20758 11.10785,0 0.30643,0 0.55293,-0.2465 0.55293,-0.55293 v -13.51642 c 0,-0.30643 -0.2465,-0.55294 -0.55293,-0.55294 z m 0.0517,0.27698 h 11.0045 c 0.1641,0 0.29611,0.132 0.29611,0.29611 v 13.47611 c 0,0.16411 -0.13201,0.29611 -0.29611,0.29611 -3.6691,0.20921 -7.33729,0.20938 -11.0045,0 -0.1641,0 -0.2961,-0.132 -0.2961,-0.29611 v -13.47611 c 0,-0.16411 0.132,-0.29611 0.2961,-0.29611 z"
       inkscape:label="Outline"
       inkscape:export-filename="rect1.svg"
       inkscape:export-xdpi="96"
       inkscape:export-ydpi="96"
       sodipodi:nodetypes="sssccssssssssccsss" /><path
       style="font-weight:bold;font-size:4.23333px;line-height:1.25;font-family:SGI;-inkscape-font-specification:'SGI Bold';text-align:center;text-anchor:middle;fill:#ffffff;fill-opacity:1;stroke:none;stroke-width:0.264583"
       d="m 324.74795,140.52894 -0.004,0.1524 q -0.004,0.35983 -0.24554,0.5969 -0.2413,0.23707 -0.59266,0.23707 -0.22014,0 -0.4064,-0.1016 -0.18627,-0.10584 -0.30057,-0.28787 l 0.2794,-0.18627 q 0.0635,0.1143 0.1778,0.18627 0.11853,0.0677 0.24977,0.0677 0.18626,0 0.3175,-0.127 0.13123,-0.13123 0.13546,-0.3175 v -0.22013 l -0.004,-0.21167 q 0,-0.15663 -0.1143,-0.2667 -0.11007,-0.11006 -0.2667,-0.11006 -0.22013,0 -0.33867,0.18203 l -0.36829,-0.0381 0.17779,-1.51553 h 1.1303 q 0.0677,0 0.1143,0.0466 0.0466,0.0466 0.0466,0.1143 0,0.0677 -0.0508,0.11429 -0.0466,0.0466 -0.1143,0.0466 h -0.80857 l -0.0974,0.8001 q 0.1397,-0.0635 0.30903,-0.0635 0.32597,0 0.5461,0.20743 0.22013,0.20744 0.22437,0.54187 z"
       id="text1-0-1-4-8-9-5-37"
       inkscape:label="Text"
       aria-label="5" /></g></svg>
