<?xml version="1.0" encoding="UTF-8" standalone="no"?>
<!-- Created with Inkscape (http://www.inkscape.org/) -->

<svg
   width="131.73024mm"
   height="14.778005mm"
   viewBox="0 0 131.73024 14.778004"
   version="1.1"
   id="svg1"
   xml:space="preserve"
   inkscape:version="1.4.3 (0d15f75042, 2025-12-25)"
   sodipodi:docname="Keycaps_PreText.svg"
   xmlns:inkscape="http://www.inkscape.org/namespaces/inkscape"
   xmlns:sodipodi="http://sodipodi.sourceforge.net/DTD/sodipodi-0.dtd"
   xmlns="http://www.w3.org/2000/svg"
   xmlns:svg="http://www.w3.org/2000/svg"><sodipodi:namedview
     id="namedview1"
     pagecolor="#ffffff"
     bordercolor="#666666"
     borderopacity="1.0"
     inkscape:showpageshadow="2"
     inkscape:pageopacity="0.0"
     inkscape:pagecheckerboard="0"
     inkscape:deskcolor="#d1d1d1"
     inkscape:document-units="mm"
     inkscape:zoom="2"
     inkscape:cx="546.5"
     inkscape:cy="401.25"
     inkscape:window-width="1920"
     inkscape:window-height="1016"
     inkscape:window-x="0"
     inkscape:window-y="0"
     inkscape:window-maximized="1"
     inkscape:current-layer="layer1"
     showguides="true"
     showgrid="false"><inkscape:page
       x="7.6410486e-21"
       y="2.8478714e-22"
       width="131.73026"
       height="14.778005"
       id="page2"
       margin="0"
       bleed="0" /></sodipodi:namedview><defs
     id="defs1"><style
       id="style1">.cls-1{fill-rule:evenodd;}</style></defs><g
     inkscape:label="Layer 1"
     inkscape:groupmode="layer"
     id="layer1"
     transform="translate(28.391851,-180.21364)"><path
       id="rect1-21-14-7-0-0-8"
       style="fill:#ffffff;fill-opacity:1;stroke:none;stroke-width:0.799999;stroke-linecap:round;paint-order:markers fill stroke"
       d="m -27.838901,180.21366 c -0.30644,0 -0.55295,0.2465 -0.55295,0.55293 v 13.51642 c 0,0.30643 0.24651,0.55294 0.55295,0.55294 3.70263,0.20758 126.921684,0.20765 130.624301,7e-5 0.30643,0 0.553,-0.24651 0.553,-0.55294 v -13.51649 c 0,-0.30642 -0.24657,-0.55293 -0.553,-0.55293 z m 0.0517,0.27698 130.520811,7e-5 c 0.1641,0 0.29611,0.132 0.29611,0.29611 v 13.47611 c 0,0.1641 -0.13201,0.2961 -0.29611,0.2961 -3.669097,0.20921 -126.836051,0.20931 -130.503271,-7e-5 -0.16411,0 -0.31364,-0.132 -0.31364,-0.2961 v -13.47611 c 0,-0.16411 0.132,-0.29611 0.2961,-0.29611 z"
       inkscape:label="Outline"
       inkscape:export-filename="Caps/Space.svg"
       inkscape:export-xdpi="96"
       inkscape:export-ydpi="96"
       sodipodi:nodetypes="sssccssssssssccsss" /><path
       d="m 40.961125,183.78852 c 0,0.064 -0.0226,0.11856 -0.0677,0.16369 -0.0414,0.0414 -0.0941,0.0621 -0.15804,0.0621 h -6.715038 v -0.45156 h 6.715038 c 0.19848,0 0.22574,0.15652 0.22574,0.22577 z"
       style="font-weight:bold;font-size:5.64444px;line-height:1.25;font-family:SGI;-inkscape-font-specification:'SGI Bold';text-align:center;text-anchor:middle;fill:#ffffff;fill-opacity:1;stroke:none;stroke-width:0.264583"
       id="path1-01"
       sodipodi:nodetypes="sssccss"
       inkscape:label="Space" /></g></svg>
