<?xml version="1.0" encoding="UTF-8" standalone="no"?>
<!-- Created with Inkscape (http://www.inkscape.org/) -->

<svg
   width="13.272191mm"
   height="14.777974mm"
   viewBox="0 0 13.272191 14.777973"
   version="1.1"
   id="svg1"
   xml:space="preserve"
   inkscape:version="1.4.3 (0d15f75042, 2025-12-25)"
   sodipodi:docname="Keycaps_PreText.svg"
   xmlns:inkscape="http://www.inkscape.org/namespaces/inkscape"
   xmlns:sodipodi="http://sodipodi.sourceforge.net/DTD/sodipodi-0.dtd"
   xmlns="http://www.w3.org/2000/svg"
   xmlns:svg="http://www.w3.org/2000/svg"><sodipodi:namedview
     id="namedview1"
     pagecolor="#ffffff"
     bordercolor="#666666"
     borderopacity="1.0"
     inkscape:showpageshadow="2"
     inkscape:pageopacity="0.0"
     inkscape:pagecheckerboard="0"
     inkscape:deskcolor="#d1d1d1"
     inkscape:document-units="mm"
     inkscape:zoom="2"
     inkscape:cx="290.5"
     inkscape:cy="418.25"
     inkscape:window-width="1920"
     inkscape:window-height="1016"
     inkscape:window-x="0"
     inkscape:window-y="0"
     inkscape:window-maximized="1"
     inkscape:current-layer="layer1"
     showguides="true"
     showgrid="false"><inkscape:page
       x="0"
       y="0"
       width="13.272191"
       height="14.777973"
       id="page2"
       margin="0"
       bleed="0" /></sodipodi:namedview><defs
     id="defs1"><style
       id="style1">.cls-1{fill-rule:evenodd;}</style></defs><g
     inkscape:label="Layer 1"
     inkscape:groupmode="layer"
     id="layer1"
     transform="translate(59.025799,-158.46388)"><path
       id="rect1-84-3-4-2-8-1"
       style="fill:#ffffff;fill-opacity:1;stroke:none;stroke-width:0.799999;stroke-linecap:round;paint-order:markers fill stroke"
       d="m -58.472804,158.46389 c -0.30643,0 -0.55744,0.24653 -0.55294,0.55293 l 0.19843,13.51642 c 0.005,0.3064 0.24651,0.55294 0.55294,0.55294 3.70262,0.20758 8.06671,0.20758 11.76933,0 0.30643,0 0.54843,-0.24654 0.55293,-0.55294 l 0.19843,-13.51642 c 0.005,-0.3064 -0.2465,-0.55293 -0.55293,-0.55293 z m 0.0517,0.27698 h 12.06284 c 0.1641,0 0.29853,0.13202 0.29611,0.29611 l -0.19843,13.47611 c -0.002,0.1641 -0.13201,0.29611 -0.29611,0.29611 -3.6691,0.2092 -7.99877,0.20937 -11.66598,0 -0.1641,0 -0.29368,-0.13202 -0.2961,-0.29611 l -0.19843,-13.47611 c -0.002,-0.1641 0.132,-0.29611 0.2961,-0.29611 z"
       inkscape:label="Outline"
       inkscape:export-filename="Caps/Z.svg"
       inkscape:export-xdpi="96"
       inkscape:export-ydpi="96"
       sodipodi:nodetypes="sssccssssssssccsss" /><path
       style="font-weight:bold;font-size:4.23333px;line-height:1.25;font-family:SGI;-inkscape-font-specification:'SGI Bold';text-align:center;text-anchor:middle;fill:#ffffff;fill-opacity:1;stroke:none;stroke-width:0.264583"
       d="m -51.504919,162.79624 q 0.0508,0.0466 0.0508,0.11853 0,0.072 -0.0508,0.12277 -0.04657,0.0466 -0.1143,0.0466 h -1.706032 v -0.33444 l 1.325032,-2.20979 v -0.004 h -1.257299 v -0.33866 h 1.693332 l 0.0042,0.33866 -1.329266,2.20133 v 0.008 h 1.265766 q 0.07197,0 0.118533,0.0508 z"
       id="text1-7-8-0-0-2"
       inkscape:label="Text"
       aria-label="Z" /></g></svg>
